<svg width="31" height="31" viewBox="0 0 31 31" fill="none" xmlns="http://www.w3.org/2000/svg">
<rect x="0.5" y="0.5" width="30" height="30" rx="15" fill="black" fill-opacity="0.35"/>
<path fill-rule="evenodd" clip-rule="evenodd" d="M11.5046 10.3276C11.1792 10.0021 10.6515 10.0021 10.3261 10.3276C10.0007 10.653 10.0007 11.1806 10.3261 11.5061L14.3202 15.5002L10.3261 19.4942C10.0007 19.8197 10.0007 20.3473 10.3261 20.6728C10.6515 20.9982 11.1792 20.9982 11.5046 20.6728L15.4987 16.6787L19.4928 20.6728C19.8182 20.9982 20.3458 20.9982 20.6713 20.6728C20.9967 20.3473 20.9967 19.8197 20.6713 19.4942L16.6772 15.5002L20.6713 11.5061C20.9967 11.1806 20.9967 10.653 20.6713 10.3276C20.3458 10.0021 19.8182 10.0021 19.4928 10.3276L15.4987 14.3217L11.5046 10.3276Z" fill="white"/>
</svg>
