<svg width="321" height="9" viewBox="0 0 321 9" fill="none" xmlns="http://www.w3.org/2000/svg">
<mask id="mask0_12870_40016" style="mask-type:alpha" maskUnits="userSpaceOnUse" x="0" y="0" width="321" height="9">
<rect y="0.401367" width="321" height="8.1974" fill="#C4C4C4"/>
</mask>
<g mask="url(#mask0_12870_40016)">
<path d="M48.2154 -1.33208L48.9999 -1.44014L47.4733 -1.59505L48.2051 -1.70845C48.9389 -1.70741 49.8897 -1.5375 50.4071 -1.62778C50.4703 -1.71519 49.6713 -1.74325 49.4673 -1.81289C49.2869 -1.88428 49.1397 -1.9552 49.0273 -2.0248C49.427 -2.02405 49.8663 -2.00722 50.3194 -1.97529C50.9287 -1.92313 51.5264 -1.89778 52.0464 -1.90202C53.1099 -1.88794 54.1373 -1.90199 55.2934 -1.89889L54.9088 -2.10927L56.3988 -2.06005C56.5568 -2.04403 56.745 -2.0698 56.9002 -2.04997C58.1916 -1.88222 58.738 -1.97363 59.3579 -2.04943C59.485 -2.06904 59.6381 -2.08369 59.8132 -2.09298C61.5359 -2.05279 63.0893 -1.81765 64.6407 -1.69694C64.9327 -1.66612 65.2128 -1.62656 65.4611 -1.58106C66.0007 -1.49261 66.6009 -1.4204 67.2069 -1.37102C67.8128 -1.32165 68.4051 -1.2967 68.9296 -1.29844C70.0895 -1.30039 71.4 -1.24189 72.7342 -1.12859C73.1309 -1.09127 73.5279 -1.06666 73.8999 -1.05631C74.2719 -1.04596 74.6106 -1.0501 74.8945 -1.06847L75.7965 -0.948384C76.1876 -0.997112 76.6833 -1.02385 77.2538 -1.02697C77.8244 -1.03009 78.4577 -1.00952 79.1154 -0.966527C79.8162 -0.919884 80.5281 -0.888442 81.2553 -0.839128C82.7574 -0.74485 84.2194 -0.687193 85.5956 -0.667947C87.6452 -0.610912 89.6476 -0.566813 91.7153 -0.495705C93.0088 -0.461383 94.2691 -0.442505 95.4886 -0.439171C96.9495 -0.425746 98.5297 -0.360754 100.153 -0.247332C100.076 -0.140916 99.3643 -0.172355 98.8865 -0.175956C97.3454 -0.193643 95.768 -0.239476 94.1824 -0.273907C93.4682 -0.287347 92.7735 -0.292438 92.1026 -0.289141C90.981 -0.293553 89.7985 -0.321908 88.5755 -0.373721C86.6436 -0.430733 84.7733 -0.458139 82.9839 -0.455658C82.8437 -0.451443 82.7151 -0.443973 82.6005 -0.433375C82.5766 -0.424196 82.5719 -0.412619 82.5868 -0.399759C82.6017 -0.386898 82.6358 -0.37318 82.6858 -0.359922C82.7357 -0.346665 82.7999 -0.334312 82.8721 -0.324043C82.9443 -0.313772 83.0223 -0.305927 83.0984 -0.301266C83.809 -0.229148 84.5724 -0.151692 85.2426 -0.140796C85.2685 -0.139981 85.2961 -0.138122 85.3234 -0.135351C85.3507 -0.132579 85.377 -0.128964 85.4005 -0.12477C86.9009 0.0274786 88.1345 0.00171436 89.3032 0.0264846C91.2436 0.0934305 93.1142 0.1247 94.8865 0.119823C95.1544 0.120155 95.4436 0.128857 95.7438 0.145617C97.6 0.213552 99.3358 0.22115 100.87 0.168068C101.501 0.15462 102.088 0.124429 102.766 0.123924C103.184 0.121847 103.548 0.102581 103.836 0.0672813C104.124 0.0319808 104.329 -0.0186242 104.441 -0.0814902C104.727 -0.048392 105.018 -0.0188944 105.309 0.00664984C105.484 0.0212558 105.651 0.025135 105.777 0.0174918C105.903 0.00984939 105.979 -0.00874469 105.989 -0.034529C106.041 -0.106739 105.644 -0.143003 105.299 -0.173926C105.507 -0.189412 105.741 -0.198523 105.996 -0.201039C107.434 -0.217539 108.976 -0.198063 110.588 -0.143043C111.84 -0.0771845 112.84 -0.130789 114.157 -0.037914C114.315 -0.0218886 114.445 -0.0454101 114.59 -0.0510575C114.969 -0.0807995 115.442 -0.0874848 115.966 -0.0705285C116.49 -0.0535722 117.051 -0.0134856 117.6 0.0462543C118.283 -0.116957 119.758 0.069497 120.848 0.0862545C121.184 0.169255 120.799 0.154664 120.782 0.177467C120.766 0.200271 120.782 0.177462 120.651 0.164107C119.562 0.281651 118.072 0.307281 116.388 0.237397C116.076 0.237687 115.779 0.243042 115.5 0.25341C115.077 0.268085 114.6 0.26662 114.091 0.249078C113.534 0.236195 113.022 0.242314 112.58 0.267139C112.326 0.266734 112.111 0.27917 111.955 0.303302C111.8 0.327434 111.708 0.362479 111.689 0.405181C111.859 0.4381 112.047 0.468221 112.246 0.494349C113.287 0.597512 114.324 0.640214 115.155 0.614052C116.6 0.568976 118.32 0.612964 119.857 0.597575C120.896 0.591341 122.001 0.609098 123.152 0.650514C123.152 0.650514 123.122 0.692319 123.119 0.69612C123.256 0.714221 123.399 0.728744 123.541 0.738858C123.541 0.738858 123.541 0.738858 123.554 0.719856C123.491 0.701606 123.406 0.684439 123.308 0.670341L122.965 0.635616C123.198 0.62658 123.415 0.599676 123.658 0.616114C124.168 0.646654 124.656 0.659547 125.093 0.654026C125.529 0.648507 125.904 0.624685 126.195 0.583991C126.712 0.531837 127.355 0.50812 128.082 0.51437C128.64 0.508677 129.177 0.496439 129.691 0.477718C129.691 0.477718 129.724 0.432116 129.968 0.407878C129.737 0.377982 129.496 0.35357 129.257 0.335763C128.216 0.291272 127.171 0.250582 126.148 0.220165C125.771 0.216879 125.417 0.221975 125.091 0.235354C124.191 0.25101 123.179 0.22879 122.116 0.169986C122.116 0.169986 121.905 0.148619 121.8 0.137935C122.098 0.0376862 123.128 0.138048 123.544 0.0701556C123.797 0.0713912 124.243 0.079929 124.228 0.0620556C124.193 0.0382055 124.189 0.016048 124.216 -0.00282627C124.243 -0.0217006 124.299 -0.0368248 124.383 -0.0471132C124.466 -0.0574017 124.573 -0.0626017 124.696 -0.0623379C124.82 -0.0620734 124.957 -0.0563495 125.097 -0.0455828C126.269 0.0126622 127.372 0.0288593 128.34 0.00201703C128.707 0.00253557 129.118 0.0197982 129.482 0.0241176C129.705 0.029319 129.909 0.0264255 130.082 0.0155979C130.962 -0.0641508 132.146 -0.0699747 133.456 -0.000999915C134.089 0.023799 134.681 0.0271146 135.201 0.00877886C135.571 0.00549722 135.727 0.0621961 135.99 0.0889062L137.108 0.145212L135.673 0.215764C135.98 0.377447 136.224 0.430759 136.725 0.440832C137.456 0.456043 138.168 0.462915 138.857 0.461406C139.367 0.460077 139.788 0.425256 140.477 0.487102C140.599 0.49719 140.717 0.500455 140.81 0.496349C141.618 0.441444 142.59 0.428844 143.662 0.459406C144.217 0.356593 145.161 0.456555 146.036 0.537097C146.318 0.459651 145.807 0.4241 145.502 0.376845C146.233 0.381683 146.969 0.378921 147.724 0.390229C147.951 0.386112 148.211 0.393154 148.482 0.410802C148.754 0.428448 149.03 0.456218 149.289 0.491937C149.416 0.515017 149.568 0.532388 149.715 0.540441C149.861 0.548495 149.991 0.546617 150.077 0.535194C150.469 0.501508 151.096 0.532534 151.42 0.475632C151.535 0.462545 151.7 0.460719 151.884 0.47047C152.069 0.480223 152.261 0.500923 152.427 0.52886C152.245 0.537576 152.084 0.551302 151.945 0.569735C151.45 0.629615 151.632 0.729665 152.261 0.875123C153.228 0.867122 154.215 0.869395 155.111 0.84198C155.61 0.817372 156.222 0.825064 156.877 0.864196C157.533 0.903327 158.206 0.972345 158.821 1.06349C159.044 1.09854 159.298 1.12281 159.532 1.13149C159.767 1.14017 159.965 1.13262 160.087 1.11034C160.163 1.08457 160.187 1.05196 160.156 1.01533L159.524 0.951225C159.524 0.951225 159.549 0.91702 159.554 0.909419L160.463 0.903672C160.943 0.903474 161.444 0.913549 161.898 0.910678C162.566 0.891589 163.327 0.902229 164.136 0.941938C164.883 0.982656 165.616 1.01343 166.33 1.034C167.021 1.05517 167.522 0.987683 168.179 0.976906C168.677 0.968782 169.224 0.977464 169.8 1.00261C170.794 1.04721 171.707 1.04729 172.455 1.00285C173.328 1.2423 173.752 1.28123 174.561 1.21653L174.942 1.19805L175.046 1.2494L175.337 1.23811C175.881 1.22805 176.425 1.218 176.993 1.21441C177.782 1.23663 178.634 1.29641 179.466 1.38793C179.624 1.40395 179.839 1.4584 179.978 1.50103C180.117 1.54366 180.419 1.67227 180.641 1.75598C180.399 1.8171 180.131 1.87554 179.939 1.9458C179.92 1.9578 179.921 1.97211 179.944 1.98758C179.967 2.00306 180.011 2.01926 180.071 2.03488C180.131 2.05051 180.206 2.06512 180.291 2.07755C180.375 2.08998 180.466 2.09989 180.557 2.10646C180.734 2.12063 180.909 2.13007 181.074 2.13441C181.887 2.14188 182.666 2.13632 183.403 2.1178C183.672 2.09166 184.04 2.08917 184.449 2.11074C184.858 2.13232 185.285 2.17671 185.662 2.23687C186.626 2.20075 187.746 2.21142 188.945 2.26814C190.213 2.23365 191.745 2.30341 192.93 2.22783C192.902 2.26583 193.024 2.33127 193.195 2.36896C193.464 2.42623 193.77 2.4793 194.098 2.52593L196.604 2.61697C196.697 2.66378 196.814 2.71117 196.953 2.75852C197.048 2.79592 197.214 2.83252 197.416 2.86055C197.617 2.88859 197.838 2.90587 198.031 2.90871C198.53 2.92259 198.948 2.89157 199.542 2.9682C198.627 3.04064 197.392 3.03102 196.058 2.94104C194.805 2.87261 193.6 2.83841 192.487 2.83972C192.12 2.8392 191.637 2.84319 191.522 2.88459C191.268 3.00158 190.603 2.98309 189.828 2.96151C189.218 2.93788 188.662 2.94053 188.204 2.96924C187.746 2.99795 187.4 3.05189 187.194 3.12664C187.141 3.19885 187.266 3.26049 187.801 3.3025L190.024 3.471C190.352 3.44933 190.663 3.42369 190.956 3.39417C191.449 3.35497 192.058 3.34421 192.736 3.36273C193.413 3.38125 194.141 3.42855 194.862 3.50095C195.231 3.53834 195.599 3.57574 195.866 3.55797C196.101 3.53756 196.317 3.51312 196.513 3.48484C196.552 3.46589 196.568 3.44407 196.559 3.42023C196.701 3.43132 196.843 3.44573 196.981 3.46297C198.078 3.6641 198.928 3.66062 199.701 3.60845C199.91 3.59294 200.069 3.56829 200.281 3.54898C200.492 3.52968 200.567 3.50461 200.759 3.51191C202.294 3.57788 202.736 3.35755 204.029 3.3664C204.092 3.35779 204.131 3.34492 204.143 3.32898C204.154 3.31304 204.138 3.29454 204.095 3.27518C204.004 3.25771 203.898 3.24267 203.788 3.23147C203.677 3.22027 203.566 3.21326 203.463 3.21108C202.868 3.18281 202.343 3.19148 201.976 3.23561C201.717 3.25364 201.443 3.26801 201.154 3.27864L199.859 2.95957C201.114 2.98882 202.3 2.98863 203.391 2.959C203.63 2.94236 204.033 2.97103 204.368 2.97648L206.833 3.0063C207.339 3.00877 207.771 2.95875 208.478 3.07535C208.478 3.07535 208.945 3.09415 209.069 3.07823C209.194 3.06231 209.746 2.9633 210.075 2.89879C210.457 2.91718 210.986 2.96681 211.224 2.95017C211.64 2.90931 212 2.85692 212.298 2.79395L213.787 2.88384C213.785 2.9637 213.731 3.03882 213.625 3.10807C213.509 3.17486 213.513 3.25503 213.636 3.34203C213.76 3.42903 214 3.52038 214.336 3.60863L215.806 4.07603C216.046 4.10733 216.302 4.12839 216.539 4.13637C216.776 4.14435 216.982 4.13885 217.13 4.12062C217.763 4.06649 218.472 4.02418 219.104 3.97006C219.92 4.05286 219.71 4.1866 220.304 4.30391L222.225 4.49889C222.518 4.67958 222.817 4.85266 221.925 4.91315C221.748 4.92373 221.868 4.99297 221.706 5.02142C222.399 5.15702 223.161 5.1976 223.863 5.28112C224.14 5.34119 224.372 5.40477 224.547 5.46879C224.739 5.5652 225.129 5.66367 225.632 5.74296C226.135 5.82224 226.711 5.87597 227.235 5.89254C228.115 5.9433 229.016 6.01954 229.898 6.11784C230.199 6.15202 230.508 6.17692 230.805 6.19087C231.102 6.20482 231.38 6.20749 231.619 6.1987C232.472 6.18322 233.194 6.13 233.738 6.04249C234.276 5.96823 235.001 5.93244 235.848 5.93836C237.295 6.08527 237.587 6.30663 238.464 6.5016L236.95 6.52346C236.895 6.59947 236.995 6.69531 236.375 6.69356C235.755 6.6918 236.069 6.76453 236.271 6.83798C236.342 6.87492 236.48 6.91293 236.662 6.94556C236.845 6.97819 237.06 7.00343 237.271 7.01703L238.56 7.11103C239.016 7.14681 239.458 7.16209 239.837 7.15519C240.216 7.14829 240.517 7.11948 240.707 7.07192C240.925 7.02677 241.226 6.99622 241.591 6.98216C242.057 6.94532 242.44 6.89054 242.726 6.81988L244.544 6.92283C244.622 6.85182 244.872 6.80203 245.252 6.78188C245.632 6.76173 246.119 6.77244 246.63 6.81222L247.856 6.87542C249.219 6.94436 249.518 6.92166 249.917 6.72147L248.283 6.36388C248.52 6.26969 248.75 6.1869 248.979 6.10411C248.572 5.9863 248.029 5.87487 247.404 5.78115C246.822 5.68043 246.223 5.58289 245.61 5.48889C244.945 5.39284 244.242 5.30932 243.416 5.20104C243.272 5.16601 243.063 5.10397 242.795 5.04418C242.527 4.98608 242.248 4.92913 241.958 4.87356C242.013 4.79754 242.063 4.72914 241.957 4.6409C242.465 4.66905 242.991 4.7183 243.486 4.78419C243.981 4.85008 244.43 4.93054 244.792 5.01832C244.853 5.03389 244.927 5.04852 245.011 5.06121C245.094 5.0739 245.184 5.08436 245.275 5.09188C246.169 5.14582 246.596 5.2585 247.033 5.39666C247.327 5.46729 247.706 5.53001 248.118 5.57612C248.907 5.65626 249.681 5.75919 250.436 5.84805C250.667 5.87766 250.907 5.90204 251.146 5.92017C251.936 5.97782 252.73 6.05842 253.489 6.15789C253.737 6.18317 253.975 6.21663 254.182 6.25546C254.39 6.29429 254.562 6.33737 254.684 6.38111C254.496 6.42903 254.394 6.48951 254.386 6.55891C254.353 6.60452 254.907 6.69749 255.169 6.76488C255.431 6.83227 254.917 6.80052 254.743 6.80729C254.027 6.82033 253.894 6.84765 254.323 6.99721C254.466 7.04424 254.561 7.0913 254.602 7.13546C254.643 7.17961 254.629 7.21994 254.561 7.25392C254.459 7.39454 254.15 7.50999 253.937 7.64753C254.267 7.73813 254.819 7.83489 254.879 7.94706C254.908 7.97194 254.969 7.99831 255.058 8.02425C255.146 8.05018 255.261 8.07505 255.392 8.09704C255.739 8.14451 256.054 8.20128 256.313 8.26295C256.572 8.32462 256.768 8.38954 256.887 8.45267C256.925 8.47878 257.019 8.50648 257.148 8.53022C257.278 8.55396 257.434 8.57199 257.585 8.58067C257.766 8.59134 257.928 8.58993 258.037 8.57674C258.147 8.56355 258.195 8.53958 258.173 8.50979C258.178 8.45384 258.154 8.3955 258.102 8.33528C258.132 8.29348 258.162 8.25167 258.043 8.18244C258.582 8.2077 259.149 8.25834 259.681 8.32884C260.212 8.39935 260.689 8.48703 261.059 8.58235C261.468 8.68097 261.845 8.78452 262.299 8.89988C262.205 9.0291 262.205 9.0291 263.17 9.25755L268.288 9.36896L269.337 9.52028C270.316 9.65219 270.548 9.64315 271.163 9.57495L271.576 9.51086C272.445 9.599 273.445 9.7005 273.988 9.53534C274.165 9.64299 274.28 9.67915 274.24 9.69548C273.981 9.85434 273.53 9.98914 272.906 10.0945C272.747 10.1192 272.635 10.1568 272.449 10.1787C271.852 10.3028 271.713 10.4945 272.062 10.7146C272.235 10.812 272.486 10.9118 272.808 11.0107C272.337 11.1479 271.713 11.2616 270.953 11.3487C270.308 11.4161 269.777 11.5063 269.375 11.6169C269.014 11.7283 268.473 11.8121 267.784 11.8634C267.434 11.8852 267.179 11.9282 267.044 11.9882C267.003 12.1505 267.096 12.3243 267.319 12.5057C267.361 12.5609 267.481 12.6205 267.668 12.6799C267.856 12.7392 268.106 12.7967 268.4 12.8478C268.4 12.8478 268.541 12.8867 268.609 12.9099C268.666 13.1064 268.454 13.2797 267.987 13.4179C267.911 13.4572 267.754 13.4855 267.535 13.4999C267.315 13.5143 267.041 13.5142 266.742 13.4996C266.109 13.4761 265.517 13.4733 264.905 13.4601C264.246 13.4415 263.665 13.4562 263.223 13.5026C262.782 13.549 262.497 13.6254 262.398 13.7238C262.391 13.7516 262.372 13.7783 262.34 13.8036C262.321 13.8166 262.311 13.8306 262.31 13.8454L263.715 14.1675L262.125 14.2958C262.032 14.425 262.795 14.5025 263.178 14.5984L262.941 14.6519C262.637 14.6822 262.227 14.6243 261.855 14.5907L261.487 14.5533L261.443 14.6141C261.213 14.6969 260.377 14.6038 260.05 14.6645C259.724 14.7252 259.957 14.7937 260.446 14.8597C260.786 14.9087 261.151 14.9478 261.514 14.974C261.877 15.0002 262.227 15.0129 262.54 15.011C262.727 15.0045 262.882 14.9897 262.996 14.9675C263.656 14.8728 264.385 14.7914 265.178 14.7239C265.786 14.6632 266.547 14.6374 267.408 14.6483C267.661 14.6437 267.965 14.6581 268.269 14.6888C268.572 14.7196 268.854 14.7648 269.066 14.8166L269.512 14.8251C269.512 14.8251 269.756 14.8784 269.722 14.8871C269.552 15.0451 269.749 15.2382 270.284 15.4378L269.819 15.4559C269.154 15.4374 269.576 15.5577 269.476 15.6169C269.004 15.6057 268.39 15.5557 268.166 15.6309L267.831 15.6255L267.963 15.6388L268.122 15.6142L268.747 15.7265C268.451 15.7454 268.236 15.7685 267.975 15.7787C267.83 15.7876 267.715 15.8032 267.637 15.8246C267.558 15.8461 267.517 15.873 267.517 15.9036C267.518 15.9508 267.44 15.9904 267.291 16.0189C267.142 16.0473 266.926 16.0635 266.665 16.066C266.353 16.067 266.175 16.1183 265.992 16.1365L266.786 16.4454C266.786 16.4454 266.391 16.4054 266.606 16.4598L266.634 16.4218L267.115 16.4992C267.461 16.567 267.703 16.5834 267.908 16.5348C268.113 16.4862 268.066 16.5509 268.164 16.5323C268.129 16.5817 267.906 16.6162 267.715 16.6458C267.494 16.669 267.245 16.6861 266.972 16.6968C267.464 16.9141 267.488 16.9205 266.768 16.978C266.049 17.0356 266.297 17.1219 265.695 17.1343C265.092 17.1466 265.777 17.2936 266.18 17.3222C266.479 17.3411 266.784 17.3704 267.073 17.4083C267.363 17.4461 267.631 17.4916 267.858 17.5415L267.737 17.7087C267.56 17.6949 267.382 17.6768 267.211 17.6553C266.627 17.5634 266.097 17.4769 265.578 17.5303L265.825 17.6574L264.013 17.5837C264.06 17.679 264.336 17.7874 264.783 17.8863C264.716 17.9405 264.675 17.9977 264.66 18.0573C264.629 18.0991 264.451 18.0728 264.334 18.0773C263.919 18.0843 263.579 18.1126 263.343 18.1598C263.107 18.207 262.982 18.2715 262.98 18.3478C262.933 18.4125 263.571 18.5465 263.97 18.5421C264.965 18.555 266.042 18.6047 267.141 18.6885C267.812 18.6994 267.906 18.5295 269.009 18.6455C269.031 18.724 268.89 18.7875 268.607 18.8265C268.324 18.8654 267.914 18.8778 267.44 18.8616C267.71 19.0358 269.202 19.0812 269.268 19.2634C268.897 19.2505 268.499 19.2202 268.115 19.1755C267.731 19.1309 267.374 19.0733 267.079 19.0086C267.016 18.9926 266.936 18.9779 266.847 18.9658C266.758 18.9537 266.664 18.9446 266.572 18.9394C266.48 18.9341 266.393 18.9328 266.321 18.9357C266.248 18.9386 266.192 18.9455 266.157 18.9558C266.364 19.0216 266.591 19.0977 266.85 19.1689C267.11 19.2401 267.172 19.2709 267.359 19.2858C268.754 19.4274 269.418 19.6824 270.624 19.8497C270.94 19.8818 270.98 19.9836 270.705 19.9721C270.444 19.9606 270.208 19.9621 270.023 19.9765C269.838 19.9909 269.712 20.0175 269.658 20.0535C269.455 20.0954 269.203 20.1288 268.908 20.1528C270.145 20.4144 271.621 20.6456 273.197 20.8246C273.495 20.86 273.806 20.8816 274.085 20.8862C274.964 20.8864 275.897 20.9072 276.865 20.948C277.209 20.9592 277.526 20.9581 277.8 20.945C278.698 20.9138 279.412 20.9821 280.063 21.1747L281.142 21.48C281.107 21.5294 280.926 21.5844 280.786 21.66L281.629 21.8231L288.06 21.4476L289.351 21.8111L291.202 21.7909C291.344 21.8014 291.486 21.8159 291.623 21.8337C291.997 21.941 292.29 22.0441 292.696 22.1466C293.103 22.249 293.828 22.2614 294.334 22.3821C294.84 22.5028 295.347 22.5053 295.973 22.577C296.032 22.6704 295.971 22.7545 295.795 22.824C295.737 22.9038 295.419 22.9531 295.364 23.0292C295.37 23.106 295.252 23.1712 295.02 23.2189C294.788 23.2666 294.45 23.2953 294.036 23.3024C292.877 23.4659 291.48 23.5824 289.887 23.6483C289.747 23.6531 289.631 23.6641 289.546 23.6808C289.461 23.6974 289.409 23.7193 289.393 23.745C289.395 23.8196 289.289 23.884 289.082 23.9336C288.875 23.9832 288.572 24.0167 288.197 24.0316C288.097 24.0346 288.021 24.044 287.979 24.0585C287.837 24.0679 287.733 24.0859 287.678 24.1107C287.623 24.1355 287.618 24.1663 287.665 24.2002C287.712 24.234 287.807 24.2697 287.944 24.3039C288.08 24.338 288.252 24.3695 288.442 24.3951C288.719 24.4365 289.002 24.476 289.289 24.5137C289.272 24.5365 288.987 24.5402 289.029 24.5607C289.141 24.6263 289.168 24.6877 289.105 24.7402C289.043 24.7926 288.893 24.8346 288.669 24.8628L290.206 25.3941C291.139 25.4677 292.054 25.5925 292.778 25.7448C292.779 25.7697 292.737 25.7907 292.657 25.8054C292.577 25.8202 292.461 25.8284 292.321 25.829C291.946 25.8399 291.592 25.8611 291.188 25.8731C290.94 25.882 290.735 25.9018 290.583 25.9312C290.43 25.9606 290.335 25.999 290.301 26.0442L291.203 26.2418C290.914 26.29 290.7 26.3131 290.509 26.3427C290.617 26.4048 290.803 26.469 291.053 26.5304C291.302 26.5918 291.608 26.6488 291.948 26.6968C292.039 26.7067 292.132 26.7139 292.221 26.7181C292.31 26.7222 292.394 26.7232 292.467 26.7209C293.166 26.6531 293.984 26.7728 294.778 26.886C295.572 26.9992 296.003 27.0674 296.589 27.1555L297.71 27.1673C297.994 27.209 298.248 27.258 298.45 27.3104C298.653 27.3629 298.799 27.4172 298.877 27.4692C298.816 27.5528 298.284 27.507 297.967 27.5156C297.215 27.5677 296.226 27.5566 295.164 27.4842C294.901 27.4575 294.631 27.479 294.375 27.4816C293.823 27.492 293.292 27.5089 292.785 27.5323C292.451 27.5541 292.139 27.581 291.85 27.6129C291.773 27.7194 292.985 27.8015 292.297 27.8541C292.534 27.8782 292.623 27.9116 292.745 27.8995C293.525 27.9686 294.294 28.0028 294.962 27.9981C296.244 27.9834 297.7 28.0319 299.211 28.1396C300.841 28.2511 302.405 28.298 303.774 28.2762C304.295 28.275 304.878 28.2978 305.478 28.343C306.186 28.4057 306.889 28.445 307.541 28.4586C307.757 28.4591 307.998 28.4698 308.244 28.4897C308.49 28.5097 308.733 28.5384 308.956 28.5736C308.936 28.6002 308.725 28.6195 308.772 28.6324C309.447 28.8315 309.721 29.0388 310.76 29.2422C311.471 29.3143 312.287 29.3971 312.752 29.3015C313.217 29.2059 313.05 29.1237 312.125 28.8789C312.326 28.8754 312.568 28.8868 312.808 28.9112C313.049 28.9356 313.273 28.9714 313.441 29.0124L314.241 29.1956L314.962 29.3707C314.899 29.4582 314.849 29.5266 314.797 29.5988C314.715 29.6755 314.805 29.7688 315.056 29.8657C315.208 29.9187 315.339 29.9716 315.45 30.024C315.901 30.2338 316.031 30.4321 315.827 30.5967C315.436 30.8333 314.891 31.051 314.198 31.2473C313.467 31.4382 313.066 31.6791 312.464 31.8872C312.156 31.982 311.783 32.0669 311.348 32.1411C310.522 32.3062 309.617 32.4632 308.789 32.6321C307.96 32.8009 307.025 32.9222 306.105 33.0614C304.735 33.2266 303.254 33.3692 301.671 33.4886C300.691 33.5931 299.685 33.695 298.779 33.8152C297.708 33.9506 296.451 34.0479 295.037 34.1046C293.789 34.1724 292.674 34.2728 291.713 34.4037C291.612 34.4178 291.533 34.4358 291.477 34.4572C291.304 34.5907 290.819 34.6848 290.096 34.7251C290.14 34.7641 290.196 34.8039 290.264 34.8441C290.365 34.892 290.386 34.9369 290.324 34.9729C290.263 35.0088 290.122 35.0343 289.921 35.0458C289.343 35.0789 288.862 35.1351 288.501 35.2118C288.368 35.2311 288.286 35.2591 288.261 35.2935C288.236 35.328 288.269 35.3677 288.358 35.4094C288.436 35.4524 288.442 35.4919 288.374 35.5228C288.307 35.5538 288.169 35.5747 287.978 35.583C287.489 35.6237 286.965 35.6564 286.41 35.6809C285.229 35.735 283.855 35.7344 282.371 35.679C282.213 35.663 282.054 35.6876 281.87 35.6689C280.82 35.6069 279.846 35.5973 279.064 35.6413C278.148 35.6584 277.189 35.655 276.223 35.663C274.827 35.6576 273.539 35.6903 272.395 35.76C271.088 35.6926 270.353 35.8098 269.249 35.8121C268.231 35.8241 267.265 35.853 266.362 35.8984C264.905 35.9587 263.454 36.0114 262.019 36.0819C260.672 36.1156 259.432 36.1798 258.32 36.2736C257.894 36.3161 257.122 36.25 256.832 36.3389C256.542 36.4277 255.956 36.4172 255.483 36.4467L253.989 36.5195C253.732 36.5368 253.45 36.5478 253.146 36.5523C251.757 36.5582 250.796 36.6768 249.507 36.7011L249.375 36.6877C247.086 36.864 244.467 36.9608 241.595 36.9752C239.917 37.0293 238.082 37.0267 236.302 37.0664C235.877 37.1456 234.874 37.048 234.341 37.1204C233.809 37.1928 232.939 37.1453 232.252 37.1572C231.566 37.1691 230.894 37.1989 230.16 37.1979C229.523 37.1982 228.985 37.2305 228.595 37.2919C227.705 37.3934 226.619 37.4531 225.388 37.4683C223.758 37.4946 222.217 37.5545 220.56 37.5413C220.583 37.6153 220.482 37.6782 220.265 37.7236C220.049 37.7691 219.725 37.7953 219.327 37.7998C217.555 37.828 215.948 37.9015 214.152 37.9233L213.672 37.9235L208.301 37.9659C206.854 37.9741 205.46 37.9877 203.984 37.997C203.431 37.9409 203.418 38.0375 203.036 38.0191C202.929 37.9715 202.803 37.9505 202.614 37.9763L202.573 38.0333L196.444 38.109C194.044 38.1643 191.52 38.1808 188.892 38.1586C188.269 38.1642 187.687 38.1831 187.156 38.2149C186.664 38.2266 186.151 38.2317 185.619 38.2303C184.901 38.216 184.199 38.2087 183.516 38.2086C181.72 38.2304 179.836 38.2187 177.87 38.2027C175.903 38.1868 174.414 38.2151 172.663 38.2129C171.478 38.211 170.298 38.2014 169.072 38.1789C168.486 38.1684 167.764 38.1115 167.157 38.0907C166.551 38.07 166.353 38.0703 166.273 38.1029C166.009 38.1944 165.345 38.1353 164.815 38.1263C163.78 38.1111 163.633 38.0799 163.353 37.8433L164.622 37.7681C164.933 37.7439 165.324 37.7396 165.758 37.7558C166.192 37.7719 166.653 37.8079 167.098 37.8603C167.273 37.8828 167.456 37.9005 167.637 37.9125C167.817 37.9245 167.991 37.9306 168.149 37.9303C169.43 37.9175 170.693 37.8906 171.924 37.8686L172.103 37.8542L172.115 37.6432C171.952 37.6225 171.783 37.6054 171.615 37.5925L165.441 37.4556C164.025 37.422 162.554 37.3462 161.163 37.3152C159.773 37.2843 159.024 37.2654 157.945 37.2334C157.49 37.2152 157.026 37.1913 156.556 37.1618C156.583 37.1415 156.599 37.1199 156.603 37.0972C156.627 37.063 156.66 37.0174 156.461 36.9808C156.243 36.9292 155.952 36.8851 155.646 36.8573C155.358 36.839 155.08 36.8286 154.821 36.8266C153.569 36.8089 152.139 36.6975 150.835 36.516L150.38 36.6371C148.424 36.5691 146.438 36.5022 144.394 36.4376C143.984 36.42 143.555 36.3861 143.137 36.3386C142.69 36.2932 142.278 36.1984 141.807 36.1465C141.342 36.1092 140.879 36.0801 140.429 36.0597C140.551 36.0286 140.712 36.0037 140.906 35.9858C141.098 35.9795 141.237 35.9601 141.304 35.9302C141.372 35.9004 141.363 35.8617 141.281 35.8198C141.135 35.7479 141.071 35.6802 141.388 35.6716C141.681 35.6552 141.89 35.6197 141.992 35.5693C142.093 35.5189 142.083 35.4556 141.961 35.387C141.907 35.347 141.87 35.3077 141.848 35.2695L141.716 35.2562C141.282 35.1142 140.415 35.063 139.793 34.9468C139.499 34.9131 139.195 34.8937 138.929 34.8917C138.24 34.8667 137.57 34.8558 136.858 34.8244C136.518 34.8099 136.163 34.7836 135.812 34.7468C135.312 34.6961 135.26 34.6907 134.969 34.5062C135.42 34.5095 135.778 34.4819 135.981 34.4282C136.185 34.3745 136.222 34.2981 136.087 34.2117C135.715 34.023 135.322 33.824 133.639 33.6899C134.187 33.6833 134.716 33.6702 135.221 33.6506C135.368 33.6464 135.478 33.6325 135.537 33.6109C135.595 33.5892 135.599 33.5608 135.548 33.5295C135.497 33.4981 135.393 33.4653 135.251 33.4354C135.108 33.4055 134.934 33.38 134.751 33.3623C133.863 33.2555 132.936 33.1841 132.075 33.156C131.35 33.1435 130.695 33.1505 129.847 33.1502L128.847 33.0487C128.864 33.0259 128.717 32.9947 128.754 32.9821C129.008 32.8651 129.289 32.7508 129.577 32.6251C129.116 32.5572 128.717 32.4752 128.425 32.3886C128.132 32.302 127.96 32.2141 127.926 32.1352C127.901 32.1114 127.907 32.0897 127.945 32.0716C127.982 32.0536 128.05 32.0396 128.142 32.0307C128.406 32.0155 128.609 31.9863 128.737 31.9455C128.864 31.9047 128.912 31.8533 128.878 31.7953L128.1 31.5818C125.758 31.4294 123.458 31.3205 121.243 31.2572L119.243 31.2093C119.002 31.1522 119.077 31.1271 119.304 31.1257C119.531 31.1242 120.169 31.1401 120.615 31.1486C121 31.1598 121.342 31.1524 121.608 31.1272C121.874 31.102 122.054 31.0598 122.132 31.0047L121.461 30.7612C121.493 30.7156 121.54 30.6509 121.904 30.6553C122.153 30.65 122.337 30.627 122.425 30.5901C122.513 30.5532 122.501 30.5044 122.391 30.4517C122.374 30.4135 122.399 30.3788 122.465 30.3491C123.004 30.3466 123.539 30.3479 124.028 30.3363C124.256 30.3325 124.448 30.3184 124.592 30.2949C124.735 30.2715 124.827 30.2393 124.861 30.2006C124.879 30.1627 124.836 30.1196 124.736 30.0748C124.635 30.0299 124.481 29.9845 124.285 29.9422C123.519 29.8899 122.818 29.8893 122.337 29.9403C122.165 29.9804 121.889 30.0023 121.546 30.0031C121.202 30.0039 120.807 29.9836 120.412 29.9449C119.96 29.9003 119.509 29.8807 119.14 29.8897C118.771 29.8986 118.508 29.9354 118.399 29.9936C117.935 29.971 117.524 29.9537 117.118 29.9289C116.639 29.8975 116.187 29.8883 115.809 29.9022C115.206 29.912 114.555 29.9062 113.872 29.8851C111.904 29.8323 109.934 29.7832 108.028 29.7612C107.524 29.755 107.088 29.7719 106.59 29.758C106.091 29.7441 105.697 29.7816 105.073 29.7061C104.955 29.6944 104.835 29.6869 104.724 29.6841C104.613 29.6814 104.514 29.6835 104.435 29.6903C103.34 29.75 102.056 29.7585 100.659 29.7151C98.7456 29.7045 96.7612 29.6745 94.8449 29.6677C94.2828 29.6735 93.7516 29.6892 93.257 29.7146C92.8805 29.7299 92.4861 29.7403 92.076 29.7457C91.7617 29.7505 91.4611 29.7364 91.5142 29.8193C91.5673 29.9021 91.0962 29.8503 90.8248 29.835C89.8921 29.7948 88.9389 29.7404 87.9757 29.6723C87.0267 29.5984 86.0969 29.5554 85.2418 29.5458C84.6242 29.5403 83.9874 29.5613 83.1934 29.4481C83.2237 29.4063 83.2539 29.3645 83.4267 29.3209C82.7792 29.2008 82.0404 29.0974 81.2715 29.0194C80.5025 28.9413 79.7255 28.8909 79.0046 28.8721L78.0106 28.6448C77.7659 28.6181 77.5161 28.5987 77.2763 28.5877C77.0365 28.5767 76.8119 28.5743 76.616 28.5808C76.4646 28.5841 76.2801 28.5756 76.0963 28.557C75.9126 28.5383 75.7419 28.5108 75.6157 28.4793C75.4269 28.4393 75.1964 28.4047 74.9529 28.38C74.7095 28.3553 74.4639 28.3415 74.247 28.3404C73.564 28.3157 72.835 28.2586 72.1345 28.175C71.9527 28.126 71.8389 28.0753 71.8069 28.0293C71.7749 27.9833 71.8263 27.9439 71.9546 27.916C72.1615 27.8668 72.2777 27.804 72.2961 27.7316C72.3145 27.6591 72.2348 27.5784 72.0617 27.4945C71.9731 27.4429 71.9435 27.3941 71.9747 27.351C72.0059 27.3079 72.0972 27.2714 72.2432 27.2437C72.7881 27.1154 72.6423 27.0435 71.7508 26.8306C71.606 26.7951 71.4315 26.762 71.2382 26.7332C71.045 26.7045 70.8374 26.6808 70.6284 26.6637C70.1381 26.629 69.6546 26.6032 69.1866 26.5867C68.9234 26.56 68.6534 26.5816 68.3502 26.5712C66.8337 26.5193 66.6117 26.4356 66.1206 26.2552L65.7627 26.1251C65.0989 26.0196 64.3729 25.9321 63.637 25.8687C62.9012 25.8053 62.1738 25.7677 61.5072 25.7585C61.2423 25.7578 60.9377 25.7398 60.6402 25.7072C59.6718 25.6076 58.6912 25.5387 57.7632 25.5051C57.1849 25.4861 56.5616 25.437 55.968 25.3638C55.3744 25.2905 54.8359 25.1962 54.4171 25.0921C54.0409 24.9983 53.5487 24.9141 53.0091 24.8513C52.3773 24.7872 52.3188 24.7119 52.6716 24.6539C53.0244 24.5958 53.6152 24.5212 54.1397 24.4602C54.3222 24.4394 54.4352 24.4057 54.4663 24.3628C54.4974 24.3198 54.4452 24.2693 54.3156 24.2169C54.2324 24.1272 54.218 24.0422 54.2727 23.9637C54.3019 23.9311 54.2817 23.8937 54.2135 23.8541C54.1452 23.8145 54.0305 23.7735 53.877 23.7339C53.7236 23.6944 53.5349 23.6572 53.3238 23.6249C53.1127 23.5925 52.884 23.5658 52.6532 23.5464C51.6793 23.4476 50.7317 23.3515 49.7386 23.2792C49.3223 23.2452 48.9066 23.203 48.5014 23.1537C47.6721 23.0318 46.7848 22.9306 45.8912 22.8562C45.4671 22.8229 45.0524 22.7647 44.737 22.6942C43.7421 22.5042 42.8253 22.3045 42.0033 22.0986C41.8051 22.0347 41.5459 21.9724 41.2418 21.9156C40.9377 21.8588 40.5953 21.8086 40.2361 21.7683C39.9466 21.739 39.7109 21.6742 39.4878 21.6312C39.3256 21.5315 39.3082 21.4393 39.4374 21.3632C39.5666 21.2871 39.838 21.2297 40.2262 21.1962C40.5943 21.156 40.9388 21.1094 41.257 21.0601C41.6406 21.0202 42.0966 20.9963 42.6081 20.9891C43.2139 20.9678 43.6618 20.9066 43.8935 20.8136C42.2352 20.6453 40.6582 20.4037 39.2046 20.4602L38.1002 20.3073C38.1442 20.2465 38.1827 20.1933 38.2184 20.1439C38.4811 20.054 38.5631 19.9406 38.4576 19.8133C38.3706 19.7517 38.3785 19.6957 38.4804 19.6508C38.5822 19.606 38.7745 19.574 39.0378 19.558C40.5975 19.394 42.401 19.2833 43.8636 19.0972C44.3222 19.0622 44.859 19.0464 45.4515 19.0503C46.0247 19.0391 46.0007 18.955 45.3411 18.8514C44.9708 18.7972 44.5935 18.7453 44.2104 18.6959C42.5211 18.6876 41.8329 18.936 39.9051 18.8668L39.0116 18.5396C38.77 18.5345 38.5355 18.5325 38.3096 18.5336L35.0772 18.6666C34.808 18.6732 34.5984 18.696 34.4723 18.7322C34.3462 18.7685 34.3086 18.8167 34.3638 18.8716C34.3857 18.9387 34.3412 19.0002 34.2319 19.054C34.1614 19.0917 34.2065 19.1417 34.3573 19.1932C34.6971 19.3093 34.261 19.3262 33.9857 19.3554C33.9153 19.3582 33.8341 19.3579 33.7469 19.3545C33.6596 19.3511 33.568 19.3446 33.4774 19.3354C33.3869 19.3262 33.299 19.3145 33.2191 19.3009C33.1391 19.2874 33.0687 19.2723 33.0117 19.2566C32.5265 19.1461 32.1022 19.0296 31.6252 18.9078C31.9638 18.7912 31.5654 18.5999 32.0938 18.4944C32.1529 18.4733 32.1765 18.4476 32.1633 18.4189C32.1501 18.3902 32.1002 18.3591 32.0168 18.3275C31.8016 18.2458 31.6991 18.1662 31.7197 18.0966C31.7402 18.0271 31.883 17.9701 32.1337 17.9314L32.164 17.8896C31.5028 17.749 31.678 17.624 31.4183 17.4753L30.7822 17.3781C29.1997 17.1441 29.1969 17.1479 27.8345 17.1565C27.5599 17.0675 27.9088 17.0539 28.1705 17.0437L30.3618 16.9438C31.7945 16.8771 33.2689 16.8309 34.8694 16.8056C36.4699 16.7804 38.2542 16.6963 39.9085 16.6357C39.9922 16.631 40.0562 16.6217 40.0951 16.6086C40.1341 16.5955 40.1469 16.579 40.1324 16.5605C40.0667 16.5404 39.9806 16.5211 39.8806 16.5039C39.7806 16.4867 39.6691 16.472 39.5545 16.4611C39.0281 16.4076 38.4879 16.3732 37.9269 16.3285L36.8811 16.251L36.5593 16.149C36.3499 16.0869 36.2068 16.0112 35.9283 15.9666C35.6987 15.9334 35.4496 15.9081 35.2067 15.8935C34.9638 15.8789 34.7361 15.8755 34.5474 15.8836C34.0242 15.9039 33.5507 15.9334 33.051 15.9602C32.5513 15.987 32.2759 16.0162 31.8426 16.0293C30.9622 16.0353 30.1114 16.0511 29.2938 16.0767C28.6051 16.1371 27.9682 16.2087 27.3869 16.2911C27.0243 16.3237 26.6852 16.3627 26.0661 16.3203C25.7723 16.2818 25.519 16.2312 25.3509 16.1776C25.1828 16.124 25.1109 16.0707 25.1479 16.0272C25.1811 15.9931 25.2752 15.9662 25.4212 15.9489C25.5672 15.9315 25.7603 15.9245 25.9823 15.9283C26.6038 15.922 27.1785 15.9009 27.6948 15.8654C28.4135 15.8012 29.2884 15.7734 30.2684 15.7839C30.6007 15.7932 30.8235 15.7587 31.1142 15.7474C31.4049 15.7361 31.6512 15.708 31.9753 15.7287C32.9822 15.7819 33.465 15.7003 34.0685 15.6473C34.2727 15.6239 34.3993 15.5859 34.4342 15.5376C34.4691 15.4893 34.4111 15.4326 34.2664 15.3737C33.9879 15.2564 33.6472 15.1384 33.2497 15.0217C33.045 14.9643 32.7829 14.9098 32.4838 14.8624C32.1847 14.8151 31.8567 14.7762 31.5257 14.7488C31.3275 14.677 31.2218 14.6064 31.2181 14.5433C31.2144 14.4802 31.3128 14.4268 31.5044 14.3877C31.9927 14.2985 32.4256 14.2078 33.5198 14.2577C34.0342 14.2767 34.5183 14.2803 34.9528 14.2685C35.9168 14.2522 37.0287 14.2878 38.1838 14.3719C38.4826 14.3935 38.7764 14.4082 39.0563 14.4156C41.0532 14.4673 42.9558 14.4931 44.864 14.5113C45.8748 14.5201 46.8939 14.5174 47.9491 14.5429C50.4237 14.5982 52.6764 14.5698 55.0649 14.5878C56.3159 14.597 57.4356 14.5598 58.3654 14.478C58.5464 14.4506 58.7019 14.4186 58.83 14.3824C58.2139 14.2874 57.5372 14.2121 56.8646 14.1639C56.1921 14.1156 55.5463 14.096 54.989 14.1068C54.6827 14.1334 54.2867 14.1383 53.8454 14.1209C53.404 14.1035 52.9345 14.0645 52.4892 14.0082L53.7837 13.9764C54.6421 13.9615 55.5213 13.9569 56.3561 13.9355C57.6824 13.8988 58.9116 13.8399 60.2851 13.8161C61.3939 13.7942 62.3862 13.7382 63.2307 13.6499C63.8408 13.5855 64.5376 13.5399 65.3069 13.5139C65.8538 13.5 65.8538 13.5 66.2034 13.3682C65.926 13.283 65.5673 13.271 65.2295 13.2694C63.2039 13.2158 61.2763 13.2064 59.4859 13.2414C58.5825 13.2445 57.7811 13.2806 57.1201 13.3481C56.9583 13.3765 56.5442 13.3631 56.2118 13.3538C55.1699 13.3398 54.1741 13.3438 53.2363 13.366C51.9398 13.403 50.4958 13.3942 48.9604 13.3401C48.6693 13.2738 49.0044 13.2793 49.0209 13.2565C50.21 13.2139 51.3757 13.165 52.5884 13.1289C52.9199 13.1161 53.2743 13.1097 53.6476 13.1099C55.041 13.1323 56.2021 13.0704 56.9684 12.9329C57.0068 12.8797 57.5109 12.886 57.7336 12.8514C57.8432 12.8216 57.9162 12.7864 57.9504 12.747C57.6259 12.6488 57.259 12.6483 56.9765 12.6481C56.1569 12.6591 55.3683 12.6799 54.6147 12.7104C53.9142 12.7394 53.1387 12.7471 52.3094 12.7334C51.6973 12.7203 51.174 12.7406 50.5565 12.7351C50.2215 12.7234 49.8747 12.7046 49.5232 12.6792C49.9146 12.6107 50.4465 12.5686 51.0817 12.5558C51.5633 12.515 52.1656 12.5026 52.2425 12.3962C52.0151 12.3201 51.7616 12.3189 51.5581 12.3268C51.1346 12.3265 50.7254 12.3313 50.3328 12.3411C49.5004 12.3628 48.5992 12.3631 47.648 12.342C47.1472 12.3342 46.6719 12.3365 46.2302 12.3491C45.2292 12.3658 44.2698 12.4031 43.3533 12.4202C41.4758 12.4378 39.7635 12.5006 37.9595 12.5338C37.558 12.542 37.198 12.5708 36.6689 12.5211C36.1397 12.4715 36.1161 12.465 36.0536 12.4342C35.9056 12.3828 35.8607 12.333 35.9283 12.295C36.0333 12.2596 36.2378 12.2399 36.5054 12.2394C38.118 12.183 39.6476 12.1038 41.0845 12.0024C41.7169 11.982 42.271 11.9406 42.7274 11.8794C43.0894 11.8373 43.5188 11.8094 44.0022 11.7967C44.7052 11.7662 45.4381 11.7439 46.1979 11.7298C46.5514 11.7222 46.852 11.6997 47.082 11.6635C47.312 11.6273 47.4667 11.5781 47.537 11.5189L46.6056 11.3224C46.4593 11.3133 46.3141 11.3054 46.1707 11.2987L38.4396 11.4403L37.674 11.4441C36.8348 11.4324 36.6298 11.4035 35.8338 11.1758C37.6503 11.1223 39.0784 10.9662 39.9756 10.7231C39.76 10.6969 39.5389 10.6745 39.3175 10.6563C37.8658 10.5988 36.4935 10.5835 35.2534 10.6111C34.5168 10.6138 33.7594 10.6063 32.9992 10.6026C33.2215 10.4906 34.0732 10.5239 34.6283 10.4987C35.9547 10.4591 37.1275 10.3775 38.1094 10.2563C38.4479 10.2091 38.8715 10.1789 39.3606 10.1671C39.8501 10.163 40.259 10.1344 40.5517 10.0838C40.8444 10.0331 41.012 9.96196 41.04 9.87649C41.0861 9.7991 41.1855 9.72718 41.3366 9.66182C41.0692 9.56907 40.6447 9.48025 40.1426 9.41203C39.6405 9.34381 39.0955 9.30087 38.6097 9.29128C37.5727 9.25309 36.497 9.19057 35.4102 9.10532C34.8688 9.06232 34.338 9.03763 33.8521 9.03288C33.4236 9.02922 32.9366 8.99816 32.4653 8.94445C31.9941 8.89073 31.5644 8.81731 31.2419 8.73537C30.8066 8.63409 30.4003 8.53166 29.994 8.42925C29.5878 8.32683 29.1164 8.19741 28.6422 8.07178C28.2241 8.05213 27.8169 8.0395 27.4263 8.03406C27.1224 8.03867 26.7677 8.02497 26.4042 7.99459C26.0407 7.96421 25.6834 7.91841 25.3747 7.86259C25.5558 7.80754 25.7605 7.75896 25.9762 7.69517C25.6801 7.61094 25.4655 7.52505 25.3453 7.44272C25.2251 7.36039 25.202 7.28334 25.2772 7.21629C25.3212 7.15548 24.9993 7.05347 24.8882 6.97284C24.745 6.90333 24.7181 6.83845 24.811 6.78673C24.9039 6.735 25.1122 6.69884 25.4087 6.68298C25.7764 6.6537 26.0756 6.60962 26.2941 6.55254C26.3664 6.53772 26.4032 6.51742 26.4012 6.49351C26.3991 6.46959 26.3583 6.44282 26.2824 6.41564C26.2065 6.38846 26.0979 6.36174 25.9667 6.33792C25.8355 6.3141 25.6857 6.29394 25.5312 6.27929C25.0577 6.23776 24.5874 6.21084 24.1475 6.20008C23.3895 6.18028 22.6639 6.16784 21.9706 6.16277C21.2039 6.15513 20.3509 6.10798 19.4983 6.02612C18.735 5.94866 18.0506 5.87921 17.6774 5.73119C17.3041 5.58316 16.7073 5.58788 16.2485 5.48012C16.5062 5.38299 16.9644 5.3155 17.5767 5.28446C17.9774 5.27338 18.3119 5.24431 18.5586 5.1991C18.8054 5.15389 18.9591 5.09354 19.0098 5.02193L17.6166 4.72146C16.504 4.58 15.8885 4.68888 14.6863 4.63216L15.925 4.52124C15.9498 4.51028 15.9592 4.49741 15.9524 4.48324C15.8322 4.2589 15.6408 4.21092 14.3746 4.08652L13.664 4.0144L12.5392 3.92882C12.359 3.88284 12.2344 3.8349 12.1778 3.78978C12.1212 3.74466 12.1346 3.70395 12.2166 3.67171C12.3814 3.61751 12.4315 3.54823 12.3623 3.47028C12.2532 3.41864 12.2442 3.37104 12.3368 3.33573C12.4295 3.30042 12.6179 3.27963 12.8694 3.27697C13.0702 3.27287 13.0851 3.21319 13.1943 3.17939C13.3028 3.13282 13.4885 3.09708 13.7388 3.0746C13.9891 3.05213 14.298 3.04345 14.6446 3.04916C15.6666 3.05382 16.6267 3.03634 17.5078 2.99702L17.3499 2.98099C18.2682 3.01551 19.1268 3.0197 19.8838 2.99335C20.6424 2.96018 21.6159 2.98146 22.4217 2.96123C23.0776 2.96587 23.577 2.91997 23.8139 2.83326C24.0433 2.75047 24.877 2.76979 25.5154 2.78562C25.8935 2.79585 26.259 2.80019 26.608 2.79858C27.0763 2.77984 27.6618 2.79751 28.267 2.84863C28.4486 2.86434 28.6275 2.87265 28.7864 2.87277C30.3248 2.89426 31.8605 2.91954 33.3781 2.93076C33.7284 2.9243 34.1392 2.93909 34.5622 2.9734C34.74 2.98829 34.913 2.99447 35.058 2.99108C37.456 2.95701 40.162 3.04394 42.5128 2.99692C42.7978 2.98582 43.1132 2.98351 43.4503 2.99006C44.2076 3.01768 44.8652 2.9999 45.3234 2.93944C45.5706 2.90728 45.8875 2.88956 46.2539 2.8874C46.6203 2.88525 47.0282 2.89871 47.4515 2.92693C48.1559 2.9643 48.807 2.96835 49.336 2.93866C50.3674 2.91123 51.4521 2.89996 52.5814 2.90491C52.9275 2.90972 53.2316 2.89905 53.4704 2.87376C53.7092 2.84847 53.8761 2.80923 53.9583 2.75907C53.6809 2.67381 53.3777 2.66343 53.0897 2.67093C51.9736 2.6515 50.8602 2.62827 49.7649 2.61911C48.7846 2.59296 47.8439 2.58497 46.9568 2.59525C46.5163 2.60684 45.9666 2.5804 45.4278 2.52168C44.7673 2.44732 44.0871 2.41037 43.5247 2.41832C43.1077 2.42029 42.6675 2.41389 42.2106 2.3992C41.9181 2.38148 41.6183 2.35106 41.342 2.31106C41.2323 2.29368 41.113 2.27907 40.9916 2.26816C40.8701 2.25726 40.7494 2.25029 40.637 2.24771C40.5245 2.24513 40.4228 2.24698 40.3384 2.25317C40.254 2.25935 40.1888 2.26972 40.1469 2.28362C39.7238 2.39979 38.7778 2.3405 37.9677 2.32765C36.7537 2.13103 35.8502 2.24741 34.7156 2.13636C34.6259 2.12899 34.5375 2.12453 34.4558 2.12326C34.3742 2.12199 34.301 2.12393 34.2406 2.12895C32.045 2.19579 29.4859 2.14009 27.1806 2.16317C26.9264 2.16654 26.6313 2.15498 26.3289 2.12978C24.3526 1.963 22.4525 1.91565 21.0001 1.99699C20.8234 2.00432 20.6223 2.00463 20.4061 1.99791C19.4131 1.93163 18.4634 1.9052 17.6365 1.92084C16.3404 1.91579 15.0943 1.91988 13.7774 1.90456C12.8697 1.88276 12.0733 1.90605 11.4682 1.97212C11.4489 1.99872 11.0458 1.97005 10.737 1.96728C10.5594 1.9003 10.4055 1.8398 10.2224 1.78043C10.0587 1.70698 9.81355 1.63264 9.50357 1.56247C9.19359 1.49231 8.82608 1.42795 8.42578 1.37375C7.74141 1.3043 7.67297 1.20352 8.15185 1.16645C9.38618 1.04379 10.9383 0.993581 12.6941 1.01952C14.1618 1.02159 15.6559 1.02634 17.1444 1.03869C18.0126 1.04928 18.9279 1.0728 19.7726 1.07692C20.0576 1.08597 20.3504 1.09931 20.6479 1.11679C21.0129 1.14214 21.3674 1.15595 21.6921 1.15748C22.7349 1.13613 23.8986 1.15473 25.1277 1.21238C25.578 1.22495 26.0102 1.22919 26.4182 1.22503C27.3834 1.20938 28.4298 1.22089 29.5296 1.25927C30.2133 1.28091 30.8761 1.29222 31.5113 1.29309C31.7356 1.29546 31.9183 1.27728 32.1344 1.29105C34.0362 1.43508 35.3829 1.33105 37.0946 1.38643C37.9265 1.40188 38.7213 1.40192 39.4679 1.38656C40.9247 1.38731 42.4222 1.4031 43.9543 1.43387C45.9803 1.48444 47.8577 1.46689 49.7922 1.48777C50.1741 1.49216 50.5428 1.49141 50.8958 1.48553C52.6125 1.44667 54.4771 1.45491 56.4441 1.51005C56.8908 1.51801 57.2919 1.50827 57.6224 1.48144C57.953 1.45462 58.2058 1.41128 58.3651 1.35414C58.4325 1.31492 58.3888 1.26399 58.2425 1.21116C57.9997 1.14369 57.7256 1.07758 57.4246 1.01393L46.4751 0.800333C46.0152 0.789179 45.5668 0.783174 45.132 0.782345C43.8532 0.780488 42.535 0.76387 41.1841 0.732578C39.8492 0.703183 38.5739 0.708401 37.2806 0.699551C36.8997 0.696587 36.5087 0.689592 36.1092 0.678587C33.4088 0.591487 30.7757 0.538289 28.2283 0.519371C27.1566 0.516686 25.9989 0.476714 24.9063 0.463757C23.8138 0.450801 22.3197 0.446056 21.0237 0.441007L17.0111 0.441782C16.2218 0.439204 15.4534 0.446896 14.6877 0.45079C13.7585 0.172924 13.4383 0.107795 12.1984 -0.0139428C11.7743 -0.0588489 11.3428 -0.0856476 10.9546 -0.0911992C9.72383 -0.0692342 8.17947 -0.160673 7.01229 -0.148567C6.308 -0.154538 5.71037 -0.12367 5.2806 -0.0591209C4.90753 -0.00846364 4.48091 0.0316213 4.00734 0.0605268C2.71007 -0.177182 2.59574 -0.331566 3.57159 -0.391644C3.83598 -0.40561 4.20015 -0.40129 4.39107 -0.430871C4.50062 -0.448886 4.65028 -0.45919 4.82811 -0.460969C5.00594 -0.462751 5.20703 -0.455963 5.41561 -0.441134C6.0739 -0.402234 6.69091 -0.393085 7.20473 -0.414607C7.68829 -0.443091 8.28103 -0.441955 8.92581 -0.411302C9.3996 -0.363223 9.81605 -0.431111 10.2258 -0.450725C10.6355 -0.47034 10.9718 -0.505572 11.6118 -0.45287C11.729 -0.442376 11.8453 -0.436076 11.9519 -0.434454C12.0585 -0.432833 12.1524 -0.435931 12.2266 -0.443512C12.914 -0.477456 13.7342 -0.47389 14.6207 -0.433106C15.9804 -0.392974 17.2561 -0.391468 18.4035 -0.428642C19.0904 -0.461169 19.6761 -0.518852 20.1376 -0.59944C20.2634 -0.626393 20.4502 -0.642556 20.6801 -0.646377C21.8346 -0.629562 23.0882 -0.566279 24.3601 -0.460613C24.8392 -0.418273 25.3177 -0.384783 25.7854 -0.360856C26.7466 -0.3077 27.6762 -0.277914 28.5468 -0.272379C29.8118 -0.271502 31.1289 -0.25105 32.4864 -0.21121C33.3242 -0.189028 34.1314 -0.180839 34.8985 -0.186738C35.687 -0.189517 36.5289 -0.172597 37.405 -0.136367C38.2763 -0.106845 39.0442 -0.123854 39.616 -0.18534C39.8043 -0.218472 39.956 -0.257816 40.0682 -0.302636C38.7924 -0.448483 37.473 -0.522607 36.3756 -0.510076C35.9588 -0.519737 35.6127 -0.509985 35.1734 -0.566793L35.1597 -0.54779C35.0723 -0.53546 34.9404 -0.532552 34.7892 -0.539619C34.638 -0.546686 34.4781 -0.563234 34.3398 -0.586111C34.392 -0.658322 34.4415 -0.726732 34.4773 -0.77614C35.3134 -0.767423 36.1253 -0.768129 36.9087 -0.778262C37.5691 -0.79284 38.4656 -0.665151 39.0372 -0.713217C40.1521 -0.653112 40.862 -0.7361 41.8619 -0.712154C42.8617 -0.688208 43.9629 -0.609098 44.9627 -0.585153C45.8352 -0.572011 46.6823 -0.569156 47.4994 -0.576597C47.7814 -0.587041 48.1066 -0.584592 48.4548 -0.569396C48.9444 -0.540806 49.3998 -0.536014 49.7687 -0.555574C50.1377 -0.575136 50.4052 -0.618261 50.5408 -0.679999C50.4132 -0.737832 50.2411 -0.812402 50.0427 -0.88965C50.4077 -0.953122 50.962 -0.979848 51.6235 -0.965852L52.5581 -0.968917C52.8058 -0.967241 52.9951 -0.984402 53.087 -1.01685C53.1788 -1.04929 53.1661 -1.09453 53.0516 -1.14322C51.2793 -1.38833 51.2141 -1.41535 49.9133 -1.2577L48.1863 -1.33096L48.2154 -1.33208ZM71.5749 -0.658775L71.4433 -0.672127L71.5749 -0.658775ZM286.797 25.4194L286.767 25.4612L286.8 25.4156L287.09 25.445L287.109 25.4184L286.797 25.4194ZM244.758 7.0955C244.349 7.04989 243.936 7.00796 243.521 6.96996C243.413 6.96407 243.311 6.96274 243.225 6.96608C243.139 6.96942 243.071 6.97734 243.027 6.98916C242.994 7.03477 243.225 7.06641 243.436 7.08778C243.702 7.11654 243.973 7.13481 244.222 7.14072C244.471 7.14663 244.689 7.13996 244.853 7.12139L245.091 7.10475L244.758 7.0955ZM33.9657 18.2111C34.2351 18.2188 34.4907 18.22 34.7259 18.2148C35.7698 18.178 36.7691 18.1243 37.8392 18.0901C39.1895 18.0034 40.741 17.968 42.4357 17.9854C43.0977 17.9939 43.6571 17.9658 44.0484 17.9043C44.2827 17.8713 44.585 17.852 44.937 17.8476L49.4171 17.7474C49.6941 17.7266 49.9335 17.6975 50.1298 17.6606C49.7349 17.6206 49.4717 17.5939 49.3138 17.5778C48.9861 17.5733 48.7045 17.5855 48.4971 17.6133C48.2743 17.6602 47.8977 17.6788 47.4422 17.6653C46.9823 17.6542 46.5339 17.6482 46.0991 17.6473C45.278 17.6497 44.4514 17.6596 43.6275 17.6658C43.307 17.7964 42.361 17.7372 41.5509 17.7243L40.9251 17.7302C38.8794 17.7979 36.9253 17.8911 35.0723 18.0093C34.7142 18.0293 34.4057 18.0612 34.1562 18.104C34.0623 18.1374 34.0322 18.179 34.0683 18.2256L33.9367 18.2122L33.9657 18.2111ZM125.316 30.7037C125.813 30.7126 126.329 30.7309 126.859 30.7582C127.267 30.7862 127.665 30.8032 128.038 30.8085C130.124 30.8378 132.298 30.9054 134.531 31.0105C134.823 31.0264 135.104 31.0342 135.362 31.0336L137.19 31.007C137.766 30.992 137.777 30.9768 137.357 30.7751C137.009 30.736 136.658 30.7003 136.305 30.6683C136.094 30.6469 135.752 30.6122 135.672 30.6449C135.183 30.734 134.293 30.6763 133.544 30.6574C131.375 30.6086 129.138 30.5367 126.949 30.4777C126.486 30.4633 126.038 30.456 125.609 30.4559C125.342 30.4529 125.099 30.4586 124.89 30.4728C124.829 30.4742 124.778 30.4784 124.74 30.4851C124.702 30.4919 124.678 30.5009 124.671 30.5117C124.663 30.5225 124.671 30.5347 124.695 30.5477C124.718 30.5606 124.757 30.574 124.808 30.5868C124.987 30.6317 125.194 30.6747 125.422 30.7144L125.316 30.7037ZM141.202 1.43777L143.339 1.41387C143.595 1.4113 143.812 1.38439 144.086 1.3959C145.549 1.43237 146.904 1.42222 148.092 1.36586C148.497 1.34286 148.97 1.33826 149.486 1.35231C151.067 1.39396 152.558 1.39568 153.918 1.35741C154.798 1.34973 155.621 1.32393 156.376 1.2804C156.434 1.2703 156.47 1.25658 156.482 1.24018C156.494 1.22378 156.481 1.20509 156.445 1.18539C156.435 1.17294 156.409 1.15954 156.369 1.14613C156.328 1.13272 156.274 1.1196 156.21 1.10769C156.147 1.09577 156.074 1.08535 155.999 1.07713C155.923 1.06891 155.846 1.06308 155.772 1.06006C154.819 1.00113 153.914 0.980607 153.132 1.00014C152.406 1.02351 151.625 1.03035 150.8 1.02055C150.011 1.01797 149.475 1.09418 148.5 1.03603C148.088 1.01688 147.724 1.02319 147.47 1.05389C146.959 1.10478 146.246 1.10761 145.458 1.06188C144.987 1.03873 144.536 1.02881 144.123 1.03248C143.122 1.04921 142.166 1.08269 141.238 1.11503C140.946 1.12251 140.633 1.12354 140.304 1.1181L135.659 1.05477C134.543 1.03534 133.43 1.01211 132.334 1.00296C131.439 0.983075 130.605 0.989302 129.863 1.02142C129.072 1.05517 128.209 1.06887 127.29 1.06226C125.864 1.08074 124.447 1.0878 122.894 1.08532C121.904 1.08685 120.891 1.0819 119.856 1.06669C119.333 1.04711 118.889 1.06305 118.609 1.11146C118.439 1.15131 118.039 1.11885 117.706 1.1096C115.934 1.02046 114.271 0.999334 112.835 1.0477C112.652 1.05559 112.45 1.05844 112.235 1.05622C110.852 1.05455 109.419 1.04375 108.091 1.04363C107.741 1.04739 107.412 1.0577 107.108 1.07444C107.141 1.10174 107.234 1.13133 107.368 1.15708C107.501 1.18282 107.666 1.20274 107.828 1.21271C109.083 1.28898 110.296 1.32928 111.414 1.3319C113.276 1.32218 115.226 1.34403 117.244 1.39721C118.81 1.45082 120.238 1.43953 121.421 1.36418C122.346 1.30797 123.55 1.32912 124.825 1.42401C125.371 1.46933 125.9 1.48745 126.341 1.4759C126.766 1.46074 127.253 1.46442 127.775 1.48671C128.874 1.52908 129.931 1.54874 130.925 1.5453C131.897 1.5297 132.804 1.48708 133.802 1.47415C134.8 1.46122 136.32 1.46863 137.551 1.44666C138.782 1.42469 139.999 1.42173 141.202 1.43777ZM52.6796 -0.785255C52.7923 -0.667744 53.1915 -0.5946 53.621 -0.563265C55.1014 -0.42413 56.565 -0.364923 57.766 -0.395581C58.4148 -0.438344 59.2797 -0.421883 60.1907 -0.349432C61.2516 -0.274117 62.2431 -0.261627 62.9906 -0.314163C63.1737 -0.323342 63.314 -0.342748 63.3988 -0.370652C63.4153 -0.393455 63.4455 -0.43526 63.451 -0.442861C63.3725 -0.462139 63.2762 -0.48 63.1695 -0.495068C63.0628 -0.510136 62.9487 -0.522007 62.8358 -0.529767L57.9322 -0.664285L57.0776 -0.693888C55.5168 -0.771439 54.0295 -0.802335 52.6796 -0.785255ZM62.3251 1.0747C63.0904 1.26658 63.0931 1.26278 63.4852 1.30664C65.3767 1.48885 67.267 1.5872 68.931 1.59001C69.3009 1.58945 69.6148 1.57093 69.8461 1.536C69.9651 1.53126 70.0409 1.51622 70.0568 1.49415C70.0728 1.47208 70.0277 1.44477 69.9313 1.41818L69.3227 1.283C68.2175 1.22447 67.1281 1.17797 66.0612 1.14377C64.819 1.10338 63.7181 1.10183 62.4303 1.08537L62.3251 1.0747ZM125.225 29.854C125.938 30.1181 125.94 30.1143 127.134 30.1824C127.966 30.2307 128.773 30.259 129.532 30.2666C130.458 30.2749 131.408 30.2897 132.332 30.3018C132.557 30.3103 132.748 30.3033 132.868 30.2822C132.988 30.2612 133.027 30.2276 132.979 30.188C132.858 30.1451 132.668 30.1035 132.441 30.0701C132.214 30.0366 131.962 30.0133 131.728 30.0039L131.224 29.9977C130.612 29.9845 129.976 29.9649 129.385 29.962C129.001 29.9729 128.557 29.9645 128.086 29.9373C127.616 29.91 127.132 29.8648 126.673 29.8051L125.225 29.854ZM66.1331 -0.439947C66.3235 -0.394211 66.5389 -0.350406 66.7734 -0.309698C67.6817 -0.196865 68.643 -0.132782 69.4689 -0.130008C69.8594 -0.123019 70.2165 -0.147975 70.6141 -0.111709C71.3272 -0.0632501 72.0182 -0.0374363 72.6499 -0.0356667C72.6499 -0.0356667 72.8271 -0.0462471 72.8852 -0.0485067L73.0062 -0.215731C72.7071 -0.25447 72.3953 -0.286118 72.0849 -0.309218C71.0434 -0.353709 70.02 -0.384125 68.9994 -0.418343C67.9787 -0.452561 67.6228 -0.46828 66.9553 -0.482977C66.6576 -0.474899 66.3822 -0.460485 66.1331 -0.439947ZM43.5795 20.3493L44.9424 20.6916C45.3834 20.7213 45.7954 20.7267 46.1158 20.7069C46.4361 20.6872 46.6471 20.6433 46.7168 20.582C46.8291 20.5533 46.8403 20.5109 46.7482 20.4635C46.656 20.4161 46.4676 20.3675 46.2226 20.3279C45.9867 20.2809 45.7175 20.2388 45.4315 20.2042C45.1455 20.1695 44.8488 20.1431 44.56 20.1265L43.5795 20.3493ZM54.9271 18.6451C54.0357 18.5871 53.1831 18.5634 52.4345 18.5758C51.9628 18.6097 51.3237 18.5989 50.6482 18.5455C49.4197 18.439 48.2355 18.4095 47.3454 18.4632C47.3454 18.4632 47.3123 18.5088 47.1615 18.5221C47.0106 18.5353 47.609 18.5675 47.7406 18.5809C48.7058 18.6135 49.6766 18.6386 50.5157 18.6503C51.0367 18.6498 51.5878 18.6606 52.1595 18.6825C52.946 18.7163 53.692 18.7272 54.3681 18.7149C54.3681 18.7149 54.6298 18.7047 54.9244 18.6489L54.9271 18.6451ZM150.127 0.817671C149.701 0.75321 149.24 0.70082 148.777 0.664434C148.314 0.628049 147.861 0.608613 147.454 0.607577C147.142 0.604214 146.889 0.621234 146.736 0.655945C146.583 0.690657 146.538 0.741079 146.609 0.799241C146.925 0.831292 147.346 0.874027 147.583 0.898066C148.404 0.895714 149.104 0.864806 150.127 0.817671ZM229.83 6.24973C229.489 6.19784 229.112 6.15816 228.744 6.13524C228.376 6.11231 228.031 6.10706 227.749 6.12008C227.603 6.12572 227.702 6.18469 227.677 6.21889C227.661 6.22665 227.661 6.23629 227.678 6.24682C227.694 6.25734 227.726 6.26836 227.771 6.27872C227.816 6.28907 227.871 6.29839 227.931 6.30568C227.991 6.31297 228.054 6.31798 228.112 6.32017C228.483 6.34253 228.833 6.34918 229.131 6.33954C229.429 6.3299 229.665 6.30427 229.819 6.26493L229.83 6.24973ZM235.171 6.99153C235.118 6.9609 235.005 6.929 234.854 6.90164C234.702 6.87428 234.522 6.85331 234.346 6.84258C234.035 6.84113 233.752 6.84963 233.508 6.86773C233.244 6.8817 233.434 6.97035 233.792 7.02294C233.943 7.04406 234.105 7.06052 234.264 7.07104C234.424 7.08155 234.576 7.08582 234.709 7.08351C234.843 7.0812 234.953 7.07237 235.032 7.05772C235.111 7.04307 235.157 7.02301 235.165 6.99913L235.171 6.99153ZM79.9963 -0.114259C79.1996 -0.223665 78.5864 -0.196142 77.9118 -0.240114C77.2373 -0.284086 77.0711 -0.288712 77.1615 -0.218349C77.2518 -0.147985 77.7142 -0.162256 78.0038 -0.132875C78.395 -0.0938876 78.7885 -0.0715015 79.1404 -0.0682131C79.4923 -0.0649247 79.7887 -0.080868 79.9963 -0.114259ZM246.02 18.3974C245.598 18.3728 245.185 18.3555 244.786 18.3456C244.734 18.3557 244.701 18.3691 244.69 18.3847C244.678 18.4004 244.689 18.4181 244.72 18.4368C244.72 18.4368 244.99 18.4928 245.148 18.5088C245.73 18.5637 245.759 18.4851 246.02 18.3974ZM305.666 28.5906C305.951 28.6644 306.085 28.7147 306.313 28.7501C306.418 28.7624 306.527 28.7713 306.631 28.7763C306.735 28.7812 306.832 28.7819 306.914 28.7785C307.015 28.7572 307.038 28.7246 306.98 28.6872C306.98 28.6872 306.689 28.621 306.578 28.6179C306.262 28.6023 305.956 28.5931 305.666 28.5906ZM66.4347 -0.739781C65.8293 -0.801214 65.2502 -0.859982 64.831 -0.78829C65.7924 -0.711135 65.7924 -0.711131 66.4347 -0.739781ZM76.2402 -0.038501C75.6289 -0.169886 75.2702 -0.181808 74.9768 -0.166712C74.9144 -0.16291 74.8731 -0.154435 74.8592 -0.142576C74.8453 -0.130715 74.8594 -0.116114 74.8995 -0.100979C74.9397 -0.0858426 75.0036 -0.0709991 75.0816 -0.0586908C75.1596 -0.0463825 75.2475 -0.0372793 75.3319 -0.0327609C75.6507 -0.0289796 75.9548 -0.0308998 76.2402 -0.038501ZM107.703 0.0170564C107.717 -0.00194603 107.734 -0.0247494 107.576 -0.0407757C107.534 -0.0489111 107.486 -0.0559071 107.435 -0.0610646C107.384 -0.0662221 107.333 -0.0693554 107.286 -0.0701531C107.286 -0.0701531 107.27 -0.0473482 107.259 -0.0321467L107.703 0.0170564ZM129.552 31.566L129.201 31.5833L129.359 31.5993L129.775 31.609L129.552 31.566ZM253.355 6.69501C253.223 6.68165 253.092 6.66829 253.072 6.6949C253.045 6.69902 253.027 6.70497 253.022 6.71224C253.017 6.71951 253.024 6.7279 253.042 6.7367C253.042 6.7367 253.226 6.7554 253.305 6.76342L253.355 6.69501ZM232.858 6.90778C232.771 6.90626 232.693 6.90804 232.628 6.91302L232.612 6.93582L232.875 6.96254L232.858 6.90778ZM54.232 12.3411C54.1303 12.3272 54.0226 12.3163 53.9161 12.309L53.7845 12.2957C53.7845 12.2957 53.9259 12.3345 54.0049 12.3425C54.0838 12.3505 54.1475 12.3407 54.232 12.3411Z" fill="#F6B205"/>
</g>
</svg>
