<svg width="196" height="9" viewBox="0 0 196 9" fill="none" xmlns="http://www.w3.org/2000/svg">
<g id="Decore">
<mask id="mask0_12806_37445" style="mask-type:alpha" maskUnits="userSpaceOnUse" x="0" y="0" width="196" height="9">
<rect id="Rectangle 36" x="0.5" width="195" height="8.1974" fill="#C4C4C4"/>
</mask>
<g mask="url(#mask0_12806_37445)">
<path id="Vector" d="M29.7875 -1.73345L30.264 -1.8415L29.3366 -1.99642L29.7812 -2.10981C30.227 -2.10878 30.8046 -1.93886 31.1189 -2.02915C31.1573 -2.11656 30.6719 -2.14461 30.548 -2.21426C30.4384 -2.28564 30.3489 -2.35656 30.2807 -2.42617C30.5235 -2.42542 30.7904 -2.40858 31.0656 -2.37665C31.4357 -2.3245 31.7988 -2.29914 32.1147 -2.30339C32.7607 -2.2893 33.3849 -2.30336 34.0872 -2.30026L33.8535 -2.51063L34.7587 -2.46142C34.8547 -2.44539 34.969 -2.47117 35.0633 -2.45134C35.8477 -2.28358 36.1797 -2.375 36.5563 -2.4508C36.6335 -2.47041 36.7265 -2.48505 36.8329 -2.49434C37.8794 -2.45416 38.823 -2.21902 39.7655 -2.0983C39.9429 -2.06748 40.113 -2.02792 40.2638 -1.98242C40.5916 -1.89398 40.9562 -1.82176 41.3243 -1.77239C41.6924 -1.72302 42.0522 -1.69806 42.3709 -1.69981C43.0755 -1.70176 43.8716 -1.64326 44.682 -1.52996C44.9231 -1.49264 45.1642 -1.46802 45.3902 -1.45767C45.6162 -1.44732 45.822 -1.45146 45.9944 -1.46984L46.5424 -1.34975C46.7799 -1.39848 47.0811 -1.42522 47.4276 -1.42833C47.7742 -1.43145 48.1589 -1.41089 48.5585 -1.36789C48.9842 -1.32125 49.4167 -1.28981 49.8584 -1.24049C50.7709 -1.14622 51.659 -1.08856 52.4951 -1.06931C53.7401 -1.01228 54.9566 -0.968179 56.2126 -0.897072C56.9984 -0.862749 57.764 -0.843871 58.5048 -0.840537C59.3923 -0.827112 60.3523 -0.76212 61.3384 -0.648698V-0.648698C61.2916 -0.542282 60.8592 -0.573721 60.569 -0.577322C59.6328 -0.595009 58.6746 -0.640842 57.7114 -0.675273C57.2775 -0.688712 56.8555 -0.693803 56.4479 -0.690507C55.7665 -0.694919 55.0482 -0.723273 54.3053 -0.775087C53.1317 -0.832099 51.9956 -0.859504 50.9085 -0.857024C50.8233 -0.852808 50.7453 -0.84534 50.6756 -0.834741C50.6611 -0.825561 50.6582 -0.813985 50.6673 -0.801125C50.6764 -0.788265 50.6971 -0.774546 50.7274 -0.761288C50.7578 -0.748031 50.7967 -0.735679 50.8406 -0.725408C50.8845 -0.715138 50.9318 -0.707293 50.978 -0.702632C51.4098 -0.630514 51.8735 -0.553058 52.2806 -0.542161C52.2963 -0.541347 52.3131 -0.539488 52.3297 -0.536716C52.3463 -0.533944 52.3623 -0.53033 52.3765 -0.526136C53.288 -0.373887 54.0374 -0.399652 54.7474 -0.374881C55.9261 -0.307936 57.0624 -0.276665 58.1391 -0.281543C58.3018 -0.281211 58.4775 -0.272508 58.6598 -0.255749C59.7875 -0.187814 60.8419 -0.180216 61.7737 -0.233298C62.1573 -0.246746 62.5138 -0.276936 62.926 -0.277441C63.1798 -0.27952 63.4008 -0.298785 63.5756 -0.334085C63.7504 -0.369385 63.8754 -0.41999 63.9431 -0.482856C64.1169 -0.449758 64.2935 -0.42026 64.4707 -0.394716C64.5765 -0.38011 64.6781 -0.376231 64.7547 -0.383874C64.8313 -0.391517 64.8774 -0.410111 64.8836 -0.435895C64.9153 -0.508106 64.6738 -0.544369 64.4643 -0.575292C64.5907 -0.590779 64.733 -0.599889 64.8881 -0.602404C65.7613 -0.618904 66.6979 -0.59943 67.6775 -0.544409C68.4381 -0.47855 69.0452 -0.532155 69.8454 -0.43928C69.9414 -0.423254 70.0204 -0.446777 70.1087 -0.452424C70.339 -0.482166 70.6258 -0.488851 70.9443 -0.471895C71.2628 -0.454938 71.6035 -0.414852 71.9368 -0.355112C72.3517 -0.518323 73.2482 -0.331869 73.9102 -0.315112C74.114 -0.232111 73.8801 -0.246703 73.8701 -0.223899C73.8601 -0.201096 73.8701 -0.223904 73.7901 -0.237259C73.1291 -0.119715 72.2236 -0.0940842 71.2005 -0.163969C71.0113 -0.163679 70.831 -0.158324 70.6614 -0.147956C70.4045 -0.133281 70.1148 -0.134746 69.8051 -0.152288C69.4667 -0.165171 69.1559 -0.159052 68.8875 -0.134227C68.7331 -0.134631 68.6026 -0.122196 68.508 -0.0980638C68.4133 -0.0739321 68.3577 -0.0388866 68.3463 0.00381473C68.4493 0.0367335 68.5637 0.0668549 68.6847 0.0929827C69.3167 0.196146 69.947 0.238847 70.4515 0.212686C71.3295 0.167611 72.3743 0.211598 73.3079 0.196209C73.939 0.189975 74.6106 0.207732 75.3099 0.249148C75.3099 0.249148 75.2916 0.290954 75.2899 0.294755C75.3726 0.312855 75.4595 0.327378 75.5457 0.337492C75.5457 0.337492 75.5457 0.337492 75.5541 0.318489C75.5158 0.300241 75.4638 0.283074 75.4042 0.268975L75.1963 0.234251C75.3376 0.225214 75.4696 0.19831 75.6169 0.214748C75.9271 0.245288 76.2236 0.258181 76.4886 0.252661C76.7535 0.247141 76.9814 0.223319 77.1585 0.182625C77.4725 0.130471 77.863 0.106754 78.3048 0.113004C78.6433 0.107311 78.9696 0.0950728 79.282 0.0763528C79.282 0.0763528 79.3021 0.03075 79.4501 0.0065115C79.3099 -0.0233839 79.1638 -0.0477954 79.0183 -0.0656031C78.3857 -0.110094 77.7513 -0.150784 77.1296 -0.181202C76.9006 -0.184488 76.6853 -0.179391 76.4879 -0.166012C75.9409 -0.150355 75.3264 -0.172576 74.6801 -0.23138C74.6801 -0.23138 74.5522 -0.252747 74.4882 -0.263431C74.6696 -0.363681 75.2948 -0.263319 75.5478 -0.33121C75.7017 -0.329975 75.9726 -0.321437 75.9633 -0.339311C75.9422 -0.363161 75.9397 -0.385318 75.9559 -0.404192C75.9722 -0.423066 76.0068 -0.438191 76.0572 -0.448479C76.1077 -0.458768 76.1727 -0.463968 76.2478 -0.463704C76.3228 -0.46344 76.4059 -0.457715 76.4912 -0.446949C77.2029 -0.388704 77.8733 -0.372506 78.4613 -0.399349C78.6842 -0.398831 78.9341 -0.381568 79.1553 -0.377249C79.2907 -0.372047 79.4143 -0.37494 79.5195 -0.385768C80.054 -0.465517 80.7732 -0.471341 81.5692 -0.402366C81.9539 -0.377568 82.3134 -0.374251 82.6291 -0.392587C82.8537 -0.395869 82.9489 -0.33917 83.1088 -0.312459L83.7878 -0.256154L82.9157 -0.185602C83.1022 -0.0239193 83.2503 0.0293933 83.5549 0.039466C83.9991 0.0546773 84.4317 0.0615494 84.8503 0.0600396C85.1598 0.0587107 85.4154 0.0238907 85.8345 0.0857362C85.9085 0.0958235 85.9798 0.0990885 86.0364 0.0949832C86.5271 0.0400782 87.1181 0.0274772 87.769 0.0580409C88.1059 -0.0447735 88.6799 0.0551889 89.211 0.135731C89.3823 0.0582851 89.0718 0.0227342 88.8866 -0.0245203C89.3307 -0.0196833 89.7782 -0.0224452 90.2367 -0.0111366C90.3746 -0.0152538 90.5322 -0.00821125 90.6971 0.00943597C90.8621 0.0270832 91.0299 0.0548517 91.1874 0.0905714C91.2642 0.113651 91.3568 0.131022 91.4459 0.139075C91.5351 0.147129 91.614 0.145251 91.6662 0.133828C91.9041 0.100141 92.2852 0.131168 92.4819 0.0742662C92.5518 0.0611796 92.6517 0.0593528 92.7638 0.0691048C92.8759 0.0788567 92.9928 0.099557 93.0936 0.127494V0.127494C92.9832 0.13621 92.885 0.149936 92.801 0.168369C92.5001 0.228248 92.6106 0.328299 92.9929 0.473757C93.58 0.465757 94.1798 0.468029 94.7239 0.440614C95.0272 0.416005 95.3988 0.423698 95.797 0.46283C96.1952 0.501961 96.6042 0.570979 96.978 0.662122C97.1132 0.69717 97.2674 0.721443 97.4099 0.730125C97.5523 0.738806 97.6727 0.731258 97.7469 0.708975C97.7931 0.683205 97.8075 0.650592 97.7887 0.613961L97.4049 0.549859C97.4049 0.549859 97.4199 0.515654 97.4233 0.508053L97.975 0.502306C98.2669 0.502107 98.5714 0.512182 98.8473 0.509312C99.2526 0.490223 99.7152 0.500863 100.207 0.540572C100.66 0.581289 101.106 0.612066 101.539 0.632632C101.959 0.653801 102.263 0.586317 102.663 0.57554C102.965 0.567416 103.297 0.576098 103.647 0.601244C104.251 0.645844 104.806 0.645927 105.26 0.601484C105.79 0.840933 106.048 0.879865 106.54 0.815163L106.771 0.79668L106.834 0.848037L107.011 0.836743C107.341 0.826684 107.672 0.816629 108.017 0.813041C108.496 0.835263 109.014 0.895048 109.519 0.986559C109.615 1.00259 109.746 1.05703 109.83 1.09966C109.914 1.1423 110.098 1.2709 110.233 1.35462C110.086 1.41573 109.923 1.47417 109.806 1.54443C109.795 1.55643 109.796 1.57075 109.81 1.58622C109.824 1.60169 109.85 1.61789 109.886 1.63352C109.923 1.64914 109.969 1.66376 110.02 1.67619C110.071 1.68862 110.127 1.69852 110.182 1.70509C110.289 1.71926 110.396 1.72871 110.496 1.73304C110.99 1.74051 111.463 1.73496 111.911 1.71643C112.074 1.69029 112.298 1.68781 112.546 1.70938C112.795 1.73095 113.054 1.77534 113.283 1.83551C113.868 1.79938 114.549 1.81006 115.277 1.86678C116.048 1.83228 116.978 1.90204 117.698 1.82646C117.681 1.86446 117.755 1.9299 117.859 1.9676C118.023 2.02486 118.208 2.07793 118.408 2.12456L119.93 2.2156C119.987 2.26241 120.058 2.3098 120.142 2.35715C120.2 2.39455 120.301 2.43115 120.423 2.45919C120.545 2.48723 120.68 2.5045 120.797 2.50735C121.1 2.52122 121.354 2.4902 121.715 2.56684C121.159 2.63928 120.409 2.62965 119.599 2.53968C118.837 2.47125 118.105 2.43705 117.429 2.43835C117.206 2.43783 116.913 2.44183 116.843 2.48322C116.688 2.60021 116.285 2.58172 115.814 2.56014C115.444 2.53652 115.105 2.53917 114.827 2.56787C114.549 2.59658 114.339 2.65053 114.213 2.72527C114.182 2.79748 114.258 2.85912 114.582 2.90114L115.933 3.06963C116.132 3.04796 116.321 3.02232 116.499 2.99281C116.799 2.9536 117.169 2.94284 117.58 2.96136C117.992 2.97988 118.434 3.02718 118.872 3.09958C119.096 3.13698 119.32 3.17437 119.482 3.1566C119.624 3.13619 119.756 3.11176 119.875 3.08347C119.899 3.06452 119.908 3.0427 119.903 3.01886C119.989 3.02995 120.075 3.04436 120.159 3.0616C120.826 3.26274 121.342 3.25926 121.811 3.20708C121.938 3.19158 122.035 3.16693 122.164 3.14762C122.292 3.12831 122.338 3.10325 122.454 3.11054C123.387 3.17651 123.655 2.95618 124.441 2.96503C124.479 2.95643 124.503 2.94356 124.51 2.92762C124.517 2.91168 124.507 2.89318 124.481 2.87382C124.425 2.85634 124.361 2.84131 124.294 2.83011C124.227 2.8189 124.159 2.81189 124.097 2.80972C123.735 2.78144 123.416 2.79011 123.194 2.83424C123.036 2.85228 122.869 2.86664 122.694 2.87727L121.908 2.55821C122.67 2.58745 123.391 2.58726 124.053 2.55764C124.198 2.541 124.443 2.56966 124.646 2.57511L126.144 2.60493C126.452 2.60741 126.714 2.55739 127.143 2.67398C127.143 2.67398 127.427 2.69278 127.502 2.67686C127.578 2.66094 127.913 2.56193 128.113 2.49743C128.345 2.51582 128.667 2.56544 128.812 2.5488C129.064 2.50794 129.283 2.45555 129.464 2.39258L130.368 2.48248C130.367 2.56233 130.334 2.63746 130.27 2.70671C130.199 2.7735 130.202 2.85367 130.277 2.94067C130.352 3.02766 130.498 3.11902 130.702 3.20727L131.595 3.67466C131.741 3.70596 131.896 3.72703 132.04 3.73501C132.184 3.74298 132.309 3.73748 132.399 3.71925C132.784 3.66513 133.214 3.62282 133.598 3.56869C134.094 3.65149 133.967 3.78523 134.327 3.90255L135.494 4.09753C135.672 4.27821 135.854 4.4513 135.312 4.51179C135.205 4.52236 135.277 4.5916 135.179 4.62005C135.6 4.75565 136.063 4.79624 136.489 4.87976C136.658 4.93982 136.798 5.0034 136.905 5.06743C137.021 5.16383 137.258 5.26231 137.564 5.34159C137.869 5.42087 138.219 5.4746 138.538 5.49118C139.072 5.54193 139.62 5.61817 140.155 5.71647C140.338 5.75065 140.526 5.77556 140.706 5.78951C140.887 5.80346 141.055 5.80612 141.201 5.79733C141.719 5.78186 142.158 5.72863 142.488 5.64112C142.815 5.56686 143.255 5.53107 143.77 5.53699C144.649 5.6839 144.827 5.90526 145.359 6.10024L144.439 6.1221C144.406 6.19811 144.467 6.29394 144.09 6.29219C143.713 6.29044 143.904 6.36316 144.027 6.43661C144.07 6.47356 144.154 6.51156 144.265 6.54419C144.375 6.57682 144.506 6.60207 144.635 6.61566L145.417 6.70967C145.695 6.74545 145.963 6.76072 146.193 6.75382C146.423 6.74692 146.606 6.71811 146.722 6.67056C146.854 6.6254 147.037 6.59486 147.259 6.5808C147.542 6.54396 147.774 6.48917 147.948 6.41851L149.053 6.52146C149.1 6.45045 149.252 6.40067 149.482 6.38051C149.713 6.36036 150.009 6.37108 150.32 6.41086L151.065 6.47405C151.892 6.54299 152.074 6.52029 152.316 6.3201L151.324 5.96251C151.468 5.86832 151.607 5.78553 151.747 5.70274C151.499 5.58494 151.169 5.47351 150.79 5.37978C150.436 5.27907 150.072 5.18152 149.7 5.08752C149.296 4.99147 148.869 4.90795 148.368 4.79968C148.28 4.76465 148.153 4.7026 147.99 4.64282C147.828 4.58472 147.658 4.52777 147.482 4.47219C147.515 4.39618 147.545 4.32777 147.481 4.23953C147.79 4.26769 148.109 4.31693 148.41 4.38282C148.71 4.44871 148.983 4.52917 149.203 4.61696C149.24 4.63253 149.285 4.64715 149.336 4.65984C149.387 4.67253 149.442 4.68299 149.497 4.69051C150.04 4.74445 150.299 4.85713 150.564 4.9953C150.743 5.06592 150.973 5.12865 151.224 5.17476C151.703 5.25489 152.173 5.35783 152.632 5.44669C152.772 5.4763 152.918 5.50067 153.063 5.5188C153.543 5.57645 154.025 5.65706 154.486 5.75653C154.637 5.78181 154.781 5.81526 154.908 5.85409C155.034 5.89293 155.138 5.93601 155.212 5.97974C155.098 6.02766 155.036 6.08815 155.031 6.15755C155.011 6.20315 155.348 6.29613 155.507 6.36351C155.666 6.4309 155.354 6.39915 155.248 6.40593C154.813 6.41896 154.733 6.44628 154.993 6.59585C155.08 6.64288 155.138 6.68993 155.163 6.73409C155.187 6.77825 155.179 6.81857 155.138 6.85255C155.076 6.99317 154.888 7.10862 154.759 7.24616C154.959 7.33676 155.294 7.43352 155.331 7.54569C155.348 7.57058 155.385 7.59694 155.439 7.62288C155.493 7.64882 155.563 7.67368 155.643 7.69567C155.853 7.74314 156.044 7.79992 156.202 7.86159C156.359 7.92326 156.479 7.98817 156.55 8.05131C156.574 8.07742 156.631 8.10512 156.709 8.12886C156.788 8.1526 156.883 8.17062 156.975 8.1793C157.085 8.18997 157.183 8.18857 157.249 8.17538C157.316 8.16219 157.345 8.13821 157.332 8.10843C157.335 8.05247 157.32 7.99413 157.289 7.93391C157.307 7.89211 157.325 7.8503 157.253 7.78107C157.58 7.80633 157.925 7.85697 158.248 7.92748C158.571 7.99799 158.86 8.08567 159.085 8.18099C159.334 8.2796 159.563 8.38315 159.838 8.49851C159.781 8.62773 159.781 8.62773 160.368 8.85619L163.477 8.9676L164.114 9.11892C164.708 9.25082 164.849 9.24179 165.223 9.17359L165.474 9.10949C166.002 9.19763 166.609 9.29914 166.939 9.13397C167.046 9.24162 167.116 9.27778 167.092 9.29411C166.935 9.45298 166.661 9.58777 166.282 9.69316C166.185 9.71781 166.117 9.7554 166.004 9.77738C165.641 9.90144 165.557 10.0931 165.769 10.3133C165.874 10.4107 166.027 10.5104 166.222 10.6093C165.936 10.7465 165.557 10.8602 165.095 10.9473C164.704 11.0147 164.381 11.105 164.137 11.2155C163.917 11.3269 163.589 11.4107 163.17 11.462C162.958 11.4838 162.803 11.5269 162.721 11.5868C162.696 11.7491 162.752 11.9229 162.888 12.1043C162.913 12.1595 162.986 12.2191 163.1 12.2785C163.214 12.3379 163.366 12.3954 163.544 12.4465C163.544 12.4465 163.63 12.4853 163.671 12.5085C163.706 12.7051 163.577 12.8783 163.294 13.0166C163.247 13.0558 163.152 13.0841 163.019 13.0985C162.886 13.1129 162.719 13.1128 162.537 13.0982C162.153 13.0748 161.793 13.0719 161.422 13.0587C161.021 13.0401 160.668 13.0548 160.4 13.1012C160.132 13.1476 159.958 13.224 159.898 13.3224C159.894 13.3503 159.883 13.3769 159.863 13.4022C159.852 13.4152 159.846 13.4292 159.845 13.444L160.699 13.7661L159.733 13.8944C159.676 14.0236 160.14 14.1011 160.372 14.197L160.228 14.2506C160.043 14.2809 159.794 14.2229 159.569 14.1893L159.345 14.1519L159.318 14.2127C159.179 14.2955 158.67 14.2025 158.472 14.2632C158.274 14.3239 158.415 14.3924 158.713 14.4583C158.919 14.5074 159.141 14.5464 159.361 14.5726C159.582 14.5989 159.795 14.6115 159.985 14.6097C160.098 14.6032 160.192 14.5883 160.261 14.5661C160.662 14.4714 161.105 14.39 161.587 14.3225C161.956 14.2618 162.419 14.2361 162.942 14.2469C163.095 14.2423 163.281 14.2567 163.465 14.2875C163.649 14.3183 163.82 14.3635 163.949 14.4152V14.4152L164.22 14.4237C164.22 14.4237 164.368 14.477 164.347 14.4858C164.244 14.6437 164.364 14.8368 164.689 15.0365V15.0365L164.406 15.0545C164.003 15.036 164.259 15.1563 164.198 15.2156C163.911 15.2044 163.539 15.1544 163.403 15.2295L163.199 15.2241L163.279 15.2374L163.376 15.2128L163.755 15.3252C163.575 15.3441 163.445 15.3672 163.286 15.3773C163.198 15.3862 163.129 15.4018 163.081 15.4233C163.033 15.4447 163.008 15.4716 163.008 15.5022C163.009 15.5494 162.961 15.5891 162.871 15.6175C162.78 15.6459 162.649 15.6622 162.491 15.6646C162.301 15.6657 162.193 15.7169 162.082 15.7351L162.564 16.0441C162.564 16.0441 162.324 16.004 162.455 16.0585L162.472 16.0205L162.764 16.0978C162.974 16.1656 163.121 16.182 163.246 16.1335C163.37 16.0849 163.342 16.1495 163.401 16.1309C163.38 16.1803 163.244 16.2148 163.128 16.2444C162.994 16.2676 162.843 16.2847 162.677 16.2954C162.976 16.5127 162.99 16.5192 162.553 16.5767C162.116 16.6342 162.267 16.7206 161.901 16.7329C161.535 16.7452 161.951 16.8922 162.196 16.9209C162.378 16.9397 162.563 16.9691 162.739 17.0069C162.915 17.0448 163.077 17.0902 163.215 17.1401L163.142 17.3073C163.034 17.2935 162.926 17.2755 162.822 17.2539C162.468 17.1621 162.145 17.0756 161.83 17.129L161.98 17.256L160.88 17.1824C160.908 17.2776 161.076 17.3861 161.347 17.4849V17.4849C161.307 17.5392 161.281 17.5963 161.272 17.6559C161.254 17.6977 161.145 17.6714 161.075 17.6759C160.823 17.6829 160.616 17.7113 160.472 17.7584C160.329 17.8056 160.253 17.8702 160.252 17.9465C160.224 18.0111 160.611 18.1452 160.853 18.1407C161.458 18.1536 162.112 18.2033 162.78 18.2872C163.187 18.2981 163.245 18.1282 163.914 18.2441C163.928 18.3226 163.842 18.3861 163.67 18.4251C163.498 18.4641 163.249 18.4764 162.961 18.4602C163.125 18.6345 164.032 18.6799 164.072 18.862C163.846 18.8491 163.605 18.8189 163.372 18.7742C163.138 18.7295 162.921 18.672 162.742 18.6072C162.704 18.5913 162.655 18.5766 162.601 18.5645C162.547 18.5524 162.49 18.5433 162.434 18.538C162.378 18.5327 162.325 18.5315 162.281 18.5343C162.237 18.5372 162.203 18.5441 162.182 18.5544C162.307 18.6203 162.446 18.6964 162.603 18.7676C162.761 18.8388 162.799 18.8696 162.912 18.8845C163.76 19.026 164.163 19.281 164.896 19.4483C165.088 19.4804 165.112 19.5823 164.945 19.5708C164.786 19.5592 164.643 19.5608 164.531 19.5751C164.418 19.5895 164.341 19.6161 164.308 19.6521C164.185 19.6941 164.032 19.7275 163.853 19.7514C164.605 20.0131 165.501 20.2442 166.458 20.4233C166.64 20.4586 166.829 20.4802 166.998 20.4848C167.532 20.4851 168.099 20.5058 168.687 20.5467C168.895 20.5578 169.088 20.5568 169.255 20.5436C169.8 20.5124 170.234 20.5807 170.63 20.7733L171.285 21.0786C171.263 21.128 171.153 21.1831 171.069 21.2587L171.581 21.4217L175.487 21.0462L176.272 21.4098L177.396 21.3896C177.482 21.4001 177.569 21.4145 177.652 21.4323C177.879 21.5396 178.057 21.6428 178.304 21.7452C178.551 21.8476 178.992 21.86 179.299 21.9807C179.606 22.1014 179.914 22.1039 180.295 22.1756C180.33 22.2691 180.293 22.3532 180.186 22.4227C180.151 22.5025 179.958 22.5518 179.924 22.6278C179.928 22.7046 179.856 22.7698 179.715 22.8175C179.574 22.8653 179.369 22.8939 179.118 22.901C178.414 23.0646 177.565 23.181 176.597 23.2469C176.512 23.2517 176.442 23.2627 176.39 23.2794C176.338 23.296 176.307 23.3179 176.297 23.3437C176.298 23.4182 176.234 23.4827 176.108 23.5322C175.982 23.5818 175.799 23.6153 175.57 23.6302C175.51 23.6332 175.464 23.6426 175.439 23.6571C175.352 23.6665 175.289 23.6845 175.255 23.7093C175.222 23.7341 175.219 23.7649 175.248 23.7988C175.276 23.8326 175.334 23.8684 175.417 23.9025C175.5 23.9367 175.604 23.9681 175.72 23.9938C175.888 24.0351 176.059 24.0747 176.234 24.1123C176.224 24.1351 176.051 24.1388 176.076 24.1594C176.144 24.2249 176.16 24.2864 176.122 24.3388C176.084 24.3912 175.994 24.4332 175.857 24.4614L176.791 24.9927C177.358 25.0663 177.914 25.1911 178.353 25.3434C178.354 25.3684 178.329 25.3893 178.28 25.4041C178.231 25.4189 178.161 25.427 178.076 25.4277C177.848 25.4385 177.633 25.4597 177.387 25.4717C177.237 25.4807 177.112 25.5004 177.02 25.5298C176.927 25.5592 176.869 25.5976 176.849 25.6428L177.397 25.8405C177.221 25.8886 177.091 25.9117 176.975 25.9413C177.041 26.0034 177.154 26.0677 177.305 26.1291C177.457 26.1905 177.643 26.2474 177.849 26.2954C177.905 26.3053 177.961 26.3126 178.015 26.3167C178.069 26.3209 178.12 26.3218 178.165 26.3196C178.589 26.2518 179.086 26.3715 179.568 26.4847C180.051 26.5979 180.312 26.6661 180.669 26.7541L181.35 26.7659C181.522 26.8076 181.676 26.8566 181.799 26.9091C181.922 26.9615 182.011 27.0159 182.058 27.0678C182.022 27.1515 181.698 27.1056 181.506 27.1143C181.049 27.1663 180.448 27.1552 179.803 27.0828C179.643 27.0561 179.479 27.0777 179.324 27.0802C178.988 27.0906 178.666 27.1076 178.357 27.1309C178.155 27.1527 177.965 27.1796 177.79 27.2116C177.743 27.318 178.479 27.4002 178.062 27.4528C178.206 27.4768 178.259 27.5103 178.333 27.4982C178.807 27.5673 179.274 27.6014 179.68 27.5967C180.459 27.582 181.344 27.6305 182.261 27.7382C183.252 27.8498 184.202 27.8966 185.033 27.8749C185.35 27.8736 185.704 27.8964 186.068 27.9417C186.498 28.0043 186.925 28.0437 187.322 28.0572C187.453 28.0577 187.599 28.0684 187.749 28.0884C187.898 28.1083 188.046 28.1371 188.181 28.1722V28.1722C188.169 28.1988 188.041 28.2181 188.069 28.2311C188.48 28.4301 188.646 28.6374 189.277 28.8408C189.709 28.9129 190.205 28.9957 190.487 28.9001C190.77 28.8045 190.668 28.7223 190.107 28.4775C190.228 28.474 190.375 28.4854 190.521 28.5098C190.668 28.5343 190.804 28.5701 190.906 28.6111L191.392 28.7942L191.83 28.9694C191.791 29.0568 191.761 29.1252 191.73 29.1974C191.68 29.2741 191.735 29.3675 191.887 29.4644C191.979 29.5173 192.059 29.5702 192.126 29.6227C192.4 29.8325 192.479 30.0308 192.355 30.1953C192.118 30.4319 191.786 30.6496 191.366 30.8459C190.921 31.0369 190.678 31.2778 190.312 31.4859C190.125 31.5806 189.899 31.6655 189.634 31.7398C189.133 31.9048 188.583 32.0619 188.08 32.2307C187.576 32.3996 187.008 32.5209 186.449 32.66C185.617 32.8252 184.718 32.9679 183.756 33.0872C183.16 33.1918 182.549 33.2936 181.999 33.4138C181.348 33.5493 180.585 33.6466 179.726 33.7032C178.968 33.7711 178.29 33.8714 177.707 34.0023C177.645 34.0165 177.597 34.0345 177.563 34.0558C177.458 34.1893 177.163 34.2834 176.724 34.3237C176.751 34.3628 176.785 34.4025 176.827 34.4427C176.887 34.4907 176.9 34.5355 176.863 34.5715C176.826 34.6075 176.74 34.6329 176.618 34.6445C176.267 34.6775 175.975 34.7337 175.755 34.8105C175.675 34.8297 175.625 34.8578 175.61 34.8922C175.594 34.9266 175.615 34.9664 175.668 35.0081C175.716 35.051 175.72 35.0905 175.679 35.1215C175.637 35.1524 175.553 35.1734 175.438 35.1817C175.14 35.2223 174.822 35.255 174.485 35.2795C173.767 35.3337 172.933 35.333 172.031 35.2776C171.936 35.2616 171.839 35.2863 171.727 35.2676C171.09 35.2055 170.498 35.1959 170.023 35.2399C169.466 35.257 168.884 35.2536 168.297 35.2616C167.449 35.2563 166.666 35.2889 165.971 35.3587C165.177 35.2913 164.731 35.4085 164.06 35.4107C163.442 35.4227 162.855 35.4516 162.306 35.4971C161.421 35.5573 160.54 35.61 159.668 35.6806C158.85 35.7142 158.097 35.7785 157.421 35.8723C157.162 35.9147 156.694 35.8486 156.517 35.9375C156.341 36.0263 155.985 36.0159 155.697 36.0453L154.79 36.1181C154.634 36.1355 154.462 36.1464 154.278 36.1509C153.434 36.1568 152.85 36.2755 152.067 36.2997L151.987 36.2863C150.597 36.4627 149.006 36.5595 147.261 36.5738C146.242 36.628 145.127 36.6254 144.046 36.665C143.788 36.7443 143.178 36.6466 142.855 36.719C142.531 36.7914 142.003 36.7439 141.586 36.7558C141.168 36.7678 140.761 36.7975 140.315 36.7965C139.928 36.7968 139.601 36.8292 139.364 36.8906C138.823 36.9921 138.164 37.0517 137.415 37.0669C136.426 37.0933 135.49 37.1531 134.483 37.14C134.497 37.2139 134.435 37.2769 134.304 37.3223C134.172 37.3677 133.975 37.394 133.734 37.3984C132.657 37.4266 131.681 37.5001 130.59 37.5219L130.298 37.5221L127.036 37.5646C126.157 37.5728 125.31 37.5863 124.413 37.5956C124.077 37.5395 124.069 37.6361 123.837 37.6177C123.772 37.5701 123.696 37.5492 123.581 37.575L123.556 37.632L119.833 37.7076C118.375 37.7629 116.841 37.7795 115.245 37.7572C114.867 37.7628 114.513 37.7817 114.191 37.8136C113.892 37.8252 113.58 37.8304 113.257 37.829C112.821 37.8146 112.394 37.8074 111.979 37.8073C110.889 37.829 109.744 37.8173 108.549 37.8014C107.355 37.7854 106.45 37.8137 105.387 37.8116C104.667 37.8096 103.95 37.8 103.205 37.7775C102.849 37.767 102.41 37.7101 102.042 37.6894C101.674 37.6686 101.553 37.6689 101.505 37.7016C101.344 37.7931 100.941 37.7339 100.619 37.725C99.9905 37.7098 99.9013 37.6785 99.7306 37.442L100.502 37.3668C100.691 37.3425 100.928 37.3383 101.192 37.3544C101.455 37.3705 101.736 37.4066 102.006 37.459C102.112 37.4814 102.223 37.4992 102.333 37.5112C102.443 37.5232 102.549 37.5292 102.645 37.5289C103.423 37.5161 104.19 37.4892 104.937 37.4672L105.047 37.4529L105.053 37.2419C104.955 37.2212 104.852 37.204 104.75 37.1911L100.999 37.0542C100.139 37.0206 99.2453 36.9448 98.4007 36.9139C97.5562 36.8829 97.101 36.864 96.4457 36.832C96.1691 36.8138 95.8872 36.7899 95.6018 36.7604C95.6184 36.7401 95.6279 36.7185 95.6302 36.6958C95.6453 36.6616 95.6653 36.616 95.544 36.5794C95.4118 36.5278 95.235 36.4837 95.049 36.456C94.8744 36.4376 94.705 36.4273 94.5476 36.4252C93.7871 36.4076 92.9183 36.2961 92.1267 36.1147L91.8504 36.2358C90.6616 36.1678 89.4552 36.1009 88.2135 36.0362C87.9649 36.0186 87.7039 35.9848 87.4503 35.9373C87.1785 35.8919 86.9284 35.7971 86.6422 35.7452C86.3594 35.7078 86.0786 35.6787 85.805 35.6584C85.8791 35.6272 85.9768 35.6023 86.095 35.5844C86.2113 35.5782 86.296 35.5587 86.3369 35.5288C86.3778 35.499 86.3727 35.4603 86.3224 35.4184C86.2338 35.3465 86.1949 35.2788 86.3875 35.2702C86.5655 35.2538 86.6928 35.2183 86.7544 35.1679C86.8161 35.1175 86.8096 35.0543 86.7356 34.9857C86.7032 34.9456 86.6804 34.9063 86.6672 34.8682V34.8682L86.5872 34.8548C86.3234 34.7129 85.7968 34.6616 85.4187 34.5454C85.2403 34.5117 85.0556 34.4923 84.8937 34.4903C84.4755 34.4654 84.0684 34.4545 83.636 34.423C83.4294 34.4086 83.2134 34.3822 83.0006 34.3455C82.6968 34.2947 82.6649 34.2894 82.4885 34.1049C82.7624 34.1081 82.9796 34.0805 83.1032 34.0269C83.2269 33.9732 83.2495 33.8967 83.1672 33.8103C82.9411 33.6216 82.7025 33.4226 81.6801 33.2886C82.0134 33.282 82.3344 33.2688 82.6413 33.2492C82.7307 33.245 82.7975 33.2312 82.833 33.2095C82.8685 33.1879 82.8709 33.1595 82.8399 33.1281C82.8088 33.0967 82.7459 33.0639 82.6594 33.034C82.573 33.0042 82.4672 32.9786 82.3561 32.9609C81.8165 32.8542 81.2535 32.7827 80.7304 32.7546C80.2896 32.7422 79.8917 32.7491 79.377 32.7488L78.7693 32.6473C78.7794 32.6245 78.6901 32.5933 78.7128 32.5808C78.8672 32.4638 79.0375 32.3494 79.2129 32.2237C78.9328 32.1558 78.6901 32.0739 78.5127 31.9872C78.3352 31.9006 78.2302 31.8128 78.2096 31.7338C78.1945 31.71 78.1984 31.6883 78.2212 31.6703C78.2439 31.6522 78.2849 31.6383 78.3413 31.6294C78.5012 31.6141 78.6247 31.5849 78.7022 31.5441C78.7796 31.5033 78.809 31.4519 78.788 31.394L78.3155 31.1804C76.8928 31.028 75.4956 30.9192 74.15 30.8558L72.9352 30.8079C72.7887 30.7508 72.834 30.7257 72.972 30.7243C73.1099 30.7229 73.4977 30.7387 73.7686 30.7472C74.0025 30.7584 74.2103 30.7511 74.3717 30.7259C74.5332 30.7007 74.6428 30.6585 74.69 30.6033L74.2822 30.3598C74.3022 30.3142 74.3305 30.2496 74.5518 30.2539C74.703 30.2486 74.8143 30.2257 74.8679 30.1887C74.9215 30.1518 74.9143 30.103 74.8472 30.0503C74.8371 30.0122 74.8523 29.9775 74.8923 29.9477C75.2195 29.9452 75.545 29.9466 75.8419 29.935C75.9802 29.9311 76.0969 29.917 76.1842 29.8936C76.2715 29.8701 76.3274 29.838 76.3479 29.7992C76.3586 29.7614 76.3324 29.7183 76.2717 29.6734C76.2109 29.6285 76.1171 29.5831 75.9979 29.5408C75.5326 29.4886 75.107 29.4879 74.8144 29.539C74.7101 29.579 74.5426 29.6009 74.3339 29.6017C74.1252 29.6025 73.8851 29.5823 73.6453 29.5436C73.3707 29.499 73.0967 29.4794 72.8726 29.4883C72.6484 29.4972 72.4888 29.5341 72.4225 29.5922C72.1406 29.5696 71.8908 29.5524 71.6442 29.5275C71.3534 29.4961 71.0785 29.4869 70.8493 29.5008C70.4824 29.5106 70.0872 29.5049 69.6725 29.4837C68.477 29.4309 67.28 29.3819 66.1225 29.3599C65.8163 29.3536 65.5514 29.3705 65.2485 29.3567C64.9457 29.3428 64.7061 29.3803 64.3273 29.3048C64.2552 29.293 64.1826 29.2855 64.1153 29.2827C64.048 29.28 63.9878 29.2821 63.9395 29.2889C63.2744 29.3487 62.4946 29.3571 61.6458 29.3138C60.4834 29.3031 59.2779 29.2731 58.1138 29.2663C57.7724 29.2722 57.4497 29.2879 57.1492 29.3133C56.9205 29.3286 56.6809 29.339 56.4318 29.3444C56.2409 29.3492 56.0582 29.335 56.0905 29.4179C56.1227 29.5008 55.8366 29.4489 55.6717 29.4336C55.1051 29.3934 54.526 29.339 53.941 29.271C53.3644 29.197 52.7996 29.154 52.2802 29.1445C51.905 29.1389 51.5181 29.16 51.0358 29.0468C51.0542 29.005 51.0725 28.9632 51.1775 28.9195C50.7842 28.7994 50.3354 28.696 49.8683 28.618C49.4011 28.54 48.9291 28.4895 48.4912 28.4708L47.8874 28.2434C47.7387 28.2167 47.5869 28.1973 47.4413 28.1863C47.2956 28.1753 47.1592 28.173 47.0401 28.1794C46.9482 28.1827 46.8361 28.1743 46.7245 28.1556C46.6129 28.137 46.5092 28.1094 46.4325 28.0779C46.3178 28.0379 46.1778 28.0034 46.0299 27.9787C45.882 27.954 45.7328 27.9402 45.601 27.939C45.1862 27.9143 44.7433 27.8572 44.3178 27.7736C44.2074 27.7246 44.1382 27.674 44.1187 27.628C44.0993 27.582 44.1305 27.5426 44.2085 27.5147C44.3342 27.4654 44.4048 27.4027 44.4159 27.3302C44.4271 27.2577 44.3787 27.1771 44.2736 27.0931C44.2197 27.0416 44.2017 26.9928 44.2207 26.9497C44.2396 26.9066 44.2951 26.87 44.3838 26.8423C44.7148 26.714 44.6262 26.6421 44.0847 26.4292C43.9967 26.3938 43.8907 26.3606 43.7733 26.3319C43.6559 26.3031 43.5298 26.2794 43.4028 26.2623C43.105 26.2276 42.8113 26.2018 42.527 26.1854C42.3671 26.1587 42.2031 26.1802 42.0189 26.1698C41.0977 26.1179 40.9628 26.0342 40.6645 25.8538L40.447 25.7237C40.0438 25.6183 39.6028 25.5307 39.1558 25.4673C38.7087 25.4039 38.2669 25.3663 37.8619 25.3571C37.701 25.3565 37.516 25.3384 37.3352 25.3059C36.747 25.2063 36.1513 25.1374 35.5875 25.1037C35.2362 25.0847 34.8576 25.0357 34.497 24.9624C34.1364 24.8892 33.8093 24.7948 33.5549 24.6907C33.3263 24.5969 33.0273 24.5128 32.6995 24.4499C32.3157 24.3858 32.2802 24.3105 32.4945 24.2525C32.7088 24.1945 33.0677 24.1198 33.3863 24.0588C33.4972 24.0381 33.5659 24.0043 33.5847 23.9614C33.6036 23.9184 33.5719 23.868 33.4932 23.8156C33.4427 23.7259 33.4339 23.6408 33.4671 23.5624C33.4849 23.5298 33.4726 23.4924 33.4312 23.4527C33.3897 23.4131 33.32 23.3721 33.2268 23.3326C33.1335 23.293 33.019 23.2558 32.8907 23.2235C32.7625 23.1912 32.6236 23.1644 32.4834 23.1451C31.8917 23.0463 31.3161 22.9501 30.7127 22.8779C30.4599 22.8438 30.2073 22.8016 29.9612 22.7523C29.4574 22.6304 28.9184 22.5293 28.3756 22.4548C28.1179 22.4216 27.866 22.3634 27.6744 22.2928C27.07 22.1029 26.5131 21.9031 26.0137 21.6972C25.8934 21.6334 25.7359 21.5711 25.5512 21.5142C25.3665 21.4574 25.1585 21.4073 24.9403 21.367C24.7644 21.3376 24.6212 21.2729 24.4856 21.2298C24.3871 21.1302 24.3766 21.0379 24.455 20.9619C24.5335 20.8858 24.6984 20.8283 24.9342 20.7948C25.1578 20.7547 25.3671 20.708 25.5604 20.6587C25.7934 20.6189 26.0704 20.5949 26.3812 20.5878C26.7491 20.5664 27.0213 20.5052 27.162 20.4123C26.1546 20.244 25.1966 20.0024 24.3136 20.0588L23.6427 19.906C23.6695 19.8452 23.6928 19.792 23.7145 19.7425C23.8741 19.6526 23.9239 19.5392 23.8598 19.4119C23.807 19.3503 23.8118 19.2943 23.8737 19.2495C23.9355 19.2046 24.0524 19.1726 24.2123 19.1567C25.1597 18.9926 26.2554 18.8819 27.1439 18.6958C27.4224 18.6609 27.7485 18.645 28.1085 18.6489C28.4567 18.6377 28.4421 18.5537 28.0414 18.45C27.8165 18.3959 27.5872 18.344 27.3545 18.2945C26.3283 18.2863 25.9103 18.5346 24.7392 18.4655L24.1964 18.1382C24.0496 18.1331 23.9071 18.1311 23.7699 18.1322L21.8063 18.2652C21.6428 18.2719 21.5155 18.2946 21.4389 18.3309C21.3622 18.3671 21.3394 18.4154 21.3729 18.4702C21.3862 18.5373 21.3592 18.5989 21.2928 18.6527C21.25 18.6903 21.2774 18.7403 21.369 18.7918C21.5754 18.9079 21.3105 18.9249 21.1432 18.954C21.1005 18.9569 21.0512 18.9566 20.9982 18.9531C20.9452 18.9497 20.8895 18.9432 20.8345 18.934C20.7795 18.9248 20.7261 18.9131 20.6776 18.8996C20.629 18.8861 20.5862 18.871 20.5516 18.8552C20.2569 18.7448 19.9991 18.6283 19.7093 18.5065C19.915 18.3899 19.673 18.1985 19.994 18.093C20.0299 18.0719 20.0442 18.0463 20.0362 18.0176C20.0281 17.9889 19.9978 17.9577 19.9472 17.9261C19.8165 17.8444 19.7542 17.7648 19.7667 17.6953C19.7792 17.6257 19.8659 17.5687 20.0182 17.53L20.0366 17.4882C19.6349 17.3477 19.7414 17.2227 19.5836 17.0739L19.1972 16.9768C18.2359 16.7427 18.2342 16.7465 17.4066 16.7551C17.2397 16.6661 17.4517 16.6525 17.6106 16.6424L18.9418 16.5425C19.8122 16.4757 20.7078 16.4295 21.6801 16.4043C22.6524 16.379 23.7363 16.2949 24.7412 16.2343C24.7921 16.2296 24.8309 16.2203 24.8546 16.2073C24.8783 16.1942 24.886 16.1777 24.8773 16.1591C24.8373 16.1391 24.785 16.1197 24.7243 16.1025C24.6635 16.0853 24.5958 16.0707 24.5262 16.0597C24.2064 16.0063 23.8782 15.9719 23.5374 15.9272L22.9021 15.8496L22.7067 15.7476C22.5795 15.6855 22.4925 15.6098 22.3233 15.5653C22.1839 15.532 22.0325 15.5068 21.885 15.4922C21.7374 15.4776 21.5991 15.4741 21.4845 15.4822C21.1666 15.5026 20.879 15.532 20.5755 15.5589C20.2719 15.5857 20.1046 15.6148 19.8414 15.628C19.3066 15.6339 18.7897 15.6497 18.293 15.6753C17.8747 15.7357 17.4877 15.8074 17.1347 15.8897C16.9144 15.9223 16.7084 15.9613 16.3323 15.9189C16.1538 15.8804 15.9999 15.8299 15.8978 15.7762C15.7957 15.7226 15.752 15.6693 15.7745 15.6258C15.7947 15.5918 15.8518 15.5648 15.9405 15.5475C16.0292 15.5302 16.1465 15.5231 16.2814 15.5269C16.6589 15.5207 17.008 15.4996 17.3217 15.4641C17.7583 15.3998 18.2897 15.3721 18.8851 15.3826C19.087 15.3918 19.2223 15.3573 19.3989 15.346C19.5755 15.3347 19.7251 15.3067 19.922 15.3273C20.5337 15.3805 20.827 15.299 21.1935 15.246C21.3176 15.2225 21.3945 15.1845 21.4157 15.1362C21.4369 15.088 21.4017 15.0312 21.3138 14.9723C21.1446 14.855 20.9376 14.7371 20.6961 14.6203C20.5718 14.5629 20.4126 14.5084 20.2309 14.4611C20.0492 14.4137 19.85 14.3749 19.6488 14.3475C19.5285 14.2756 19.4643 14.205 19.462 14.1419C19.4598 14.0789 19.5196 14.0254 19.6359 13.9863C19.9326 13.8972 20.1955 13.8065 20.8602 13.8563C21.1727 13.8753 21.4668 13.879 21.7308 13.8671C22.3163 13.8508 22.9918 13.8864 23.6935 13.9706C23.875 13.9921 24.0535 14.0068 24.2235 14.0142C25.4366 14.0659 26.5924 14.0917 27.7515 14.1099C28.3656 14.1187 28.9847 14.116 29.6257 14.1415C31.129 14.1968 32.4974 14.1684 33.9484 14.1864C34.7083 14.1957 35.3885 14.1584 35.9533 14.0766C36.0633 14.0492 36.1578 14.0172 36.2356 13.981C35.8613 13.886 35.4502 13.8108 35.0417 13.7625C34.6331 13.7143 34.2408 13.6946 33.9023 13.7055C33.7162 13.7321 33.4757 13.7369 33.2075 13.7195C32.9394 13.7021 32.6542 13.6631 32.3837 13.6068V13.6068L33.1701 13.575C33.6915 13.5601 34.2256 13.5555 34.7328 13.5342C35.5385 13.4974 36.2852 13.4386 37.1195 13.4147C37.7931 13.3928 38.3959 13.3369 38.9089 13.2486C39.2795 13.1842 39.7028 13.1385 40.1702 13.1125C40.5024 13.0986 40.5024 13.0986 40.7148 12.9669C40.5463 12.8816 40.3284 12.8697 40.1231 12.868C38.8926 12.8144 37.7217 12.805 36.634 12.84C36.0852 12.8431 35.5984 12.8793 35.1969 12.9467C35.0985 12.9752 34.847 12.9617 34.6451 12.9525C34.0122 12.9384 33.4072 12.9425 32.8376 12.9646C32.0499 13.0016 31.1727 12.9928 30.24 12.9387C30.0632 12.8724 30.2668 12.8779 30.2768 12.8551C30.9992 12.8126 31.7073 12.7636 32.444 12.7276C32.6454 12.7147 32.8606 12.7084 33.0874 12.7086C33.9338 12.7309 34.6392 12.669 35.1047 12.5315C35.1281 12.4783 35.4343 12.4846 35.5696 12.4501C35.6361 12.4202 35.6805 12.385 35.7013 12.3456C35.5041 12.2474 35.2812 12.2469 35.1096 12.2468C34.6117 12.2577 34.1327 12.2785 33.6749 12.309C33.2493 12.338 32.7783 12.3458 32.2745 12.3321C31.9026 12.3189 31.5848 12.3393 31.2096 12.3337C31.0061 12.322 30.7954 12.3033 30.5819 12.2778C30.8197 12.2094 31.1428 12.1673 31.5287 12.1545C31.8213 12.1136 32.1871 12.1013 32.2339 11.9949C32.0957 11.9187 31.9417 11.9175 31.8181 11.9254C31.5608 11.9251 31.3122 11.9299 31.0738 11.9398C30.5681 11.9614 30.0206 11.9617 29.4428 11.9407C29.1385 11.9328 28.8498 11.9352 28.5815 11.9477C27.9734 11.9645 27.3906 12.0017 26.8339 12.0189C25.6933 12.0364 24.6531 12.0993 23.5572 12.1324C23.3133 12.1406 23.0947 12.1694 22.7732 12.1198C22.4517 12.0702 22.4374 12.0637 22.3995 12.0329C22.3095 11.9815 22.2823 11.9316 22.3234 11.8937C22.3871 11.8583 22.5113 11.8385 22.6739 11.838C23.6535 11.7816 24.5827 11.7025 25.4556 11.601C25.8398 11.5807 26.1764 11.5392 26.4536 11.4781C26.6735 11.4359 26.9344 11.4081 27.228 11.3953C27.6551 11.3648 28.1003 11.3425 28.5619 11.3284C28.7766 11.3209 28.9592 11.2983 29.099 11.2621C29.2387 11.2259 29.3327 11.1768 29.3754 11.1176L28.8096 10.9211C28.7206 10.9119 28.6325 10.904 28.5454 10.8973L23.8489 11.0389L23.3838 11.0428C22.874 11.0311 22.7495 11.0021 22.2659 10.7745C23.3694 10.7209 24.2369 10.5648 24.782 10.3217C24.651 10.2956 24.5167 10.2731 24.3822 10.255C23.5003 10.1975 22.6667 10.1822 21.9133 10.2097C21.4659 10.2125 21.0058 10.205 20.544 10.2013C20.679 10.0892 21.1964 10.1226 21.5336 10.0973C22.3393 10.0578 23.0518 9.97613 23.6483 9.85495C23.854 9.80771 24.1112 9.77749 24.4084 9.7657C24.7057 9.76164 24.9541 9.73304 25.1319 9.6824C25.3098 9.63175 25.4116 9.5606 25.4286 9.47512C25.4566 9.39773 25.517 9.32582 25.6087 9.26045C25.4463 9.1677 25.1884 9.07889 24.8834 9.01066C24.5784 8.94244 24.2473 8.89951 23.9522 8.88991C23.3222 8.85172 22.6688 8.78921 22.0086 8.70395C21.6797 8.66095 21.3572 8.63627 21.0621 8.63151C20.8018 8.62785 20.506 8.5968 20.2197 8.54308C19.9334 8.48937 19.6724 8.41594 19.4765 8.33401C19.212 8.23272 18.9652 8.1303 18.7184 8.02788C18.4716 7.92547 18.1853 7.79604 17.8972 7.67041C17.6432 7.65076 17.3959 7.63814 17.1586 7.6327C16.9739 7.6373 16.7585 7.62361 16.5377 7.59322C16.3168 7.56284 16.0998 7.51704 15.9123 7.46123V7.46123C16.0223 7.40617 16.1466 7.35759 16.2776 7.29381C16.0978 7.20958 15.9674 7.12368 15.8944 7.04135C15.8214 6.95902 15.8073 6.88198 15.853 6.81493C15.8797 6.75412 15.6843 6.65211 15.6167 6.57147C15.5297 6.50196 15.5134 6.43709 15.5698 6.38536C15.6263 6.33364 15.7528 6.29747 15.9329 6.28161C16.1563 6.25234 16.3381 6.20826 16.4708 6.15117C16.5147 6.13635 16.5371 6.11606 16.5358 6.09214C16.5346 6.06823 16.5098 6.04146 16.4637 6.01428C16.4175 5.9871 16.3516 5.96037 16.2719 5.93655C16.1922 5.91274 16.1012 5.89258 16.0073 5.87793C15.7197 5.8364 15.434 5.80948 15.1668 5.79871C14.7063 5.77891 14.2655 5.76648 13.8444 5.7614C13.3786 5.75376 12.8605 5.70662 12.3425 5.62475C11.8788 5.54729 11.4631 5.47784 11.2363 5.32982C11.0096 5.1818 10.6471 5.18652 10.3683 5.07876C10.5249 4.98162 10.8032 4.91414 11.1752 4.8831C11.4186 4.87202 11.6218 4.84294 11.7717 4.79773C11.9216 4.75252 12.0149 4.69218 12.0457 4.62057L11.1994 4.3201C10.5235 4.17864 10.1496 4.28751 9.41932 4.2308L10.1718 4.11988C10.1869 4.10891 10.1926 4.09604 10.1885 4.08187C10.1154 3.85753 9.99918 3.80956 9.22999 3.68515L8.79828 3.61304L8.11498 3.52745C8.00555 3.48148 7.92987 3.43353 7.89548 3.38841C7.86109 3.34329 7.8692 3.30258 7.91902 3.27035C8.01913 3.21614 8.04957 3.14687 8.00754 3.06892C7.94126 3.01728 7.9358 2.96967 7.99207 2.93436C8.04835 2.89905 8.16282 2.87826 8.31562 2.87561C8.43757 2.8715 8.44662 2.81182 8.51296 2.77803C8.57888 2.73145 8.69171 2.69571 8.84375 2.67324C8.99579 2.65077 9.18344 2.64208 9.39402 2.64779C10.0149 2.65246 10.5981 2.63497 11.1333 2.59565L11.0374 2.57963C11.5953 2.61415 12.1168 2.61833 12.5767 2.59198C13.0375 2.55881 13.6289 2.58009 14.1184 2.55987C14.5169 2.56451 14.8202 2.5186 14.9641 2.43189C15.1035 2.34911 15.6099 2.36843 15.9977 2.38425C16.2275 2.39449 16.4495 2.39883 16.6614 2.39721C16.9459 2.37848 17.3017 2.39614 17.6693 2.44726C17.7796 2.46297 17.8882 2.47129 17.9848 2.47141C18.9194 2.49289 19.8522 2.51818 20.7741 2.52939C20.9869 2.52293 21.2365 2.53773 21.4934 2.57203C21.6015 2.58693 21.7066 2.5931 21.7947 2.58971C23.2514 2.55564 24.8952 2.64257 26.3233 2.59556C26.4964 2.58445 26.688 2.58215 26.8927 2.58869C27.3528 2.61631 27.7523 2.59854 28.0306 2.53807C28.1808 2.50591 28.3733 2.48819 28.5959 2.48604C28.8185 2.48389 29.0662 2.49735 29.3234 2.52557C29.7513 2.56294 30.1469 2.56699 30.4682 2.5373C31.0947 2.50987 31.7537 2.49859 32.4397 2.50355C32.6499 2.50835 32.8347 2.49769 32.9798 2.4724C33.1248 2.44711 33.2262 2.40786 33.2761 2.3577C33.1076 2.27244 32.9234 2.26207 32.7485 2.26956C32.0705 2.25013 31.3941 2.2269 30.7288 2.21775C30.1332 2.1916 29.5618 2.1836 29.0229 2.19388C28.7553 2.20548 28.4214 2.17903 28.094 2.12032C27.6929 2.04595 27.2796 2.00901 26.938 2.01695C26.6847 2.01893 26.4173 2.01252 26.1397 1.99783C25.962 1.98012 25.7799 1.94969 25.612 1.90969C25.5454 1.89232 25.4729 1.87771 25.3991 1.8668C25.3254 1.85589 25.2521 1.84893 25.1837 1.84635C25.1154 1.84376 25.0536 1.84562 25.0024 1.8518C24.9511 1.85798 24.9115 1.86836 24.8861 1.88225C24.629 1.99842 24.0543 1.93914 23.5622 1.92629C22.8248 1.72967 22.2759 1.84604 21.5867 1.73499C21.5322 1.72763 21.4785 1.72317 21.4289 1.72189C21.3793 1.72062 21.3348 1.72256 21.2981 1.72758C19.9643 1.79443 18.4097 1.73872 17.0093 1.7618C16.8549 1.76518 16.6756 1.75361 16.4919 1.72841C15.2914 1.56163 14.1371 1.51428 13.2548 1.59563C13.1475 1.60295 13.0253 1.60327 12.894 1.59655C12.2907 1.53026 11.7138 1.50384 11.2115 1.51947C10.4242 1.51442 9.66716 1.51852 8.86719 1.5032C8.31575 1.4814 7.83199 1.50469 7.46438 1.57075C7.45269 1.59735 7.20781 1.56869 7.02023 1.56591C6.91235 1.49894 6.81882 1.43844 6.7076 1.37907C6.60818 1.30561 6.45924 1.23128 6.27093 1.16111C6.08263 1.09094 5.85937 1.02658 5.6162 0.972381C5.20046 0.902934 5.15888 0.802159 5.4498 0.765083C6.19962 0.64242 7.14249 0.592215 8.20908 0.618153C9.10069 0.620226 10.0083 0.624975 10.9126 0.637321C11.44 0.647912 11.996 0.671436 12.5091 0.675556C12.6823 0.684607 12.8601 0.697944 13.0408 0.715425C13.2626 0.740772 13.4779 0.754582 13.6752 0.756115C14.3086 0.734769 15.0155 0.753365 15.7622 0.811013C16.0357 0.823585 16.2983 0.82782 16.5462 0.823661C17.1325 0.808013 17.7682 0.819528 18.4363 0.857904C18.8516 0.879543 19.2542 0.890859 19.6401 0.891728C19.7764 0.894094 19.8874 0.875915 20.0186 0.889682C21.1739 1.03372 21.992 0.92968 23.0318 0.985068C23.5372 1.00051 24.02 1.00055 24.4735 0.985199C25.3586 0.985942 26.2682 1.00173 27.199 1.03251C28.4297 1.08307 29.5702 1.06553 30.7453 1.0864C30.9773 1.09079 31.2013 1.09004 31.4157 1.08416C32.4586 1.04531 33.5913 1.05355 34.7862 1.10868C35.0575 1.11665 35.3012 1.1069 35.502 1.08008C35.7028 1.05325 35.8564 1.00991 35.9532 0.952773C35.9941 0.913557 35.9676 0.862621 35.8787 0.80979C35.7312 0.742321 35.5647 0.676215 35.3818 0.612561L28.7303 0.398967C28.4509 0.387813 28.1785 0.381809 27.9144 0.380979C27.1375 0.379122 26.3368 0.362505 25.5161 0.331212C24.7052 0.301817 23.9305 0.307036 23.1448 0.298186C22.9134 0.295221 22.6759 0.288226 22.4332 0.277221C20.7928 0.190122 19.1933 0.136923 17.6458 0.118005C16.9948 0.115321 16.2914 0.0753477 15.6277 0.0623913C14.964 0.0494349 14.0564 0.044691 13.2691 0.0396413L10.8316 0.0404168C10.3521 0.0378388 9.8853 0.0455305 9.42016 0.0494241C8.85571 -0.228442 8.6612 -0.293571 7.908 -0.415309C7.65032 -0.460214 7.38822 -0.487013 7.15243 -0.492566C6.40473 -0.470599 5.46657 -0.562038 4.75754 -0.549932C4.3297 -0.555903 3.96666 -0.525036 3.70558 -0.460487C3.47894 -0.409829 3.21978 -0.369745 2.9321 -0.340839C2.14404 -0.578547 2.07459 -0.732932 2.66739 -0.79301C2.828 -0.806976 3.04923 -0.802656 3.16521 -0.832237C3.23176 -0.850252 3.32267 -0.860555 3.4307 -0.862335C3.53873 -0.864116 3.66088 -0.857329 3.78759 -0.842499C4.18749 -0.803599 4.56231 -0.79445 4.87444 -0.815973C5.16819 -0.844456 5.52827 -0.84332 5.91995 -0.812667C6.20778 -0.764589 6.46076 -0.832477 6.70967 -0.852091C6.95858 -0.871705 7.16285 -0.906938 7.55162 -0.854235C7.62281 -0.843742 7.69349 -0.837442 7.75823 -0.83582C7.82297 -0.834198 7.88006 -0.837297 7.92511 -0.844879C8.34267 -0.878822 8.84094 -0.875255 9.37947 -0.834472C10.2054 -0.794339 10.9804 -0.792835 11.6774 -0.830008C12.0947 -0.862535 12.4505 -0.920217 12.7308 -1.00081C12.8073 -1.02776 12.9207 -1.04392 13.0604 -1.04774C13.7618 -1.03093 14.5233 -0.967645 15.2959 -0.861979C15.587 -0.819639 15.8776 -0.786149 16.1617 -0.762221C16.7456 -0.709066 17.3104 -0.679281 17.8392 -0.673746C18.6077 -0.672868 19.4078 -0.652417 20.2325 -0.612576C20.7414 -0.590393 21.2318 -0.582206 21.6978 -0.588103C22.1768 -0.590883 22.6882 -0.573962 23.2204 -0.537733C23.7497 -0.50821 24.2162 -0.52522 24.5635 -0.586705C24.6779 -0.619837 24.77 -0.659181 24.8382 -0.704002C24.0632 -0.849849 23.2617 -0.923972 22.5951 -0.911442C22.3418 -0.921103 22.1316 -0.91135 21.8648 -0.968159L21.8564 -0.949157C21.8033 -0.936827 21.7232 -0.933917 21.6314 -0.940985C21.5395 -0.948052 21.4424 -0.9646 21.3584 -0.987478V-0.987478C21.3901 -1.05969 21.4202 -1.1281 21.4419 -1.17751C21.9498 -1.16879 22.443 -1.1695 22.9189 -1.17963C23.3201 -1.19421 23.8647 -1.06652 24.2119 -1.11458C24.8892 -1.05448 25.3205 -1.13747 25.9278 -1.11352C26.5352 -1.08957 27.2042 -1.01046 27.8115 -0.986518C28.3415 -0.973377 28.8561 -0.970521 29.3525 -0.977962C29.5238 -0.988407 29.7213 -0.985958 29.9329 -0.970761C30.2303 -0.942171 30.507 -0.93738 30.7311 -0.956941C30.9552 -0.976502 31.1177 -1.01963 31.2001 -1.08137C31.1226 -1.1392 31.018 -1.21377 30.8975 -1.29102C31.1192 -1.35449 31.456 -1.38121 31.8578 -1.36722L32.4256 -1.37028C32.576 -1.36861 32.691 -1.38577 32.7468 -1.41821C32.8026 -1.45066 32.7949 -1.4959 32.7253 -1.54459C31.6487 -1.7897 31.6091 -1.81672 30.8189 -1.65906L29.7698 -1.73232L29.7875 -1.73345ZM43.9778 -1.06014L43.8979 -1.07349L43.9778 -1.06014ZM174.72 25.018L174.702 25.0599L174.722 25.0142L174.898 25.0436L174.91 25.017L174.72 25.018ZM149.183 6.69413C148.934 6.64852 148.683 6.60659 148.431 6.5686C148.365 6.5627 148.304 6.56137 148.251 6.56472C148.199 6.56806 148.158 6.57597 148.131 6.58779C148.111 6.6334 148.252 6.66504 148.379 6.68641C148.541 6.71517 148.706 6.73345 148.857 6.73936C149.008 6.74526 149.14 6.73859 149.24 6.72002L149.385 6.70338L149.183 6.69413ZM21.1311 17.8097C21.2948 17.8174 21.45 17.8187 21.5929 17.8135C22.227 17.7766 22.8341 17.723 23.4842 17.6888C24.3044 17.602 25.247 17.5666 26.2764 17.5841C26.6786 17.5926 27.0184 17.5644 27.2561 17.5029C27.3984 17.4699 27.5821 17.4507 27.7959 17.4463L30.5175 17.3461C30.6857 17.3253 30.8312 17.2961 30.9504 17.2593C30.7106 17.2192 30.5507 17.1925 30.4547 17.1765C30.2557 17.172 30.0846 17.1842 29.9586 17.2119C29.8232 17.2589 29.5945 17.2775 29.3178 17.264C29.0384 17.2528 28.766 17.2468 28.5018 17.246C28.0031 17.2483 27.5009 17.2583 27.0004 17.2644C26.8057 17.3951 26.231 17.3358 25.7389 17.3229L25.3588 17.3288C24.1161 17.3965 22.929 17.4897 21.8034 17.6079C21.5858 17.6279 21.3984 17.6598 21.2469 17.7026C21.1898 17.736 21.1715 17.7776 21.1934 17.8242L21.1135 17.8109L21.1311 17.8097ZM76.6245 30.3023C76.926 30.3112 77.2399 30.3295 77.5617 30.3569C77.8096 30.3848 78.0515 30.4018 78.2777 30.4071C79.5451 30.4364 80.866 30.5041 82.2223 30.6092C82.3997 30.6251 82.5701 30.6329 82.7271 30.6323L83.8373 30.6056C84.1872 30.5906 84.1939 30.5754 83.9392 30.3738C83.7278 30.3346 83.5141 30.2989 83.2996 30.2669C83.1717 30.2455 82.9638 30.2108 82.9152 30.2435C82.6185 30.3326 82.0775 30.2749 81.6224 30.256C80.305 30.2073 78.9463 30.1353 77.6163 30.0764C77.3351 30.0619 77.0627 30.0547 76.802 30.0546C76.6402 30.0515 76.4927 30.0572 76.3655 30.0714C76.3284 30.0729 76.2973 30.0771 76.2743 30.0838C76.2513 30.0905 76.2369 30.0995 76.2322 30.1103C76.2275 30.1211 76.2325 30.1334 76.2468 30.1463C76.2612 30.1593 76.2845 30.1726 76.3154 30.1854C76.4243 30.2303 76.55 30.2733 76.6885 30.313L76.6245 30.3023ZM86.2749 1.03641L87.5727 1.0125C87.7283 1.00994 87.8603 0.983029 88.0269 0.994536C88.9155 1.03101 89.7382 1.02085 90.4602 0.964492C90.706 0.941494 90.9936 0.936894 91.3071 0.950949C92.2672 0.992596 93.1729 0.99431 93.9996 0.95604C94.5339 0.94836 95.034 0.922564 95.4924 0.879034C95.5277 0.86893 95.5497 0.855211 95.5569 0.838814C95.5641 0.822417 95.5563 0.803728 95.5341 0.78402C95.5284 0.77157 95.5127 0.758176 95.4881 0.744763C95.4636 0.73135 95.4307 0.718232 95.3919 0.70632C95.3531 0.694409 95.3092 0.683986 95.2633 0.675763C95.2174 0.66754 95.1704 0.661712 95.1258 0.658688C94.5467 0.599768 93.997 0.579242 93.5216 0.598776C93.0808 0.622148 92.6061 0.628987 92.1052 0.619186C91.6257 0.616608 91.3004 0.692818 90.7081 0.634666C90.4575 0.615518 90.2365 0.621822 90.0823 0.652523C89.772 0.703411 89.339 0.706242 88.8602 0.660511C88.5737 0.637367 88.3 0.627442 88.0492 0.631114C87.4412 0.647845 86.86 0.681318 86.2966 0.713663C86.119 0.721145 85.9288 0.722178 85.7289 0.716737L82.9075 0.653402C82.2295 0.633974 81.5531 0.610745 80.8878 0.60159C80.3436 0.581709 79.8372 0.587936 79.3864 0.620049C78.9058 0.653802 78.3816 0.667505 77.8237 0.660899C76.9574 0.679371 76.0961 0.686436 75.1532 0.683951C74.5518 0.685479 73.9361 0.680539 73.3077 0.665324C72.9898 0.645741 72.72 0.661689 72.55 0.710096C72.4467 0.749949 72.2035 0.717481 72.0016 0.708233C70.9247 0.61909 69.9147 0.597968 69.0423 0.646337C68.9309 0.654219 68.8086 0.657073 68.6781 0.654849C67.8378 0.653188 66.9672 0.642384 66.1605 0.642264C65.9482 0.646022 65.7483 0.656334 65.5634 0.67307C65.5832 0.700373 65.6397 0.729965 65.721 0.75571C65.8024 0.781454 65.9024 0.801377 66.0004 0.811341C66.7633 0.887619 67.5 0.927914 68.1793 0.930536C69.3102 0.920819 70.4948 0.942665 71.7207 0.99584C72.672 1.04945 73.5394 1.03816 74.2583 0.962818C74.8203 0.9066 75.5514 0.927752 76.326 1.02264C76.6575 1.06796 76.9792 1.08608 77.2472 1.07453C77.5051 1.05938 77.8011 1.06305 78.1178 1.08534C78.7855 1.12772 79.4276 1.14738 80.0316 1.14393C80.622 1.12833 81.1728 1.08571 81.7792 1.07278C82.3856 1.05985 83.3092 1.06726 84.0569 1.04529C84.8046 1.02333 85.5439 1.02037 86.2749 1.03641ZM32.4993 -1.18662C32.5679 -1.06911 32.8104 -0.995966 33.0712 -0.964631C33.9705 -0.825496 34.8596 -0.766289 35.5892 -0.796947C35.9833 -0.83971 36.5087 -0.823249 37.0622 -0.750797C37.7066 -0.675483 38.309 -0.662992 38.7631 -0.715528C38.8743 -0.724708 38.9595 -0.744114 39.011 -0.772018C39.021 -0.794821 39.0394 -0.836626 39.0428 -0.844227C38.995 -0.863504 38.9365 -0.881365 38.8717 -0.896434C38.8069 -0.911502 38.7376 -0.923373 38.669 -0.931133L35.6902 -1.06565L35.1711 -1.09525C34.2229 -1.17281 33.3194 -1.2037 32.4993 -1.18662V-1.18662ZM38.3588 0.67333C38.8237 0.865219 38.8253 0.86141 39.0635 0.905276C40.2126 1.08748 41.3609 1.18584 42.3717 1.18864C42.5964 1.18809 42.7871 1.16956 42.9276 1.13463C42.9999 1.1299 43.0459 1.11485 43.0556 1.09278C43.0653 1.07071 43.0379 1.0434 42.9794 1.01681L42.6097 0.88163C41.9383 0.823104 41.2765 0.776602 40.6284 0.742403C39.8737 0.702019 39.205 0.70046 38.4227 0.684009L38.3588 0.67333ZM76.5688 29.4526C77.002 29.7167 77.0036 29.7129 77.7289 29.781C78.2343 29.8293 78.7245 29.8576 79.1852 29.8652C79.7479 29.8735 80.325 29.8883 80.8861 29.9005C81.0231 29.9089 81.1392 29.9019 81.2119 29.8809C81.2846 29.8598 81.3086 29.8263 81.2794 29.7867C81.2057 29.7437 81.0905 29.7021 80.9525 29.6687C80.8145 29.6353 80.6618 29.612 80.5192 29.6026L80.213 29.5963C79.8412 29.5831 79.455 29.5635 79.0959 29.5606C78.8628 29.5716 78.5928 29.5631 78.307 29.5359C78.0212 29.5087 77.7273 29.4634 77.4484 29.4037L76.5688 29.4526ZM40.6721 -0.841314C40.7877 -0.795577 40.9185 -0.751772 41.061 -0.711064C41.6128 -0.598231 42.1968 -0.534147 42.6985 -0.531374C42.9357 -0.524384 43.1526 -0.54934 43.3941 -0.513076C43.8273 -0.464616 44.2471 -0.438802 44.6309 -0.437032C44.6309 -0.437032 44.7385 -0.447614 44.7738 -0.449873L44.8473 -0.617097C44.6656 -0.655836 44.4762 -0.687484 44.2876 -0.710584C43.655 -0.755075 43.0333 -0.785491 42.4132 -0.819709C41.7932 -0.853927 41.577 -0.869646 41.1715 -0.884343C40.9907 -0.876264 40.8234 -0.861851 40.6721 -0.841314ZM26.9712 19.948L27.7992 20.2902C28.0671 20.32 28.3174 20.3254 28.512 20.3056C28.7066 20.2858 28.8348 20.2419 28.8771 20.1806C28.9453 20.152 28.9521 20.1095 28.8962 20.0621C28.8402 20.0147 28.7257 19.9661 28.5769 19.9265C28.4336 19.8795 28.27 19.8374 28.0963 19.8028C27.9225 19.7682 27.7424 19.7417 27.5669 19.7252L26.9712 19.948ZM33.8647 18.2438C33.3232 18.1857 32.8052 18.162 32.3504 18.1744C32.0639 18.2084 31.6757 18.1975 31.2653 18.1441C30.5191 18.0376 29.7997 18.0081 29.259 18.0619C29.259 18.0619 29.2389 18.1075 29.1472 18.1207C29.0556 18.134 29.4191 18.1661 29.499 18.1795C30.0854 18.2122 30.6751 18.2372 31.1849 18.249C31.5014 18.2485 31.8361 18.2592 32.1834 18.2811C32.6612 18.3149 33.1144 18.3258 33.5251 18.3135C33.5251 18.3135 33.684 18.3034 33.863 18.2476L33.8647 18.2438ZM91.6965 0.416305C91.4379 0.351844 91.1574 0.299454 90.8761 0.263068C90.5949 0.226682 90.3201 0.207246 90.0725 0.206211C89.8828 0.202848 89.7294 0.219867 89.6364 0.254579C89.5435 0.28929 89.5163 0.339714 89.5592 0.397874C89.751 0.429926 90.0069 0.472661 90.1508 0.4967C90.6496 0.494348 91.0751 0.463439 91.6965 0.416305ZM140.114 5.84836C139.907 5.79647 139.678 5.7568 139.455 5.73387C139.231 5.71094 139.021 5.70569 138.85 5.71871C138.761 5.72436 138.821 5.78332 138.806 5.81752C138.797 5.82528 138.797 5.83492 138.807 5.84545C138.817 5.85598 138.836 5.867 138.863 5.87735C138.89 5.88771 138.924 5.89702 138.96 5.90431C138.997 5.91161 139.035 5.91661 139.071 5.91881C139.296 5.94116 139.508 5.94781 139.689 5.93818C139.87 5.92854 140.014 5.90291 140.108 5.86357L140.114 5.84836ZM143.358 6.59016C143.326 6.55954 143.258 6.52763 143.166 6.50027C143.074 6.47291 142.964 6.45194 142.858 6.44121C142.668 6.43977 142.497 6.44826 142.349 6.46636C142.188 6.48033 142.304 6.56898 142.521 6.62158C142.613 6.64269 142.711 6.65916 142.808 6.66967C142.905 6.68019 142.997 6.68446 143.078 6.68215C143.159 6.67983 143.226 6.671 143.274 6.65635C143.322 6.6417 143.35 6.62164 143.355 6.59776L143.358 6.59016ZM49.0936 -0.515625C48.6096 -0.625031 48.2371 -0.597508 47.8274 -0.64148C47.4176 -0.685452 47.3166 -0.690078 47.3715 -0.619715C47.4264 -0.549351 47.7073 -0.563621 47.8832 -0.53424C48.1209 -0.495253 48.3599 -0.472867 48.5737 -0.469579C48.7875 -0.466291 48.9675 -0.482234 49.0936 -0.515625V-0.515625ZM149.949 17.996C149.693 17.9714 149.442 17.9541 149.2 17.9442C149.168 17.9544 149.148 17.9677 149.141 17.9834C149.134 17.999 149.14 18.0167 149.16 18.0354C149.16 18.0354 149.324 18.0914 149.42 18.1074C149.773 18.1624 149.791 18.0837 149.949 17.996V17.996ZM186.183 28.1892C186.356 28.2631 186.437 28.3133 186.576 28.3487C186.64 28.361 186.706 28.37 186.769 28.3749C186.832 28.3798 186.891 28.3806 186.941 28.3771C187.002 28.3558 187.016 28.3233 186.981 28.2859C186.981 28.2859 186.804 28.2196 186.737 28.2166C186.545 28.2009 186.359 28.1917 186.183 28.1892V28.1892ZM40.8553 -1.14115C40.4875 -1.20258 40.1357 -1.26135 39.8811 -1.18966C40.4651 -1.1125 40.4651 -1.1125 40.8553 -1.14115ZM46.8119 -0.439866C46.4405 -0.571251 46.2226 -0.583174 46.0444 -0.568078C46.0065 -0.564276 45.9814 -0.555801 45.9729 -0.543941C45.9645 -0.532082 45.9731 -0.51748 45.9975 -0.502345C46.0218 -0.487209 46.0607 -0.472366 46.108 -0.460057C46.1554 -0.447749 46.2088 -0.438645 46.2601 -0.434127C46.4538 -0.430345 46.6385 -0.432265 46.8119 -0.439866V-0.439866ZM65.9251 -0.384309C65.9334 -0.403312 65.9435 -0.426115 65.8475 -0.442141C65.8224 -0.450277 65.7929 -0.457273 65.762 -0.462431C65.7312 -0.467588 65.7 -0.470721 65.6716 -0.471519C65.6716 -0.471519 65.6616 -0.448714 65.6549 -0.433512L65.9251 -0.384309ZM79.1978 31.1646L78.9842 31.1819L79.0801 31.198L79.3333 31.2076L79.1978 31.1646ZM154.405 6.29364C154.325 6.28028 154.245 6.26693 154.233 6.29353C154.216 6.29765 154.206 6.3036 154.203 6.31087C154.2 6.31815 154.204 6.32653 154.215 6.33534C154.215 6.33534 154.327 6.35404 154.375 6.36205L154.405 6.29364ZM141.953 6.50642C141.901 6.50489 141.853 6.50667 141.814 6.51166C141.814 6.51166 141.804 6.53446 141.804 6.53446L141.964 6.56117L141.953 6.50642ZM33.4424 11.9397C33.3806 11.9259 33.3152 11.9149 33.2505 11.9077L33.1705 11.8943C33.1705 11.8943 33.2565 11.9331 33.3044 11.9412C33.3524 11.9492 33.3911 11.9393 33.4424 11.9397Z" fill="#F6B205"/>
</g>
</g>
</svg>
