<svg width="23" height="22" viewBox="0 0 23 22" fill="none" xmlns="http://www.w3.org/2000/svg">
<g id="carbon:store">
<path id="Vector" d="M21.1246 7.34246L19.7496 3.21746C19.7018 3.07516 19.6087 2.95243 19.4845 2.86801C19.3604 2.7836 19.212 2.74213 19.0621 2.74996H3.93712C3.7872 2.74213 3.63883 2.7836 3.51469 2.86801C3.39055 2.95243 3.29745 3.07516 3.24962 3.21746L1.87462 7.34246C1.86471 7.41546 1.86471 7.48946 1.87462 7.56246V11.6875C1.87462 11.8698 1.94705 12.0447 2.07598 12.1736C2.20491 12.3025 2.37978 12.375 2.56212 12.375H3.24962V19.25H4.62462V12.375H8.74962V19.25H19.7496V12.375H20.4371C20.6195 12.375 20.7943 12.3025 20.9233 12.1736C21.0522 12.0447 21.1246 11.8698 21.1246 11.6875V7.56246C21.1345 7.48946 21.1345 7.41546 21.1246 7.34246ZM18.3746 17.875H10.1246V12.375H18.3746V17.875ZM19.7496 11H16.9996V8.24996H15.6246V11H12.1871V8.24996H10.8121V11H7.37462V8.24996H5.99962V11H3.24962V7.67246L4.43212 4.12496H18.5671L19.7496 7.67246V11Z" fill="#F6B205"/>
</g>
</svg>
