<svg width="54" height="54" viewBox="0 0 54 54" fill="none" xmlns="http://www.w3.org/2000/svg">
<g id="clarity:block-quote-line">
<path id="Vector" d="M17.7895 24.825C16.6799 24.8287 15.59 25.118 14.6245 25.665C15.9838 22.1467 18.2381 19.0444 21.1645 16.665C21.332 16.5271 21.4706 16.3576 21.5725 16.1661C21.6744 15.9746 21.7377 15.765 21.7586 15.5491C21.7794 15.3332 21.7576 15.1153 21.6943 14.9078C21.631 14.7004 21.5274 14.5074 21.3895 14.34C21.2516 14.1726 21.0821 14.0339 20.8907 13.932C20.6992 13.8301 20.4895 13.7669 20.2736 13.746C20.0577 13.7251 19.8398 13.7469 19.6324 13.8102C19.4249 13.8735 19.232 13.9771 19.0645 14.115C13.0645 18.99 10.3945 25.74 10.3945 29.925C10.4049 31.4047 10.8458 32.8494 11.6636 34.0827C12.4813 35.316 13.6405 36.2845 14.9995 36.87C15.8791 37.2961 16.8423 37.5215 17.8195 37.53C18.6797 37.5718 19.5394 37.4385 20.3466 37.1381C21.1537 36.8377 21.8914 36.3766 22.515 35.7826C23.1386 35.1886 23.635 34.4741 23.9742 33.6825C24.3134 32.8909 24.4883 32.0387 24.4883 31.1775C24.4883 30.3163 24.3134 29.464 23.9742 28.6725C23.635 27.8809 23.1386 27.1664 22.515 26.5724C21.8914 25.9784 21.1537 25.5172 20.3466 25.2169C19.5394 24.9165 18.6797 24.7832 17.8195 24.825H17.7895Z" fill="#F6B205"/>
<path id="Vector_2" d="M34.5005 24.8248C33.3907 24.8272 32.3004 25.1166 31.3355 25.6648C32.6942 22.1502 34.9426 19.0489 37.8605 16.6648C38.0431 16.5331 38.1969 16.3655 38.3123 16.1722C38.4277 15.9789 38.5024 15.7641 38.5316 15.5408C38.5609 15.3176 38.5442 15.0908 38.4825 14.8743C38.4209 14.6577 38.3155 14.4561 38.173 14.2818C38.0305 14.1075 37.8538 13.9643 37.6539 13.8608C37.4539 13.7574 37.2349 13.6959 37.0103 13.6803C36.7858 13.6646 36.5603 13.6951 36.348 13.7698C36.1356 13.8445 35.9408 13.9619 35.7755 14.1148C29.7755 18.9898 27.1055 25.7398 27.1055 29.9248C27.1126 31.3878 27.5407 32.8178 28.3387 34.044C29.1366 35.2702 30.2707 36.2408 31.6055 36.8398C32.5073 37.2783 33.4977 37.5041 34.5005 37.4998C35.3607 37.5416 36.2204 37.4083 37.0275 37.1079C37.8346 36.8075 38.5723 36.3464 39.1959 35.7524C39.8195 35.1584 40.3159 34.4439 40.6551 33.6523C40.9943 32.8607 41.1692 32.0085 41.1692 31.1473C41.1692 30.2861 40.9943 29.4338 40.6551 28.6423C40.3159 27.8507 39.8195 27.1362 39.1959 26.5422C38.5723 25.9482 37.8346 25.487 37.0275 25.1867C36.2204 24.8863 35.3607 24.753 34.5005 24.7948V24.8248Z" fill="#F6B205"/>
</g>
</svg>
