<svg width="18" height="19" viewBox="0 0 18 19" fill="none" xmlns="http://www.w3.org/2000/svg">
<path d="M14.9625 16.25C13.35 16.25 11.7782 15.8905 10.2473 15.1715C8.71625 14.4525 7.36 13.5025 6.1785 12.3215C4.997 11.1405 4.047 9.78425 3.3285 8.25275C2.61 6.72125 2.2505 5.1495 2.25 3.5375C2.25 3.3125 2.325 3.125 2.475 2.975C2.625 2.825 2.8125 2.75 3.0375 2.75H6.075C6.25 2.75 6.40625 2.80625 6.54375 2.91875C6.68125 3.03125 6.7625 3.175 6.7875 3.35L7.275 5.975C7.3 6.15 7.29675 6.3095 7.26525 6.4535C7.23375 6.5975 7.162 6.7255 7.05 6.8375L5.25 8.675C5.775 9.575 6.43125 10.4187 7.21875 11.2062C8.00625 11.9937 8.875 12.675 9.825 13.25L11.5875 11.4875C11.7 11.375 11.847 11.2907 12.0285 11.2347C12.21 11.1788 12.388 11.163 12.5625 11.1875L15.15 11.7125C15.325 11.75 15.4688 11.8345 15.5812 11.966C15.6937 12.0975 15.75 12.2505 15.75 12.425V15.4625C15.75 15.6875 15.675 15.875 15.525 16.025C15.375 16.175 15.1875 16.25 14.9625 16.25Z" fill="#B71A1B"/>
</svg>
