<svg width="144" height="15" viewBox="0 0 144 15" fill="none" xmlns="http://www.w3.org/2000/svg">
<path id="Vector" d="M135.013 7.72143C134.816 7.73289 134.617 7.74077 134.424 7.75797C134.299 7.76871 134.246 7.7372 134.162 7.72072C134.134 7.71499 134.104 7.70353 134.079 7.70496C133.884 7.71642 133.689 7.72932 133.494 7.74221C133.434 7.77015 133.397 7.8074 133.305 7.82101C133.216 7.8339 133.11 7.8339 133.011 7.84035C132.88 7.84823 132.749 7.85611 132.617 7.86328C132.552 7.86686 132.498 7.88047 132.476 7.90626C132.472 7.91055 132.516 7.92129 132.54 7.92774C132.619 7.94923 132.697 7.97359 132.784 7.99006C132.868 8.00582 132.971 7.98004 133.061 8.00009C133.262 8.04522 133.263 8.04451 133.417 8.03591C133.548 8.02803 133.679 8.01944 133.81 8.01371C133.836 8.01228 133.866 8.02302 133.894 8.02875C133.977 8.04451 134.031 8.08033 134.154 8.06672C134.248 8.05597 134.351 8.05382 134.448 8.04809C134.53 8.06887 134.605 8.0925 134.693 8.10898C134.774 8.12474 134.798 8.13692 134.755 8.1577C134.715 8.17704 134.659 8.18492 134.586 8.18635C134.52 8.18707 134.454 8.19351 134.389 8.19709C134.355 8.19924 134.323 8.20068 134.291 8.20283C134.166 8.21071 134.166 8.2107 133.937 8.16486C133.848 8.14695 133.747 8.17202 133.661 8.15483C133.603 8.14337 133.554 8.12618 133.498 8.114C133.474 8.10899 133.436 8.10827 133.407 8.1097C133.307 8.11471 133.208 8.11829 133.112 8.12761C133.045 8.13405 133.005 8.15411 133.013 8.17417C133.015 8.18205 133.063 8.19351 133.091 8.19423C133.154 8.19566 133.222 8.18563 133.283 8.19065C133.343 8.19566 133.405 8.20999 133.448 8.22575C133.538 8.2587 133.639 8.22933 133.725 8.23793C133.814 8.24724 133.888 8.2759 133.973 8.29309C133.995 8.29739 134.037 8.29022 134.071 8.28807C134.168 8.28305 134.265 8.27876 134.363 8.27374C134.444 8.29452 134.532 8.31314 134.605 8.33678C134.739 8.37977 134.882 8.39624 135.055 8.37546C135.152 8.364 135.248 8.3683 135.325 8.39624C135.405 8.42489 135.496 8.42203 135.597 8.4163C135.691 8.41057 135.786 8.39481 135.882 8.41486C136.089 8.45928 136.091 8.46143 136.335 8.44424C136.409 8.43922 136.464 8.43779 136.52 8.45427C136.572 8.46931 136.627 8.4822 136.681 8.49653C136.778 8.49151 136.878 8.4865 136.975 8.48077C137.1 8.47289 137.17 8.48292 137.2 8.52303C137.218 8.54739 137.226 8.5696 137.269 8.58607C137.321 8.60613 137.377 8.60541 137.452 8.59968C137.524 8.59466 137.576 8.58679 137.605 8.561C137.617 8.55026 137.641 8.54023 137.663 8.53163C137.681 8.52518 137.709 8.51516 137.725 8.51659C137.755 8.51945 137.794 8.52733 137.804 8.53664C137.902 8.62332 137.902 8.62404 138.001 8.64911C138.11 8.67705 138.224 8.70212 138.323 8.73364C138.413 8.76157 138.502 8.7494 138.599 8.7494C138.673 8.7494 138.721 8.76803 138.715 8.78665C138.711 8.7974 138.683 8.81315 138.659 8.81458C138.464 8.82891 138.267 8.84109 138.071 8.85112C138.047 8.85255 138.017 8.83966 137.989 8.83321C137.933 8.82032 137.884 8.80026 137.824 8.79596C137.764 8.79166 137.695 8.80241 137.629 8.80599C137.564 8.80957 137.494 8.81889 137.434 8.81316C137.375 8.80743 137.327 8.78665 137.271 8.77304C137.246 8.76659 137.21 8.75728 137.188 8.75943C137.043 8.77663 136.935 8.75298 136.832 8.72146C136.81 8.71502 136.772 8.71072 136.745 8.71215C136.514 8.72433 136.285 8.73865 136.055 8.75226C135.961 8.75799 135.886 8.73292 135.866 8.69066C135.856 8.66702 135.836 8.64338 135.836 8.61974C135.836 8.57676 135.727 8.55312 135.647 8.55813C135.516 8.5653 135.383 8.57103 135.254 8.58177C135.148 8.59037 135.059 8.58177 134.987 8.55598C134.904 8.52661 134.808 8.53235 134.713 8.54023C134.641 8.54596 134.621 8.56959 134.625 8.62905C134.629 8.67705 134.595 8.69209 134.466 8.69997C134.303 8.71 134.138 8.72003 133.973 8.72791C133.947 8.72934 133.918 8.71716 133.892 8.71072C133.836 8.69782 133.786 8.67705 133.727 8.67275C133.667 8.66773 133.597 8.67848 133.532 8.68278C133.466 8.68636 133.397 8.69639 133.337 8.69137C133.277 8.68636 133.228 8.66487 133.174 8.65126C133.148 8.64482 133.116 8.6355 133.091 8.63693C132.959 8.64266 132.828 8.65126 132.697 8.65914C132.55 8.66774 132.55 8.66774 132.341 8.62332C132.246 8.60327 132.15 8.61903 132.057 8.62476C131.957 8.63049 131.864 8.63335 131.786 8.6047C131.735 8.58607 131.677 8.57461 131.615 8.57819C131.45 8.58679 131.287 8.59754 131.122 8.60613C131.095 8.60757 131.057 8.60398 131.035 8.59754C130.93 8.56745 130.826 8.54381 130.679 8.55885C130.552 8.57175 130.415 8.57246 130.287 8.58464C130.218 8.59109 130.186 8.61401 130.2 8.63192C130.208 8.64123 130.25 8.65198 130.277 8.65198C130.341 8.6527 130.411 8.64195 130.47 8.64624C130.594 8.65484 130.655 8.71501 130.816 8.69854C130.912 8.68851 131.011 8.68493 131.11 8.68206C131.136 8.68134 131.164 8.69496 131.192 8.70212C131.271 8.72146 131.341 8.74653 131.456 8.73364C131.552 8.72361 131.653 8.72075 131.751 8.71502C131.906 8.70571 131.906 8.70642 132.106 8.75012C132.202 8.77089 132.297 8.75442 132.391 8.7494C132.46 8.74582 132.526 8.73866 132.582 8.74869C132.667 8.76373 132.729 8.79811 132.834 8.79596C132.933 8.79381 133.031 8.78378 133.13 8.7802C133.192 8.77805 133.25 8.78952 133.299 8.80886C133.351 8.8282 133.407 8.83679 133.474 8.83249C133.572 8.82676 133.671 8.8196 133.77 8.81602C133.798 8.8153 133.83 8.82175 133.856 8.82748C133.912 8.84038 133.965 8.85542 134.019 8.86903C134.116 8.86473 134.216 8.8633 134.311 8.8547C134.385 8.84826 134.436 8.85112 134.496 8.86545C134.572 8.88479 134.633 8.91918 134.757 8.9027C134.818 8.89482 134.89 8.89697 134.951 8.8898C135.027 8.88049 135.079 8.88407 135.132 8.90556C135.234 8.94639 135.361 8.94711 135.492 8.93135C135.635 8.91416 135.743 8.93422 135.85 8.96574C135.963 8.99869 135.963 8.99797 136.051 9.07749C136.077 9.10041 136.15 9.11116 136.212 9.10686C136.315 9.0997 136.405 9.10328 136.48 9.1305C136.56 9.15987 136.655 9.15629 136.752 9.14841C136.882 9.13766 137.011 9.12835 137.116 9.1699C137.168 9.18996 137.224 9.19497 137.293 9.18995C137.49 9.17706 137.689 9.16919 137.882 9.15343C137.999 9.1434 138.067 9.16632 138.146 9.18566C138.253 9.21216 138.371 9.2358 138.371 9.29239C138.371 9.30171 138.399 9.31245 138.422 9.31962C138.474 9.33466 138.53 9.34755 138.584 9.36188C138.663 9.38337 138.741 9.40128 138.85 9.38982C138.945 9.3805 139.047 9.37764 139.144 9.37119C139.242 9.36474 139.331 9.36116 139.419 9.38838C139.52 9.41918 139.627 9.44856 139.743 9.47148C139.824 9.48796 139.931 9.46002 140.019 9.48223C140.073 9.49584 140.124 9.51159 140.182 9.52306C140.206 9.52807 140.244 9.52449 140.275 9.52306C140.341 9.52019 140.409 9.51805 140.472 9.51088C140.546 9.503 140.601 9.50444 140.657 9.52091C140.709 9.53596 140.76 9.55673 140.82 9.56102C140.91 9.56747 141.009 9.53882 141.098 9.57177C141.144 9.58825 141.202 9.60401 141.261 9.60902C141.321 9.61404 141.391 9.60329 141.454 9.604C141.482 9.604 141.516 9.61547 141.532 9.62478C141.542 9.6298 141.528 9.64341 141.514 9.65057C141.496 9.65916 141.47 9.67063 141.444 9.67206C141.248 9.68496 141.051 9.6957 140.854 9.70788C140.737 9.71504 140.737 9.71504 140.5 9.66991C140.444 9.65917 140.383 9.66131 140.313 9.66633C140.22 9.67277 140.124 9.68496 140.027 9.67206C139.9 9.62335 139.743 9.61905 139.576 9.63767C139.506 9.64555 139.442 9.64555 139.391 9.63194C139.281 9.60472 139.166 9.57965 139.069 9.54742C138.993 9.52235 138.957 9.5202 138.925 9.55458C138.916 9.56533 138.906 9.57678 138.908 9.58681C138.919 9.62263 138.941 9.65773 138.953 9.69355C138.957 9.70358 138.941 9.71504 138.931 9.72579C138.9 9.75588 138.858 9.75372 138.788 9.72865C138.719 9.70358 138.635 9.68711 138.524 9.69857C138.428 9.7086 138.325 9.70716 138.23 9.71791C138.083 9.73367 137.979 9.71074 137.874 9.67994C137.852 9.67349 137.814 9.66991 137.786 9.67135C137.49 9.68782 137.196 9.70644 136.9 9.72292C136.836 9.7265 136.778 9.71576 136.729 9.69642C136.677 9.67707 136.619 9.66705 136.556 9.67063C136.293 9.68567 136.031 9.69929 135.768 9.71791C135.661 9.72579 135.576 9.71647 135.502 9.6914C135.446 9.67277 135.395 9.66705 135.325 9.66919C135.25 9.67134 135.196 9.67851 135.158 9.69928C135.122 9.71934 135.148 9.73151 135.228 9.74727C135.313 9.76447 135.393 9.78668 135.474 9.80674C135.54 9.80387 135.605 9.79813 135.669 9.79885C135.697 9.79885 135.723 9.81175 135.751 9.81891C135.83 9.83968 135.904 9.86046 136.017 9.849C136.112 9.83897 136.214 9.83682 136.311 9.83037C136.446 9.82249 136.446 9.82249 136.665 9.86763C136.721 9.87909 136.78 9.87837 136.852 9.87192C136.914 9.8669 136.977 9.87693 137.021 9.89842C137.039 9.90702 137.033 9.92135 136.995 9.96863C136.995 10.0037 137.037 9.98797 137.051 9.96505C137.073 9.9321 137.031 9.92135 136.951 9.93926C136.896 9.95215 136.868 9.97078 136.882 9.98582C136.89 9.9937 136.927 10.0037 136.995 9.96863C137.17 9.92565 137.303 9.92063 137.43 9.90917C137.506 9.90272 137.554 9.90559 137.613 9.92421C137.685 9.94642 137.756 9.97006 137.874 9.9586C138.001 9.94571 138.136 9.94427 138.265 9.93352C138.385 9.92349 138.446 9.95502 138.522 9.97364C138.613 9.99585 138.715 9.97078 138.798 9.98367C138.886 9.99657 138.947 10.0281 139.049 10.0338C139.196 10.0145 139.289 10.0503 139.401 10.0739C139.488 10.0918 139.591 10.0761 139.685 10.0682C139.79 10.0596 139.878 10.0675 139.951 10.0933C140.035 10.1226 140.128 10.1162 140.224 10.1098C140.446 10.0954 140.454 10.0933 140.583 10.1327C140.677 10.1613 140.766 10.1484 140.86 10.1449C140.941 10.1642 141.021 10.185 141.106 10.2022C141.128 10.2065 141.17 10.1993 141.204 10.1971C141.301 10.1914 141.401 10.1857 141.498 10.18C141.564 10.1764 141.633 10.1656 141.693 10.1699C141.752 10.1749 141.802 10.1957 141.856 10.2093C141.91 10.2229 141.965 10.2365 142.017 10.2509C142.096 10.2724 142.172 10.2903 142.283 10.2795C142.379 10.2702 142.478 10.2673 142.578 10.2609C142.703 10.253 142.699 10.2552 142.931 10.2982C143.057 10.3218 143.186 10.2931 143.313 10.2903C143.377 10.2888 143.438 10.2967 143.482 10.3175C143.5 10.3261 143.494 10.3404 143.5 10.3526C143.172 10.3719 142.842 10.3884 142.518 10.412C142.393 10.4214 142.327 10.3956 142.259 10.3741C142.148 10.3397 142.001 10.3898 141.896 10.3454C141.832 10.3189 141.741 10.3039 141.631 10.3168C141.568 10.3239 141.5 10.3232 141.434 10.3297C141.267 10.3454 141.114 10.3461 140.981 10.2967C140.935 10.2795 140.87 10.2702 140.822 10.2537C140.766 10.2358 140.713 10.2258 140.647 10.2294C140.351 10.2466 140.057 10.2638 139.762 10.2824C139.737 10.2838 139.711 10.2946 139.689 10.3024C139.633 10.3225 139.651 10.3383 139.741 10.3512C139.77 10.3555 139.794 10.3648 139.822 10.3719C139.876 10.3855 139.925 10.407 139.985 10.412C140.045 10.4171 140.114 10.407 140.18 10.4035C140.246 10.3999 140.315 10.3891 140.375 10.3934C140.434 10.3984 140.484 10.4192 140.54 10.4321C140.566 10.4386 140.597 10.4493 140.623 10.4486C140.754 10.4443 140.884 10.4364 141.015 10.43C141.096 10.4493 141.166 10.4772 141.263 10.4837C141.325 10.488 141.391 10.4801 141.454 10.4815C141.482 10.4823 141.518 10.493 141.532 10.5023C141.54 10.508 141.514 10.5224 141.494 10.5295C141.418 10.5568 141.315 10.5517 141.222 10.5603C141.12 10.5696 141.029 10.5668 140.951 10.5388C140.9 10.5202 140.842 10.5102 140.778 10.5138C140.613 10.5231 140.45 10.5338 140.285 10.5417C140.257 10.5431 140.224 10.5367 140.198 10.5317C139.989 10.488 139.989 10.4866 139.842 10.4959C139.625 10.5095 139.625 10.5095 139.48 10.4715C139.452 10.4643 139.422 10.4507 139.399 10.4515C139.168 10.4629 138.939 10.4744 138.711 10.4908C138.635 10.4959 138.584 10.4959 138.528 10.4772C138.48 10.4615 138.424 10.4436 138.365 10.4393C138.303 10.435 138.236 10.4457 138.17 10.4493C138.104 10.4529 138.035 10.4622 137.977 10.4565C137.918 10.4507 137.866 10.4307 137.814 10.4164C137.76 10.4013 137.703 10.402 137.629 10.4077C137.403 10.4242 137.401 10.4221 137.176 10.3777C137.15 10.3727 137.116 10.3669 137.089 10.3684C136.924 10.3769 136.76 10.3877 136.595 10.3963C136.532 10.3999 136.47 10.3906 136.426 10.3698C136.409 10.3612 136.415 10.3469 136.403 10.3189C136.389 10.3125 136.405 10.3239 136.409 10.3347C136.438 10.3333 136.474 10.3347 136.496 10.329C136.552 10.3153 136.58 10.2974 136.566 10.2824C136.558 10.2745 136.52 10.2645 136.496 10.2645C136.452 10.2645 136.415 10.2802 136.403 10.3189C136.277 10.3426 136.144 10.3476 136.015 10.359C135.939 10.3662 135.892 10.3626 135.832 10.344C135.76 10.3211 135.687 10.2989 135.57 10.3103C135.442 10.3232 135.307 10.3254 135.176 10.3354C135.025 10.3469 134.959 10.2824 134.832 10.2838C134.701 10.2853 134.57 10.2974 134.438 10.306C134.323 10.3132 134.323 10.3132 134.085 10.2666C133.997 10.2494 133.894 10.2745 133.808 10.2566C133.751 10.2451 133.701 10.2279 133.645 10.2158C133.621 10.2108 133.584 10.2108 133.554 10.2122C133.389 10.2208 133.222 10.2265 133.063 10.2423C132.882 10.2609 132.745 10.2408 132.615 10.1986C132.452 10.2065 132.287 10.2108 132.126 10.2244C132.009 10.2344 131.941 10.2108 131.862 10.1914C131.834 10.185 131.81 10.1742 131.78 10.1714C131.751 10.1685 131.715 10.1742 131.683 10.1764C131.552 10.1842 131.417 10.1878 131.289 10.2007C131.132 10.2172 131.073 10.1585 130.951 10.1513C130.87 10.1864 130.826 10.2344 130.665 10.238C130.534 10.2408 130.403 10.2523 130.271 10.2602C130.206 10.2638 130.14 10.2681 130.075 10.2716C129.969 10.2781 129.92 10.306 129.941 10.349C129.953 10.3727 129.963 10.3963 129.973 10.4199C129.993 10.4622 129.943 10.498 129.86 10.503C129.629 10.5166 129.401 10.531 129.17 10.5431C129.108 10.5467 129.049 10.5345 128.999 10.5152C128.947 10.4959 128.89 10.4873 128.826 10.4908C128.596 10.5045 128.367 10.5188 128.136 10.531C128.11 10.5324 128.077 10.5252 128.051 10.5195C127.995 10.5066 127.941 10.4916 127.888 10.478C127.757 10.4844 127.627 10.4887 127.498 10.4973C127.289 10.5102 127.289 10.5109 127.136 10.4715C127.108 10.4643 127.081 10.4507 127.055 10.4515C126.955 10.4543 126.858 10.4615 126.759 10.4679C126.466 10.4866 126.466 10.4865 126.381 10.4651C126.303 10.445 126.234 10.4206 126.116 10.4321C125.989 10.445 125.854 10.4493 125.723 10.4565C125.625 10.4615 125.528 10.4672 125.431 10.4686C125.405 10.4694 125.377 10.4557 125.349 10.4486C125.27 10.4264 125.192 10.4085 125.083 10.4206C125.019 10.4278 124.951 10.4292 124.886 10.4328C124.715 10.4429 124.715 10.4428 124.434 10.3999C124.407 10.3956 124.373 10.3906 124.345 10.3927C124.114 10.4056 123.886 10.4199 123.655 10.4321C123.627 10.4335 123.594 10.4292 123.566 10.4257C123.252 10.3841 123.252 10.3841 122.918 10.4042C122.79 10.4113 122.786 10.4142 122.653 10.3762C122.594 10.3598 122.544 10.3519 122.474 10.3569C122.212 10.3741 121.947 10.3855 121.687 10.4056C121.57 10.4142 121.502 10.3927 121.423 10.3734C121.395 10.3669 121.365 10.3526 121.341 10.3533C121.079 10.3669 120.816 10.3834 120.554 10.397C120.53 10.3984 120.5 10.3841 120.472 10.3777C120.419 10.3648 120.367 10.3454 120.307 10.3411C120.246 10.3368 120.178 10.3476 120.11 10.3512C119.945 10.3605 119.945 10.3598 119.755 10.3175C119.729 10.3118 119.695 10.3039 119.669 10.3053C119.407 10.3196 119.142 10.3318 118.882 10.3526C118.733 10.3641 118.631 10.3433 118.526 10.3132C118.504 10.3067 118.466 10.3039 118.439 10.3053C118.142 10.3218 117.848 10.3404 117.552 10.3569C117.49 10.3605 117.431 10.3483 117.381 10.3297C117.301 10.3003 117.208 10.3039 117.109 10.3103C116.88 10.3254 116.878 10.3247 116.743 10.2903C116.715 10.2831 116.691 10.2738 116.661 10.2702C116.633 10.2666 116.598 10.2688 116.568 10.2702C116.437 10.2774 116.305 10.2853 116.174 10.2931C116.043 10.301 115.91 10.3053 115.78 10.3175C115.621 10.3325 115.546 10.286 115.435 10.2645C115.272 10.2738 115.105 10.2795 114.944 10.2946C114.82 10.306 114.763 10.2745 114.681 10.258C114.653 10.2523 114.623 10.2401 114.598 10.2416C114.301 10.2573 114.005 10.2745 113.711 10.2939C113.639 10.2981 113.592 10.2924 113.532 10.2752C113.399 10.2365 113.393 10.238 113.17 10.2523C113.073 10.2588 112.979 10.2645 112.896 10.2351C112.822 10.2086 112.733 10.2022 112.627 10.2108C112.498 10.2215 112.365 10.2272 112.234 10.2344C112.103 10.2423 111.971 10.253 111.84 10.2566C111.735 10.2602 111.671 10.2265 111.588 10.2093C111.562 10.2043 111.526 10.2036 111.496 10.205C111.365 10.2115 111.23 10.2165 111.103 10.2287C110.948 10.2437 110.862 10.2043 110.753 10.1814C110.729 10.1764 110.689 10.1792 110.659 10.1814C110.429 10.1943 110.2 10.2086 109.969 10.2222C109.888 10.2029 109.804 10.1843 109.723 10.1649C109.592 10.1721 109.46 10.18 109.329 10.1871C109.23 10.1928 109.128 10.195 109.035 10.2057C108.914 10.2201 108.854 10.1864 108.773 10.1699C108.745 10.1642 108.715 10.152 108.689 10.1534C108.524 10.1613 108.359 10.1699 108.196 10.1821C108.041 10.1943 107.979 10.1298 107.852 10.1305C107.721 10.1312 107.586 10.1406 107.458 10.1534C107.311 10.1685 107.208 10.1456 107.103 10.1148C107.081 10.1083 107.043 10.1047 107.015 10.1062C106.85 10.1148 106.687 10.1255 106.522 10.1341C106.494 10.1355 106.461 10.132 106.433 10.1277C106.119 10.0854 106.119 10.0847 105.981 10.0933C105.884 10.099 105.785 10.1062 105.685 10.1098C105.657 10.1112 105.623 10.1047 105.598 10.099C105.391 10.0553 105.391 10.0546 105.242 10.0632C105.111 10.0711 104.979 10.0789 104.848 10.0868C104.767 10.0675 104.683 10.0489 104.602 10.0295C104.439 10.0388 104.272 10.046 104.111 10.0589C104.035 10.0646 103.985 10.0625 103.928 10.0446C103.856 10.0231 103.785 9.998 103.665 10.0102C103.538 10.0231 103.403 10.0245 103.274 10.0352C103.119 10.0481 103.055 9.98296 102.93 9.98367C102.798 9.98439 102.663 9.9937 102.536 10.0066C102.389 10.0216 102.286 9.99872 102.18 9.96792C102.158 9.96147 102.121 9.95789 102.093 9.95932C101.731 9.98009 101.371 10.0009 101.009 10.0231C100.787 10.0367 100.787 10.0374 100.363 9.998C100.333 9.99513 100.301 9.99227 100.272 9.9937C100.14 10.0002 100.005 10.0052 99.878 10.0173C99.7229 10.0324 99.6374 9.9937 99.5281 9.97006C99.5042 9.96504 99.4665 9.96791 99.4347 9.96934C99.3353 9.97436 99.2379 9.98081 99.1385 9.98654C99.0072 9.99442 98.876 10.0023 98.7448 10.0102C98.6633 9.99155 98.5798 9.97221 98.4983 9.95358C98.3353 9.9629 98.1683 9.96791 98.0073 9.98296C97.884 9.99442 97.8263 9.96433 97.7448 9.94714C97.717 9.94141 97.6872 9.92923 97.6613 9.92995C97.3651 9.94571 97.0689 9.96218 96.7747 9.98224C96.6534 9.99084 96.5977 9.9586 96.5162 9.94212C96.4884 9.93711 96.4566 9.9278 96.4307 9.92923C96.2339 9.93926 96.0371 9.95144 95.8403 9.96361C95.729 9.97078 95.729 9.97078 95.4864 9.92636C95.4586 9.92135 95.4268 9.91633 95.399 9.91777C94.7747 9.95358 94.1524 9.99155 93.5282 10.0274C93.4645 10.031 93.4069 10.0202 93.3572 10.0009C93.3055 9.98152 93.2478 9.9715 93.1842 9.97508C92.9218 9.99012 92.6574 10.0037 92.397 10.0224C92.2896 10.0302 92.2041 10.0209 92.1306 9.99585C92.0749 9.97722 92.0232 9.97006 91.9536 9.97436C91.8224 9.98296 91.6912 9.99012 91.56 9.998C91.4288 10.0059 91.2976 10.0138 91.1664 10.0216C91.0352 10.0295 90.902 10.0338 90.7727 10.046C90.6137 10.061 90.5362 10.0166 90.4268 9.99442C90.23 10.0052 90.0331 10.0159 89.8383 10.0274C89.5759 10.0424 89.3135 10.0589 89.0511 10.0732C89.0272 10.0747 88.9974 10.0618 88.9696 10.0553C88.888 10.0374 88.8284 10.0123 88.7071 10.0202C88.1187 10.0582 87.5262 10.0904 86.9358 10.1277C86.8125 10.1355 86.7588 10.1047 86.6753 10.0883C86.6475 10.0832 86.6157 10.0732 86.5899 10.0747C86.2618 10.0926 85.9338 10.1126 85.6058 10.132C85.4726 10.1398 85.4726 10.1398 85.2499 10.0954C85.2241 10.0904 85.1902 10.084 85.1624 10.0854C84.735 10.1097 84.3095 10.1355 83.8821 10.1606C83.8185 10.1642 83.7609 10.1542 83.7092 10.1348C83.6595 10.1155 83.5998 10.1047 83.5382 10.1083C83.1445 10.1312 82.7489 10.1534 82.3573 10.1785C82.2519 10.1857 82.1644 10.1792 82.0889 10.1534C82.0352 10.1348 81.9815 10.1269 81.9139 10.1312C81.3235 10.1663 80.733 10.2 80.1426 10.2373C80.0292 10.2444 79.9497 10.2308 79.8782 10.2072C79.8205 10.1885 79.7708 10.185 79.6992 10.1878C79.6237 10.1914 79.578 10.1993 79.5362 10.2208C79.4826 10.2487 79.4487 10.2838 79.3215 10.286C79.1903 10.2881 79.0571 10.2967 78.9279 10.3089C78.8046 10.3211 78.747 10.2888 78.6694 10.2695C78.6118 10.2559 78.5581 10.2537 78.4845 10.2602C78.417 10.2659 78.3752 10.2781 78.3354 10.301C78.248 10.3497 78.24 10.3497 78.1327 10.3189C78.075 10.3024 78.0233 10.2896 77.9597 10.2924C77.6972 10.3067 77.4348 10.3225 77.1724 10.339C77.0213 10.3483 77.0194 10.3497 76.906 10.3139C76.8504 10.296 76.7967 10.2874 76.7311 10.2917C76.0094 10.3347 75.2878 10.3762 74.5661 10.4214C74.4548 10.4285 74.3792 10.4135 74.2997 10.392C74.2738 10.3848 74.248 10.3748 74.2182 10.3719C74.1884 10.3691 74.1546 10.3719 74.1228 10.3734C73.5979 10.4042 73.071 10.4335 72.5482 10.4679C72.4289 10.4758 72.3653 10.4529 72.2838 10.4343C72.256 10.4278 72.2321 10.4178 72.2023 10.4149C72.1724 10.4128 72.1367 10.4178 72.1049 10.4199C71.58 10.4507 71.0532 10.4801 70.5303 10.5145C70.4051 10.5224 70.3514 10.4923 70.2699 10.4765C70.242 10.4708 70.2122 10.46 70.1864 10.4615C70.0214 10.4694 69.8584 10.4801 69.6934 10.4894C69.2997 10.5131 68.9061 10.5353 68.5124 10.5596C68.3613 10.5689 68.2957 10.5052 68.1685 10.508C68.0035 10.5116 67.8405 10.5259 67.6755 10.536C67.5442 10.5439 67.413 10.551 67.2818 10.5596C67.1526 10.5675 67.1526 10.5675 66.8305 10.5259C66.8027 10.5224 66.7689 10.5174 66.7411 10.5188C66.2818 10.5453 65.8206 10.5718 65.3634 10.6005C65.258 10.6069 65.1705 10.6033 65.095 10.5768C65.0413 10.5582 64.9856 10.5489 64.92 10.5532C64.2302 10.594 63.5423 10.6348 62.8524 10.675C62.8266 10.6764 62.7928 10.6692 62.767 10.6635C62.7113 10.6506 62.6576 10.6356 62.6039 10.6219C62.5642 10.6384 62.5125 10.6535 62.4867 10.6721C62.4509 10.6972 62.4031 10.7043 62.3276 10.7086C62.2521 10.7129 62.2044 10.7115 62.1447 10.6929C62.0731 10.6699 61.9996 10.652 61.8823 10.6592C61.1606 10.7043 60.4389 10.7452 59.7173 10.7896C59.598 10.7967 59.5423 10.7652 59.4588 10.7487C59.431 10.7437 59.3992 10.7358 59.3733 10.7373C59.0771 10.7538 58.7829 10.7717 58.4867 10.7889C57.6656 10.8376 56.8445 10.8841 56.0255 10.9357C55.8764 10.945 55.775 10.9271 55.6696 10.8963C55.6477 10.8899 55.61 10.8863 55.5821 10.8877C54.433 10.955 53.2839 11.0231 52.1368 11.0911C52.0752 11.0947 52.0155 11.0833 51.9658 11.0646C51.9141 11.0453 51.8565 11.036 51.7929 11.0396C51.268 11.0704 50.7432 11.1012 50.2184 11.1327C50.0871 11.1406 50.0851 11.1413 49.9499 11.1069C49.9221 11.0997 49.8923 11.0861 49.8704 11.0876C49.8247 11.0912 49.781 11.1091 49.7492 11.1334C49.7173 11.1592 49.6676 11.1664 49.5941 11.1714C49.5185 11.1764 49.4688 11.1742 49.4112 11.1571C49.3376 11.1356 49.27 11.1148 49.1507 11.122C47.6418 11.2136 46.1329 11.3018 44.6239 11.3927C44.5027 11.3999 44.447 11.3698 44.3635 11.3533C44.3357 11.3483 44.3078 11.3412 44.278 11.3397C44.2462 11.3383 44.2124 11.3426 44.1806 11.3447C41.7194 11.4902 39.2582 11.6363 36.797 11.7817C36.6499 11.7903 36.6518 11.7903 36.4908 11.8562C36.4709 11.8641 36.4451 11.8748 36.4172 11.8763C35.6638 11.9221 34.9083 11.9665 34.1529 12.0109C33.8248 12.0303 33.4968 12.0503 33.1688 12.069C33.0515 12.0754 33.0515 12.0754 32.7712 12.1528C32.7473 12.1592 32.7194 12.1678 32.6916 12.1693C31.3795 12.2473 30.0674 12.3254 28.7533 12.4021C28.6499 12.4078 28.5664 12.4207 28.5187 12.4551C28.4849 12.4794 28.4411 12.4938 28.3755 12.4981C27.4571 12.5525 26.5386 12.6077 25.6181 12.6607C25.5088 12.6671 25.4432 12.6872 25.3895 12.7173C25.3716 12.7273 25.3557 12.7388 25.3298 12.7459C25.306 12.7524 25.2702 12.7545 25.2404 12.7567C24.4531 12.8032 23.6659 12.8512 22.8766 12.8956C22.7593 12.9021 22.7116 12.9286 22.6539 12.9565C22.634 12.9658 22.6201 12.9787 22.5943 12.9852C22.5684 12.9909 22.5306 12.9909 22.4988 12.9923C21.8428 13.031 21.1867 13.0704 20.5307 13.1091C20.4034 13.1055 20.3756 13.1471 20.314 13.1722C20.2921 13.1807 20.2762 13.1922 20.2504 13.1979C20.2225 13.2037 20.1867 13.203 20.1529 13.2044C19.6281 13.2352 19.1032 13.2681 18.5764 13.2968C18.4551 13.3032 18.4313 13.3398 18.3657 13.3648C18.3438 13.3727 18.3219 13.3849 18.2961 13.3871C17.9681 13.4078 17.6401 13.4272 17.312 13.4458C17.2027 13.4522 17.2027 13.4515 17.0098 13.5224C16.988 13.5303 16.9621 13.5389 16.9343 13.5411C16.4432 13.5712 15.9502 13.5998 15.4571 13.6292C15.3935 13.6328 15.3498 13.65 15.318 13.6743C15.2862 13.6987 15.2405 13.7144 15.1768 13.718C14.7832 13.7416 14.3895 13.766 13.9959 13.7875C13.8866 13.7932 13.815 13.8111 13.7673 13.8434C13.7315 13.8677 13.6878 13.8799 13.6182 13.8842C13.2246 13.9071 12.8309 13.9322 12.4353 13.9523C12.32 13.958 12.2603 13.9823 12.2126 14.0124C12.1749 14.0368 12.1311 14.0454 12.0576 14.0497C11.3359 14.0912 10.6123 14.1328 9.89258 14.1786C9.77131 14.1865 9.70966 14.1614 9.63014 14.1435C9.51682 14.1184 9.41148 14.0912 9.41148 14.0353C9.41148 14.0268 9.37768 14.0167 9.35382 14.0096C9.17688 13.9558 9.17688 13.9558 9.14905 13.8985C9.13314 13.8634 9.11525 13.8276 9.10133 13.7918C9.07549 13.7331 9.01185 13.718 8.82895 13.7288C8.76334 13.7323 8.69774 13.7373 8.63213 13.7402C8.53472 13.7452 8.46117 13.7216 8.44327 13.6786C8.43333 13.655 8.42142 13.6313 8.41148 13.6077C8.51089 13.602 8.50887 13.6012 8.68382 13.5146C8.75738 13.478 8.75741 13.478 8.61626 13.4415C8.56258 13.4279 8.51088 13.4128 8.45322 13.3999C8.42738 13.3942 8.39359 13.3906 8.36576 13.3921C8.20075 13.4007 8.03774 13.4107 7.87472 13.4207C7.61229 13.4365 7.61226 13.4365 7.34586 13.3634C7.32399 13.3577 7.2902 13.3469 7.29417 13.3412C7.31604 13.3147 7.36971 13.3032 7.43731 13.3004C7.53671 13.2961 7.63412 13.2889 7.73153 13.2832C7.79714 13.2796 7.86274 13.2753 7.92835 13.2717C7.98998 13.2445 8.05363 13.218 8.11128 13.1901C8.20274 13.1471 8.2027 13.1456 8.07745 13.1156C7.99793 13.0955 7.91245 13.0776 7.83094 13.059C7.73352 13.0647 7.63412 13.0711 7.53671 13.0762C7.41345 13.0826 7.36374 13.069 7.33193 13.0224C7.3041 12.9816 7.3379 12.9465 7.43333 12.9379C7.53074 12.9293 7.62223 12.9236 7.67193 12.887C7.71965 12.8519 7.80313 12.8383 7.90651 12.8355C7.97212 12.8333 8.03772 12.8283 8.10332 12.824C8.18881 12.8183 8.23455 12.7817 8.21666 12.7409C8.20672 12.7144 8.18683 12.6922 8.10929 12.6865C7.76536 12.6614 7.76136 12.6621 7.59039 12.6134C7.57449 12.6091 7.56258 12.5962 7.56855 12.5898C7.57849 12.579 7.60036 12.5633 7.62422 12.5611C7.85285 12.5453 8.08146 12.531 8.31009 12.5203C8.38564 12.5167 8.44131 12.5117 8.46715 12.4852C8.50294 12.4486 8.48704 12.415 8.41745 12.3899C8.39558 12.382 8.35977 12.372 8.33591 12.3727C8.07349 12.3856 7.81306 12.4021 7.55064 12.415C7.52678 12.4164 7.48307 12.4042 7.47313 12.3949C7.45325 12.3777 7.48305 12.3548 7.55263 12.3469C7.64408 12.3362 7.73752 12.3354 7.79915 12.2996C7.88463 12.2488 7.98999 12.2022 8.08541 12.1535C8.10132 12.1449 8.1272 12.1284 8.12123 12.127C8.07153 12.1112 8.01387 12.0991 7.96218 12.084C7.87471 12.0589 7.87469 12.0238 7.89457 11.9902C7.91047 11.963 7.97012 11.9522 8.04367 11.9522C8.07548 11.9522 8.11524 11.9522 8.14109 11.9458C8.20868 11.93 8.23055 11.9099 8.19676 11.8949C8.17688 11.8863 8.14111 11.8741 8.11725 11.8756C7.69181 11.8992 7.26435 11.9221 6.84089 11.9515C6.71564 11.9601 6.65803 11.9329 6.58248 11.9135C6.52483 11.8985 6.47112 11.8927 6.39955 11.9035C6.33195 11.9135 6.26637 11.9078 6.22462 11.8842C6.19082 11.8648 6.25045 11.8483 6.41149 11.8297C6.44131 11.8261 6.47509 11.824 6.49696 11.8168C6.72757 11.7394 6.72757 11.7387 6.88661 11.7287C7.04168 11.7194 7.04172 11.7187 7.12323 11.6771C7.161 11.6578 7.20272 11.6384 7.2385 11.6184C7.25242 11.6105 7.2763 11.5962 7.26835 11.5919C7.22461 11.5697 7.16495 11.5647 7.09537 11.5697C6.9403 11.5819 6.75742 11.5718 6.67591 11.6399C6.6441 11.6657 6.5944 11.6728 6.52283 11.6771C5.80315 11.7187 5.08345 11.7631 4.36179 11.8032C4.24449 11.8097 4.19084 11.8362 4.14512 11.8655C4.10536 11.8899 4.06161 11.897 3.98607 11.9013C3.91052 11.9056 3.85085 11.9078 3.80711 11.8842C3.78127 11.8698 3.80314 11.8498 3.86278 11.8297C3.94827 11.8011 3.93236 11.7652 3.90452 11.7316C3.88464 11.7094 3.82302 11.6936 3.75741 11.695C3.65999 11.6979 3.56658 11.7058 3.48507 11.6771C3.43736 11.6607 3.3777 11.6492 3.32403 11.6349C3.22065 11.6055 3.11726 11.5754 2.97214 11.5947C2.87273 11.5876 2.80315 11.5618 2.72363 11.5417C2.59043 11.5088 2.5785 11.5038 2.67393 11.4687C2.78128 11.4293 2.69777 11.3777 2.75741 11.339C2.82103 11.2975 2.90853 11.2609 2.98607 11.2222C3.00595 11.2122 3.02385 11.2029 3.04373 11.1929C2.998 11.1785 2.95626 11.1606 2.90258 11.1506C2.833 11.1377 2.79721 11.122 2.80119 11.0775C2.78727 11.0711 2.7932 11.0876 2.8091 11.0919C2.82699 11.0962 2.87076 11.0926 2.89263 11.0876C2.9483 11.074 2.9761 11.0561 2.96219 11.041C2.95423 11.0331 2.91649 11.0231 2.89263 11.0231C2.8489 11.0231 2.81113 11.0389 2.7992 11.0775C2.57654 11.1069 2.34589 11.1212 2.11527 11.1327C2.09142 11.1341 2.06161 11.1198 2.03378 11.1126C1.94233 11.0883 1.94232 11.089 1.67393 11.0818C1.6461 11.0811 1.60834 11.0711 1.59443 11.0611C1.53677 11.0174 1.53878 10.9694 1.51094 10.9228C1.56263 10.8927 1.61428 10.8634 1.66796 10.834C1.77531 10.7745 1.91451 10.7222 1.99801 10.657C1.98012 10.6219 1.95625 10.5868 2.04373 10.5582C2.29224 10.5224 2.29026 10.5224 2.35786 10.488C2.5507 10.3906 2.74154 10.2924 2.94234 10.1964C2.99601 10.1714 2.99602 10.1577 2.90059 10.147C2.87077 10.1441 2.83892 10.1434 2.80711 10.1449C2.70771 10.1499 2.60831 10.1628 2.51089 10.1599C2.41348 10.1577 2.34191 10.1262 2.26239 10.1069C2.18088 10.0868 2.09937 10.0661 2.01786 10.0453C1.92442 10.0474 1.831 10.0675 1.73756 10.0352C1.66599 10.0102 1.57653 9.99227 1.49502 9.97149C1.55665 9.91705 1.67198 9.8755 1.76144 9.82751C1.84295 9.78381 1.84489 9.78453 2.06358 9.75086C2.16696 9.7351 2.20275 9.65415 2.11527 9.63051C2.0099 9.60185 1.8986 9.57535 1.79124 9.54813C1.6978 9.55028 1.6024 9.56962 1.51293 9.53739C1.44335 9.51303 1.36381 9.49655 1.24851 9.50586C1.05368 9.52162 0.854876 9.5295 0.658059 9.5424C0.590465 9.5467 0.516885 9.54384 0.487064 9.51948C0.467184 9.50229 0.524841 9.47865 0.590447 9.47363C0.68985 9.46647 0.779303 9.45787 0.829005 9.42206C0.876718 9.38624 0.964183 9.37549 1.06756 9.37047C1.09539 9.36904 1.12723 9.36044 1.14114 9.35185C1.21271 9.3103 1.29224 9.27449 1.44532 9.27592C1.50894 9.26159 1.54272 9.24368 1.52283 9.22649C1.51091 9.21717 1.46918 9.205 1.44532 9.20643C1.28031 9.2136 1.11531 9.22076 0.954277 9.23366C0.878731 9.23939 0.821046 9.24081 0.773333 9.21932C0.739536 9.205 0.757427 9.18566 0.821045 9.16488C0.87671 9.14697 0.892632 9.1262 0.888656 9.10184C0.878716 9.04525 0.819062 9.02878 0.628209 9.03236C0.491033 9.03522 0.457234 9.02591 0.427413 8.9772C0.419461 8.96574 0.399615 8.94998 0.413532 8.9421C0.499018 8.89339 0.554687 8.83321 0.71572 8.81029C0.779338 8.80169 0.846905 8.80169 0.886666 8.78307C0.926427 8.76444 0.96223 8.74295 1.00398 8.72504C1.05567 8.70355 1.09142 8.6835 1.06756 8.66989C1.0278 8.64553 0.964204 8.64338 0.890646 8.65198C0.827028 8.65914 0.759436 8.65985 0.69383 8.66415C0.576535 8.67203 0.481129 8.65341 0.467213 8.62189C0.42944 8.53879 0.389667 8.45642 0.35587 8.37332C0.351894 8.36329 0.361807 8.35039 0.377712 8.34179C0.433377 8.31171 0.493042 8.28306 0.550696 8.25368C0.61829 8.22002 0.725662 8.22647 0.817113 8.22002C0.946337 8.21071 0.946292 8.21142 1.11925 8.14265C1.18685 8.11543 1.30415 8.12617 1.37373 8.10182C1.3956 8.09394 1.4294 8.08104 1.42343 8.07388C1.41548 8.06457 1.37574 8.0574 1.34592 8.0531C1.31809 8.04881 1.2843 8.04666 1.25448 8.04881C0.89265 8.06958 0.532821 8.09179 0.170994 8.11185C0.109365 8.11543 0.0417686 8.09967 0.0199 8.07747C-0.00196864 8.05669 0.00397612 8.03161 0 8.00797C0.0576537 7.9786 0.123234 7.95138 0.172936 7.91986C0.210709 7.89551 0.254454 7.88476 0.33 7.88333C0.429403 7.88118 0.526828 7.87258 0.638159 7.86614C0.844917 7.76155 1.04769 7.65195 1.27035 7.54736C1.35981 7.5051 1.33798 7.46211 1.35587 7.41698C1.37376 7.37544 1.50695 7.38189 1.59642 7.36971C1.66799 7.35968 1.69181 7.33675 1.66398 7.32099C1.64807 7.31168 1.61231 7.30094 1.58448 7.30094C1.51887 7.30094 1.45327 7.30738 1.38766 7.31096C1.32205 7.31455 1.24651 7.3124 1.19283 7.32458C1.14115 7.33604 1.10733 7.36039 1.07353 7.38117C1.03576 7.40409 0.986092 7.41197 0.910546 7.41341C0.813131 7.41484 0.715722 7.42128 0.618307 7.4263C0.510952 7.39836 0.399598 7.37114 0.296219 7.34177C0.276338 7.33604 0.272341 7.31957 0.274329 7.30882C0.278305 7.28088 0.248492 7.26369 0.182886 7.25008C0.12722 7.23862 0.0814909 7.22214 0.0298015 7.20781C0.0695626 7.18847 0.113315 7.16984 0.145124 7.14907C0.214706 7.10537 0.302191 7.07386 0.453283 7.07529C0.512925 7.04735 0.560624 7.01297 0.638159 6.99363C0.711717 6.975 0.83697 6.99362 0.892636 6.95136C0.920469 6.93058 0.962241 6.90694 1.01592 6.89835C1.10141 6.88474 1.21273 6.89191 1.26244 6.85179C1.29226 6.82887 1.33598 6.80809 1.39363 6.80236C1.45924 6.79591 1.52681 6.79448 1.57453 6.78087C1.60037 6.77371 1.62821 6.76225 1.62821 6.75222C1.62821 6.74577 1.58848 6.73574 1.56064 6.73144C1.5348 6.72643 1.50096 6.72285 1.47114 6.72428C1.37174 6.72858 1.27433 6.73645 1.17492 6.74075C1.14709 6.74219 1.11529 6.73717 1.08547 6.73287C0.997997 6.72141 1.00395 6.70709 1.07353 6.6813C1.14311 6.65623 1.19284 6.62398 1.2505 6.59461C1.31411 6.5896 1.39362 6.59175 1.43736 6.57814C1.51092 6.55593 1.5626 6.5237 1.62224 6.49576C1.68784 6.49146 1.75543 6.49003 1.81706 6.48215C1.84291 6.47929 1.85485 6.46352 1.87671 6.45421C1.91648 6.4363 1.9503 6.41052 2.00398 6.40192C2.09145 6.38903 2.19881 6.39404 2.25049 6.35464C2.28032 6.33172 2.32602 6.30736 2.38169 6.30593C2.53676 6.30307 2.60237 6.26366 2.68189 6.22641C2.74153 6.19847 2.86877 6.2128 2.93438 6.18486C2.97811 6.16696 3.00994 6.14474 3.05368 6.12755C3.07157 6.12039 3.10933 6.11681 3.13915 6.11466C3.30217 6.10392 3.46717 6.09603 3.6302 6.08457C3.65604 6.08242 3.67992 6.07168 3.6998 6.06309C3.74155 6.04446 3.76736 6.01867 3.81905 6.00649C3.87074 5.99432 3.94429 5.99432 4.00791 5.99074C4.21268 5.97999 4.2286 5.98285 4.32204 5.92196C4.39758 5.87253 4.58249 5.90764 4.64412 5.85319C4.67991 5.82167 4.74549 5.79589 4.86278 5.79231C5.02779 5.78729 5.19081 5.77368 5.35582 5.76437C5.50293 5.75577 5.50095 5.75577 5.65999 5.68915C5.73156 5.65906 5.83695 5.66336 5.93039 5.65763C6.02979 5.6519 6.12124 5.64331 6.16895 5.60749C6.21666 5.57239 6.30412 5.56092 6.40552 5.55591C6.49895 5.55089 6.60434 5.55448 6.6779 5.52582C6.85683 5.45706 6.85484 5.45633 6.98009 5.44917C7.17691 5.43771 7.37372 5.42625 7.57054 5.41407C7.70175 5.40619 7.83892 5.40476 7.96218 5.389C8.05164 5.37754 8.09139 5.33742 8.14905 5.30949C8.31207 5.29874 8.47508 5.28799 8.6381 5.27796C8.86673 5.26363 9.09734 5.25074 9.32795 5.23713C9.42735 5.20991 9.4413 5.14974 9.6083 5.14687C9.7077 5.14544 9.80511 5.13613 9.90452 5.1304C10.0695 5.12037 10.2325 5.10747 10.3976 5.10246C10.5228 5.09888 10.5446 5.06019 10.6102 5.03583C10.6321 5.02724 10.652 5.01506 10.6778 5.01292C10.9363 4.99286 11.2027 4.98856 11.4552 4.95919C11.481 4.95632 11.5049 4.94128 11.5108 4.93053C11.5148 4.9248 11.481 4.91406 11.4591 4.90905C11.4333 4.90332 11.3995 4.89759 11.3717 4.89902C10.5506 4.94701 9.72957 4.99573 8.9085 5.04372C8.79319 5.05089 8.79319 5.05017 8.51288 5.12896C8.48902 5.13541 8.46116 5.14257 8.43133 5.14472C8.30012 5.15332 8.16693 5.15834 8.0377 5.16908C7.93234 5.17768 7.84489 5.16908 7.76934 5.14329C7.71567 5.12466 7.65997 5.11894 7.59238 5.12037C7.51683 5.12252 7.46716 5.1304 7.42342 5.14974C7.36577 5.17625 7.33594 5.21063 7.21467 5.21779C6.65602 5.24859 6.09735 5.28298 5.54069 5.31593C5.46316 5.3059 5.42539 5.29086 5.44527 5.27295C5.4572 5.26221 5.48106 5.24788 5.50492 5.24645C5.73355 5.2314 5.96415 5.21851 6.19278 5.20418C6.22459 5.20203 6.26832 5.20346 6.28621 5.1963C6.37369 5.16406 6.40553 5.11177 6.57054 5.10819C6.66597 5.10604 6.76337 5.0953 6.85482 5.08527C6.88066 5.0824 6.90453 5.06736 6.91049 5.05661C6.91248 5.05088 6.88067 5.04013 6.85681 5.03512C6.76933 5.01434 6.66796 5.03942 6.58049 5.0251C6.55067 5.02008 6.50889 5.01292 6.50293 5.00432C6.49895 4.99644 6.53275 4.98354 6.55661 4.97566C6.57848 4.9685 6.60828 4.96206 6.6381 4.95991C6.90053 4.94343 7.16299 4.92624 7.42541 4.91334C7.53277 4.90833 7.6083 4.89042 7.65601 4.85746C7.6918 4.83311 7.73553 4.82022 7.80313 4.81664C8.26237 4.79013 8.7216 4.76076 9.18283 4.73641C9.29813 4.73067 9.3578 4.70704 9.40551 4.67623C9.44329 4.65188 9.48703 4.64328 9.56059 4.63898C10.2186 4.60173 10.8727 4.56019 11.5307 4.52437C11.652 4.51792 11.6878 4.48712 11.7494 4.46061C11.7713 4.4513 11.7852 4.43984 11.813 4.43411C11.8409 4.42838 11.8766 4.42909 11.9104 4.42765C12.4353 4.39685 12.9602 4.3639 13.487 4.33525C13.6103 4.3288 13.6341 4.29298 13.6977 4.26791C13.7196 4.26003 13.7395 4.24714 13.7653 4.24499C14.1589 4.22063 14.5526 4.19771 14.9462 4.17407C15.2086 4.15831 15.471 4.14255 15.7335 4.12751C15.8627 4.12034 15.8627 4.11962 16.0376 4.05157C16.0575 4.04369 16.0854 4.03438 16.1112 4.03223C16.8667 3.98638 17.6201 3.94269 18.3756 3.89756C18.4392 3.89398 18.4849 3.8775 18.5167 3.85314C18.5486 3.82878 18.5943 3.81231 18.656 3.80873C19.2464 3.77291 19.8368 3.73781 20.4293 3.70414C20.5366 3.69841 20.6122 3.68122 20.6599 3.64898C20.6957 3.62463 20.7394 3.61173 20.807 3.60815C21.3974 3.57377 21.9879 3.53723 22.5804 3.50428C22.6937 3.49783 22.7493 3.47348 22.805 3.44482C22.8249 3.43479 22.8408 3.41832 22.8647 3.41688C23.1589 3.39683 23.4511 3.37605 23.7473 3.36244C23.8706 3.35671 23.9124 3.32662 23.9621 3.29797C24.0018 3.27504 24.0476 3.26717 24.1231 3.2643C24.2881 3.25785 24.4511 3.24568 24.6122 3.2335C24.636 3.23135 24.6658 3.21559 24.6678 3.20556C24.6718 3.18694 24.6261 3.17404 24.5505 3.1676C23.7633 3.21416 22.974 3.26072 22.1867 3.30728C22.0575 3.31516 22.0575 3.31516 21.8826 3.38322C21.8627 3.3911 21.8348 3.40041 21.807 3.40256C21.0515 3.44769 20.2981 3.4921 19.5426 3.53723C19.479 3.54082 19.4333 3.55729 19.4015 3.58165C19.3697 3.606 19.3239 3.62248 19.2623 3.62606C18.5406 3.66904 17.819 3.71274 17.0953 3.75357C16.988 3.7593 16.9124 3.77577 16.8647 3.80873C16.8289 3.83308 16.7852 3.84598 16.7176 3.84956C16.0277 3.88968 15.3398 3.93194 14.648 3.97062C14.5784 3.9742 14.5268 3.95343 14.5307 3.93409C14.5327 3.92406 14.5625 3.90759 14.5864 3.90616C14.9462 3.88252 15.3041 3.85816 15.6659 3.84025C15.7872 3.83452 15.8229 3.803 15.8846 3.77649C15.9044 3.76718 15.9204 3.755 15.9462 3.74999C15.974 3.74426 16.0098 3.74498 16.0436 3.74354C16.8965 3.69268 17.7494 3.64111 18.6043 3.59311C18.7275 3.58595 18.7513 3.55084 18.815 3.52577C18.8368 3.51717 18.8567 3.50428 18.8826 3.50285C19.145 3.48566 19.4074 3.47061 19.6698 3.45557C20.1291 3.42835 20.5883 3.40113 21.0495 3.3739C21.1827 3.36602 21.1827 3.36602 21.3537 3.29868C21.3736 3.2908 21.4014 3.28078 21.4273 3.27935C22.642 3.207 23.8567 3.13465 25.0714 3.06301C25.135 3.05943 25.1808 3.04295 25.2126 3.0186C25.2444 2.99496 25.2901 2.97777 25.3517 2.97347C26.9939 2.87604 28.634 2.77862 30.2761 2.68262C30.3835 2.67618 30.459 2.66113 30.5067 2.62746C30.5405 2.60311 30.5863 2.59022 30.6538 2.58592C32.459 2.47918 34.2642 2.37245 36.0713 2.265C37.286 2.19336 38.5007 2.12029 39.7154 2.05009C39.8268 2.04364 39.8864 2.02143 39.942 1.99206C39.9599 1.98203 39.9778 1.96556 40.0017 1.96412C40.2621 1.94621 40.5226 1.92974 40.783 1.91326C40.8645 1.93261 40.946 1.95123 41.0275 1.97058C41.0892 1.94335 41.1488 1.91542 41.2105 1.88819C41.6041 1.86742 41.9917 1.83518 42.3894 1.82515C42.4152 1.82444 42.443 1.83805 42.4709 1.84521C42.6557 1.89034 42.7611 1.88676 42.8784 1.82659C42.9202 1.8051 42.9559 1.78576 43.0196 1.78218C43.2164 1.76928 43.4152 1.76068 43.6101 1.74564C43.7154 1.73776 43.8029 1.74492 43.8784 1.77071C43.9321 1.78934 43.9878 1.79722 44.0534 1.79292C44.4152 1.77143 44.775 1.75066 45.1369 1.72773C45.1627 1.7263 45.1865 1.71412 45.2064 1.70552C45.2482 1.6869 45.284 1.66684 45.3237 1.6475C45.3774 1.65968 45.4371 1.66899 45.4808 1.68475C45.5365 1.70338 45.5881 1.70337 45.6637 1.69836C47.107 1.61168 48.5523 1.52715 49.9957 1.43976C50.1189 1.43259 50.1726 1.46268 50.2561 1.47844C50.2839 1.48417 50.3118 1.49133 50.3416 1.49277C50.3734 1.4942 50.4072 1.48991 50.439 1.48776C51.5225 1.42328 52.606 1.35953 53.6895 1.29505C53.8326 1.28646 53.8326 1.28646 54.0454 1.33087C54.0712 1.3366 54.105 1.34305 54.1328 1.3409C54.6259 1.31296 55.1189 1.28288 55.6099 1.25423C55.6736 1.25064 55.7273 1.2621 55.7849 1.27858C55.8982 1.31081 55.9061 1.31082 55.9896 1.26354C56.0294 1.24133 56.0712 1.22771 56.1368 1.22127C56.2083 1.2141 56.266 1.21626 56.3217 1.22916C56.4012 1.24706 56.4589 1.27715 56.5801 1.26927C57.105 1.2356 57.6318 1.20766 58.1547 1.17328C58.2739 1.1654 58.3376 1.18975 58.4171 1.20766C58.4449 1.21411 58.4708 1.22414 58.5006 1.22629C58.5304 1.22844 58.5662 1.22342 58.598 1.22127C59.2541 1.18258 59.9121 1.14462 60.5662 1.10308C60.6894 1.0952 60.7431 1.12599 60.8266 1.14175C60.8544 1.14748 60.8862 1.15752 60.9121 1.15609C61.3057 1.13388 61.7014 1.11023 62.095 1.08659C62.2362 1.078 62.2361 1.07871 62.4508 1.12241C62.4767 1.12814 62.5105 1.13387 62.5383 1.13244C62.9976 1.10594 63.4588 1.07871 63.918 1.05149C64.0592 1.0429 64.0592 1.0429 64.4667 1.08015C64.4966 1.08301 64.5284 1.08732 64.5582 1.08588C65.083 1.05508 65.6099 1.02499 66.1347 0.992039C66.2401 0.985592 66.3276 0.991321 66.4031 1.01711C66.4568 1.03573 66.5124 1.04362 66.578 1.03932C67.1685 1.00422 67.761 0.970552 68.3494 0.933302C68.4628 0.926138 68.5363 0.941892 68.6158 0.962666C68.6416 0.969829 68.6675 0.97986 68.6973 0.982726C68.7272 0.985591 68.761 0.982724 68.7928 0.980575C69.3832 0.945473 69.9756 0.912523 70.5641 0.874556C70.6834 0.866676 70.747 0.891031 70.8265 0.90894C70.8544 0.915387 70.8842 0.928282 70.908 0.927565C71.1387 0.915387 71.3693 0.904646 71.5979 0.886737C71.7211 0.876708 71.7748 0.909655 71.8583 0.925414C71.8862 0.930429 71.918 0.941179 71.9438 0.939747C72.4368 0.911809 72.9299 0.882441 73.421 0.852354C73.4906 0.848056 73.5422 0.854497 73.5979 0.873122C73.6714 0.898194 73.7569 0.908224 73.8643 0.900344C74.0929 0.883868 74.3235 0.872409 74.5542 0.858799C74.6893 0.850919 74.6893 0.850921 75.1029 0.888171C75.1327 0.891037 75.1645 0.895332 75.1943 0.893899C75.5879 0.870976 75.9835 0.84877 76.3752 0.823698C76.4806 0.816535 76.5681 0.82298 76.6436 0.848769C76.6973 0.867394 76.7509 0.875278 76.8185 0.87098C77.1804 0.849489 77.5402 0.827997 77.9021 0.806506C78.0333 0.798626 78.1645 0.785012 78.2957 0.785012C78.3911 0.785729 78.4607 0.820112 78.5462 0.837305C78.57 0.842319 78.6098 0.836595 78.6416 0.835162C79.1009 0.807941 79.5621 0.782866 80.0193 0.752063C80.1386 0.744183 80.2022 0.768538 80.2818 0.786446C80.3096 0.792894 80.3394 0.805789 80.3633 0.805072C80.5283 0.797192 80.6913 0.786446 80.8563 0.777134C81.0531 0.765672 81.2519 0.757076 81.4467 0.741316C81.6058 0.728422 81.6654 0.790742 81.7927 0.792891C81.8901 0.79504 81.9895 0.782864 82.0869 0.777134C82.2837 0.765672 82.4805 0.752779 82.6773 0.74275C82.7469 0.739168 82.8006 0.727702 82.8225 0.701913C82.8265 0.696899 82.7927 0.686158 82.7708 0.679711C82.5064 0.606643 82.5064 0.60664 82.24 0.622399C82.075 0.632428 81.9119 0.642459 81.7469 0.651055C81.7191 0.652488 81.6873 0.646757 81.6595 0.642459C81.5799 0.630281 81.5879 0.615956 81.6555 0.590167C81.7231 0.564378 81.7747 0.532862 81.8324 0.503491C81.9139 0.522117 81.9935 0.540735 82.075 0.55936C82.1406 0.555778 82.2062 0.551487 82.2718 0.547905C82.5998 0.52928 82.9279 0.509937 83.2559 0.492744C83.2797 0.491312 83.3095 0.505641 83.3374 0.512804C83.4169 0.533578 83.4885 0.551482 83.6038 0.543602C83.898 0.522828 84.1942 0.507785 84.4885 0.489876C84.6177 0.481996 84.6177 0.481997 84.8443 0.526411C84.8702 0.531425 84.904 0.537156 84.9318 0.535724C85.228 0.519248 85.5222 0.501341 85.8185 0.484149C85.8821 0.480567 85.9437 0.489879 85.9895 0.510653C86.0074 0.519249 86.0034 0.533574 86.0789 0.651055C86.3135 0.74633 86.4746 0.736306 86.6376 0.72771C86.7072 0.724128 86.7688 0.720543 86.8145 0.706215C86.8383 0.698336 86.8682 0.686872 86.8682 0.67756C86.8682 0.670396 86.8245 0.658933 86.7966 0.6575C86.5998 0.643173 86.4129 0.673264 86.2201 0.679711C86.1306 0.682576 86.0531 0.657504 86.0372 0.616672C86.0332 0.60521 86.0272 0.593033 86.0213 0.581571C86.0153 0.57011 86.0113 0.557932 86.0054 0.546471C85.9278 0.542889 85.8821 0.555781 85.8483 0.580137C85.8205 0.600195 85.7807 0.623118 85.727 0.633863C85.6733 0.645325 85.5998 0.64318 85.5342 0.646762C85.4706 0.650343 85.401 0.659655 85.3414 0.65464C85.2817 0.64891 85.234 0.628132 85.1783 0.615238C85.1525 0.60879 85.1207 0.599481 85.0948 0.600914C84.8662 0.613092 84.6396 0.625265 84.4129 0.641025C84.2937 0.649621 84.234 0.619539 84.1585 0.600914C84.0988 0.586587 84.0392 0.590164 84.0292 0.623116C84.0034 0.701915 84.0948 0.734865 84.2976 0.719822C84.4646 0.706928 84.6157 0.704785 84.7469 0.753497C84.7648 0.759944 84.8066 0.762809 84.8324 0.761376C84.9954 0.75278 85.1564 0.742033 85.3195 0.733437C85.3493 0.732004 85.3811 0.734865 85.409 0.737731C85.8145 0.776414 85.8145 0.777134 85.9517 0.768538C86.0173 0.76424 86.0809 0.760657 86.0749 0.651772C86.2002 0.535007 86.399 0.527129 86.5919 0.509936C86.7171 0.499191 86.7707 0.530712 86.8522 0.547188C86.8801 0.552919 86.9099 0.564378 86.9358 0.562945C87.3632 0.539306 87.7886 0.51423 88.2141 0.487725C88.2857 0.483427 88.3373 0.487726 88.393 0.506351C88.4646 0.52999 88.5441 0.545037 88.6574 0.536441C88.8841 0.519248 89.1147 0.508506 89.3453 0.494178C89.4626 0.487015 89.4626 0.487008 89.6992 0.531421C89.725 0.536436 89.7588 0.542167 89.7866 0.540734C90.0172 0.528556 90.2459 0.513518 90.4745 0.500623C90.5382 0.497041 90.5958 0.507069 90.6455 0.526411C90.6952 0.545752 90.7548 0.55578 90.8165 0.552198C91.0471 0.539304 91.2757 0.524982 91.5043 0.512087C91.5322 0.510655 91.566 0.515669 91.5918 0.520683C91.8343 0.565097 91.8343 0.56509 91.9457 0.557926C92.1087 0.547181 92.2757 0.542172 92.4367 0.527845C92.5938 0.513518 92.6753 0.555063 92.7826 0.577986C93.0769 0.56151 93.3731 0.547903 93.6653 0.527845C93.7846 0.519249 93.8482 0.542886 93.9278 0.561511C93.9556 0.567958 93.9834 0.58157 94.0093 0.580854C94.1087 0.577989 94.2061 0.57011 94.3035 0.564379C94.4009 0.558649 94.5003 0.552919 94.5978 0.547188C94.7091 0.567962 94.7826 0.616673 94.9417 0.600197C95.0371 0.590168 95.1385 0.588019 95.2359 0.582288C95.3333 0.576557 95.4327 0.570827 95.5301 0.565097C95.5958 0.561515 95.6633 0.559363 95.727 0.552915C95.8443 0.54217 95.9019 0.577276 95.9854 0.593035C96.0133 0.59805 96.0451 0.60664 96.0709 0.605208C96.2677 0.595179 96.4665 0.586583 96.6594 0.570107C96.8085 0.557213 96.9099 0.578706 97.0152 0.608793C97.0371 0.61524 97.0749 0.618821 97.1027 0.617389C97.3333 0.605211 97.5619 0.590163 97.7905 0.577269C97.8522 0.573687 97.9118 0.585148 97.9615 0.603774C98.0132 0.623115 98.0709 0.632435 98.1345 0.628853C98.3631 0.615958 98.5938 0.601627 98.8224 0.588733C98.8502 0.5873 98.884 0.593032 98.9098 0.598763C99.1325 0.643177 99.1325 0.643894 99.2637 0.635297C99.2955 0.633148 99.3293 0.63171 99.3611 0.629561C99.5242 0.619532 99.6931 0.615955 99.8522 0.598763C100.035 0.579421 100.168 0.603778 100.298 0.64461C100.461 0.636014 100.628 0.630999 100.787 0.616672C100.906 0.605926 100.969 0.633146 101.049 0.651055C101.077 0.657502 101.107 0.670397 101.13 0.668964C101.361 0.656786 101.592 0.646044 101.818 0.628136C101.942 0.618107 101.995 0.650337 102.079 0.666813C102.107 0.672544 102.136 0.682578 102.162 0.681145C102.293 0.675414 102.425 0.666814 102.556 0.658934C102.709 0.649621 102.709 0.650337 102.912 0.694034C103.007 0.714809 103.103 0.698332 103.196 0.693317C103.296 0.687587 103.389 0.68329 103.468 0.71266C103.518 0.731285 103.578 0.742747 103.639 0.739882C103.771 0.733435 103.904 0.726991 104.033 0.716245C104.136 0.707649 104.226 0.713377 104.301 0.739882C104.355 0.758507 104.411 0.767825 104.476 0.763527C104.771 0.746335 105.067 0.728419 105.361 0.711943C105.387 0.71051 105.423 0.71696 105.447 0.723407C105.502 0.736302 105.556 0.750625 105.61 0.764952C105.739 0.758505 105.872 0.755647 105.999 0.745618C106.134 0.735589 106.258 0.732007 106.363 0.771406C106.385 0.780002 106.417 0.792173 106.443 0.791457C106.542 0.788592 106.639 0.78143 106.737 0.775699C106.834 0.769969 106.934 0.764239 107.031 0.758508C107.144 0.776416 107.216 0.827993 107.375 0.811517C107.47 0.801488 107.572 0.799339 107.669 0.793608C107.767 0.787877 107.866 0.781431 107.963 0.776416C107.995 0.774984 108.031 0.7714 108.059 0.774265C108.089 0.777131 108.115 0.787162 108.14 0.794325C108.22 0.815099 108.293 0.835876 108.407 0.823698C108.502 0.813669 108.604 0.811519 108.701 0.805072C108.834 0.797192 108.834 0.797194 109.055 0.842324C109.144 0.860949 109.246 0.836594 109.331 0.852354C109.389 0.863099 109.439 0.881004 109.494 0.893182C109.518 0.898196 109.556 0.900342 109.584 0.89891C109.715 0.892462 109.848 0.886018 109.977 0.875273C110.083 0.866677 110.17 0.875272 110.244 0.901061C110.297 0.919686 110.351 0.92757 110.419 0.923272C110.747 0.903214 111.075 0.886016 111.401 0.863809C111.512 0.855929 111.602 0.86811 111.663 0.893899C111.769 0.938313 111.918 0.88602 112.027 0.921838C112.095 0.944045 112.162 0.969835 112.286 0.959089C112.512 0.940464 112.743 0.93043 112.971 0.917535C113.053 0.936877 113.134 0.956223 113.218 0.975564C113.349 0.967684 113.48 0.959799 113.612 0.952636C113.709 0.946905 113.808 0.940459 113.906 0.935444C113.938 0.934012 113.971 0.931145 114.001 0.934727C114.031 0.938309 114.055 0.947624 114.083 0.954787C114.22 0.989888 114.22 0.990608 114.446 0.976281C114.544 0.969834 114.637 0.965536 114.719 0.99419C114.794 1.02069 114.884 1.02571 114.987 1.01783C115.182 1.0035 115.379 0.992755 115.578 0.982726C115.639 0.979144 115.697 0.991322 115.749 1.00995C115.826 1.03932 115.922 1.03645 116.019 1.02857C116.148 1.01854 116.276 1.00852 116.385 1.04863C116.407 1.05723 116.441 1.0694 116.464 1.06868C116.627 1.06295 116.792 1.05866 116.951 1.04505C117.111 1.03144 117.188 1.07585 117.297 1.09734C117.46 1.08803 117.625 1.07871 117.788 1.0694C117.82 1.06725 117.858 1.06081 117.886 1.06439C118.003 1.07943 118.071 1.13316 118.232 1.11668C118.325 1.10737 118.427 1.10451 118.524 1.10236C118.55 1.10164 118.584 1.11382 118.602 1.12313C118.612 1.12814 118.602 1.14175 118.59 1.14892C118.554 1.16897 118.51 1.1876 118.478 1.20838C118.474 1.21124 118.512 1.22413 118.534 1.22986C118.588 1.24276 118.649 1.24061 118.721 1.23488C118.782 1.22987 118.846 1.2399 118.89 1.26139C118.908 1.26998 118.902 1.28431 118.864 1.33159C118.864 1.36669 118.906 1.35093 118.92 1.328C118.941 1.29505 118.9 1.28431 118.82 1.30222C118.765 1.31511 118.737 1.33374 118.751 1.34878C118.759 1.35666 118.796 1.36669 118.864 1.33159C119.039 1.28861 119.17 1.28073 119.301 1.27285C119.335 1.2707 119.375 1.26353 119.399 1.26783C119.484 1.28502 119.564 1.3058 119.647 1.32514C119.743 1.32085 119.832 1.3101 119.926 1.33803C120.057 1.37743 120.063 1.37385 120.19 1.36597C120.256 1.36167 120.321 1.3581 120.387 1.35452C120.452 1.35093 120.504 1.36168 120.562 1.37815C120.679 1.41182 120.689 1.41182 120.767 1.36597C120.812 1.33803 120.844 1.32872 120.902 1.34162C121.093 1.38532 121.095 1.38818 121.258 1.37528C121.393 1.36454 121.52 1.36167 121.619 1.40251C121.687 1.43116 121.709 1.42471 121.763 1.39463C121.906 1.31511 121.971 1.31654 122.24 1.37385C122.365 1.40107 122.494 1.3717 122.621 1.36812C122.729 1.36526 122.804 1.38245 122.812 1.42758C122.818 1.45551 122.836 1.47558 122.908 1.48489C122.936 1.48847 122.969 1.49348 122.997 1.49205C123.162 1.48345 123.325 1.47342 123.49 1.46339C123.574 1.45838 123.619 1.42472 123.604 1.3803C123.586 1.33302 123.617 1.31583 123.737 1.30222C123.808 1.29434 123.866 1.29577 123.924 1.30867C123.987 1.323 123.969 1.33589 123.914 1.36168C123.78 1.42472 123.796 1.46339 123.967 1.50709C124.027 1.52213 124.075 1.53575 124.089 1.55796C124.097 1.56942 124.089 1.58446 124.106 1.59306C124.204 1.64105 124.339 1.67186 124.49 1.69478C124.635 1.67544 124.735 1.70767 124.846 1.73346C124.934 1.75352 125.037 1.73633 125.13 1.72917C125.236 1.72129 125.323 1.72701 125.399 1.75352C125.452 1.77214 125.508 1.78074 125.574 1.77716C125.705 1.76928 125.838 1.76426 125.967 1.7528C126.079 1.74277 126.162 1.7571 126.232 1.78146C126.319 1.81226 126.417 1.79148 126.508 1.79578C126.631 1.8008 126.693 1.86455 126.854 1.84736C126.949 1.83733 127.049 1.83375 127.148 1.83088C127.174 1.83017 127.206 1.84235 127.228 1.85094C127.333 1.89034 127.456 1.88819 127.592 1.87673C127.685 1.86885 127.776 1.86169 127.868 1.88891C128.019 1.93476 128.186 1.97488 128.345 2.01714C128.367 2.05009 128.351 2.08877 128.464 2.10811C128.524 2.11814 128.58 2.13319 128.625 2.14966C128.681 2.16901 128.733 2.17402 128.804 2.16901C128.933 2.15898 129.069 2.15682 129.196 2.14393C129.313 2.13247 129.387 2.15611 129.458 2.17832C129.516 2.19623 129.57 2.20482 129.639 2.19193C129.711 2.17975 129.763 2.18763 129.82 2.20697C129.902 2.23347 129.908 2.23061 130.178 2.23849C130.206 2.23921 130.24 2.24995 130.256 2.25926C130.263 2.26427 130.246 2.27861 130.232 2.28577C130.214 2.29437 130.186 2.30439 130.16 2.30654C129.866 2.32517 129.57 2.34164 129.275 2.36027C129.246 2.36242 129.214 2.36744 129.192 2.3746C129.168 2.38248 129.138 2.39322 129.138 2.40325C129.138 2.41041 129.178 2.41901 129.206 2.42402C129.293 2.4405 129.397 2.41543 129.482 2.43405C129.54 2.44623 129.588 2.46342 129.645 2.47488C129.669 2.4799 129.707 2.47918 129.737 2.47775C129.836 2.47273 129.933 2.46557 130.033 2.46127C130.061 2.46056 130.093 2.46772 130.118 2.47346C130.309 2.51644 130.309 2.51643 130.474 2.50712C130.54 2.50354 130.609 2.49279 130.671 2.49709C130.731 2.50139 130.782 2.52073 130.836 2.53291C130.947 2.5587 131.053 2.58377 131.061 2.63965C131.065 2.66114 131.13 2.67976 131.196 2.68119C131.26 2.68262 131.327 2.67475 131.393 2.67045C131.548 2.66186 131.548 2.66186 131.749 2.70555C131.804 2.71773 131.864 2.71916 131.935 2.712C131.963 2.70913 131.997 2.712 132.027 2.71558C132.124 2.72633 132.124 2.73994 132.061 2.76572C131.971 2.80369 131.979 2.80727 132.23 2.83951C132.325 2.85169 132.399 2.87461 132.478 2.89467C132.607 2.92691 132.605 2.9269 132.52 2.96916C132.5 2.97848 132.482 2.98851 132.462 2.99854C132.405 3.02648 132.359 3.05656 132.24 3.05943C132.108 3.06229 131.977 3.07376 131.846 3.08164C131.719 3.08952 131.685 3.1067 131.697 3.15541C131.711 3.21416 131.737 3.2206 131.965 3.21989C132.031 3.21989 132.089 3.22562 132.138 3.24496C132.114 3.26788 132.071 3.28579 132.007 3.29009C131.844 3.30083 131.679 3.31015 131.516 3.31946C131.385 3.32734 131.254 3.33522 131.122 3.3431C131.041 3.34811 130.989 3.38537 131.011 3.42691C131.023 3.45055 131.033 3.47419 131.043 3.49783C131.065 3.54511 131.106 3.55729 131.24 3.55514C131.273 3.55443 131.305 3.54869 131.337 3.55012C131.466 3.55514 131.528 3.61459 131.683 3.60242C131.812 3.59239 131.947 3.59024 132.075 3.57735C132.192 3.56588 132.258 3.59168 132.339 3.61102C132.367 3.61747 132.397 3.63107 132.421 3.63036C132.586 3.62248 132.751 3.6146 132.912 3.60099C132.987 3.59526 133.033 3.59956 133.092 3.61675C133.236 3.6583 133.24 3.65615 133.452 3.64325C133.607 3.63322 133.609 3.63466 133.808 3.67835C133.864 3.69053 133.924 3.69053 133.995 3.6848C134.089 3.67763 134.186 3.66617 134.283 3.67692C134.313 3.67979 134.351 3.68838 134.361 3.6977C134.367 3.70414 134.339 3.7199 134.315 3.72492C134.14 3.76217 133.935 3.75572 133.745 3.77077C133.685 3.77506 133.625 3.76145 133.576 3.74211C133.524 3.72277 133.468 3.71489 133.401 3.71847C133.269 3.72635 133.136 3.73137 133.007 3.74283C132.896 3.75286 132.818 3.73638 132.741 3.71417C132.715 3.70701 132.685 3.6934 132.659 3.69411C132.365 3.70844 132.069 3.72277 131.776 3.74283C131.659 3.75142 131.592 3.7285 131.512 3.70916C131.484 3.70271 131.456 3.6891 131.431 3.68982C131.331 3.69268 131.234 3.70056 131.134 3.70629C130.772 3.72778 130.413 3.74927 130.051 3.76933C130.027 3.77076 129.997 3.75572 129.969 3.74927C129.916 3.73638 129.86 3.7242 129.804 3.71202C129.705 3.71775 129.607 3.72491 129.508 3.72921C129.436 3.73208 129.373 3.74211 129.363 3.76933C129.357 3.78724 129.423 3.80371 129.492 3.80228C129.56 3.80085 129.627 3.79225 129.683 3.80156C129.959 3.84741 129.959 3.84813 130.132 3.83882C130.283 3.83022 130.267 3.82305 130.401 3.86245C130.458 3.87964 130.51 3.88968 130.576 3.88538C130.739 3.87535 130.904 3.86532 131.069 3.85672C131.095 3.85529 131.128 3.86246 131.154 3.86819C131.349 3.91117 131.349 3.9126 131.51 3.90185C131.721 3.88896 131.729 3.88538 131.87 3.92908C131.967 3.95916 132.057 3.93839 132.15 3.93696C132.258 3.96489 132.375 3.98997 132.472 4.02149C132.588 4.05874 132.709 4.05228 132.84 4.04154C132.937 4.03366 133.033 4.0308 133.112 4.06017C133.188 4.08739 133.279 4.09026 133.383 4.08309C133.476 4.07665 133.572 4.06303 133.669 4.07879C133.695 4.08309 133.735 4.09384 133.733 4.10029C133.731 4.11031 133.705 4.12464 133.679 4.12894C133.496 4.15831 133.295 4.15759 133.102 4.1712C133.077 4.17335 133.043 4.16547 133.017 4.15974C132.961 4.14685 132.908 4.1318 132.854 4.11819C132.757 4.12249 132.657 4.12392 132.562 4.13252C132.488 4.13896 132.432 4.13825 132.379 4.12106C132.329 4.1053 132.275 4.08596 132.216 4.08094C132.156 4.07593 132.087 4.08667 132.021 4.09097C131.955 4.09527 131.88 4.09312 131.828 4.10458C131.776 4.11604 131.745 4.14112 131.711 4.16117C131.673 4.18338 131.621 4.19055 131.546 4.1927C131.476 4.19485 131.421 4.19198 131.369 4.17192C131.347 4.16332 131.317 4.15687 131.287 4.15114C131.259 4.14613 131.228 4.13825 131.202 4.13968C130.906 4.15616 130.611 4.17407 130.315 4.19126C130.168 4.19986 130.17 4.19985 129.864 4.15759C129.836 4.15401 129.802 4.14899 129.774 4.15043C129.609 4.15902 129.446 4.16905 129.281 4.17908C129.114 4.18911 129.116 4.18768 128.832 4.14255C128.78 4.13395 128.705 4.14541 128.643 4.14398C128.514 4.1404 128.45 4.08023 128.299 4.09169C128.17 4.10172 128.035 4.10387 127.906 4.11676C127.788 4.12822 127.721 4.10315 127.641 4.08381C127.613 4.07736 127.584 4.06304 127.56 4.06447C127.263 4.08023 126.969 4.09814 126.576 4.10029C126.478 4.10029 126.522 4.11533 126.586 4.12035C126.677 4.12823 126.707 4.11318 126.657 4.08453C126.621 4.06447 126.57 4.05443 126.528 4.05945C126.506 4.06231 126.478 4.07593 126.576 4.10029C126.679 4.12751 126.673 4.14255 126.691 4.15114C126.735 4.17192 126.796 4.18051 126.86 4.17765C126.959 4.17263 127.057 4.16547 127.156 4.16117C127.184 4.15974 127.218 4.16476 127.244 4.17049C127.462 4.2149 127.464 4.21777 127.697 4.20058C127.77 4.19556 127.824 4.19556 127.882 4.20917C127.961 4.2278 128.019 4.25931 128.14 4.24928C128.301 4.23567 128.466 4.2278 128.631 4.21992C128.657 4.21849 128.685 4.23138 128.715 4.23711C128.796 4.2543 128.856 4.28654 128.977 4.27293C129.071 4.26218 129.172 4.25931 129.271 4.25716C129.297 4.25645 129.337 4.26791 129.349 4.27722C129.373 4.2937 129.343 4.31304 129.275 4.32665C129.248 4.33239 129.21 4.33095 129.178 4.3331C129.047 4.34098 128.916 4.34957 128.784 4.35602C128.715 4.3596 128.649 4.37035 128.641 4.39686C128.635 4.41476 128.707 4.43052 128.774 4.42909C128.874 4.42694 128.973 4.42121 129.069 4.4119C129.238 4.39614 129.385 4.40043 129.522 4.44556C129.619 4.47708 129.613 4.46563 129.717 4.55875C129.743 4.58239 129.82 4.58454 129.888 4.58311C130.051 4.57952 130.126 4.59027 130.112 4.61248C130.095 4.6397 130.037 4.64829 129.963 4.65187C129.832 4.6576 129.701 4.66692 129.57 4.6748C129.538 4.67695 129.502 4.68124 129.472 4.67981C129.442 4.67838 129.415 4.66978 129.389 4.66334C129.333 4.64973 129.285 4.62895 129.226 4.62393C129.166 4.61892 129.097 4.62967 129.031 4.63396C128.965 4.63754 128.896 4.64829 128.836 4.64328C128.776 4.63826 128.727 4.61678 128.673 4.60388C128.647 4.59743 128.615 4.5874 128.59 4.58812C128.458 4.59385 128.327 4.60316 128.196 4.61033C128.035 4.61964 128.035 4.61964 127.84 4.57523C127.784 4.56233 127.727 4.56305 127.653 4.56878C127.494 4.58024 127.492 4.57809 127.202 4.53654C127.174 4.53224 127.14 4.52723 127.112 4.52938C126.816 4.54585 126.522 4.56376 126.228 4.58095C125.975 4.596 125.975 4.596 125.836 4.66764C125.733 4.72065 125.731 4.72065 125.832 4.745C125.914 4.76506 125.987 4.79443 126.077 4.80517C126.16 4.8152 126.264 4.78297 126.355 4.81592C126.401 4.8324 126.46 4.85031 126.518 4.85317C126.609 4.85675 126.707 4.83597 126.794 4.86749C126.838 4.88325 126.904 4.89974 126.959 4.90045C127.057 4.90188 127.156 4.89042 127.254 4.8854C127.283 4.88397 127.317 4.88397 127.345 4.88755C127.375 4.89185 127.401 4.90045 127.427 4.90761C127.506 4.93197 127.592 4.94343 127.695 4.93125C127.864 4.91119 128.015 4.92122 128.146 4.96707C128.164 4.97352 128.208 4.97424 128.236 4.97137C128.307 4.96421 128.369 4.96349 128.423 4.9771C128.444 4.98283 128.476 4.99285 128.472 4.9993C128.466 5.01005 128.442 5.02437 128.417 5.02796C128.23 5.05231 128.029 5.05518 127.836 5.06808C127.81 5.06951 127.778 5.06019 127.753 5.05374C127.697 5.04085 127.649 5.01936 127.59 5.01435C127.53 5.00934 127.46 5.01865 127.395 5.02223C127.329 5.02581 127.26 5.03656 127.2 5.03226C127.14 5.02724 127.085 5.00933 127.037 4.99357C126.981 4.97566 126.928 4.97352 126.854 4.98068C126.759 4.99 126.659 4.99143 126.562 4.99644C126.508 4.98283 126.454 4.96778 126.399 4.95489C126.373 4.94844 126.341 4.94056 126.313 4.94128C126.182 4.94701 126.051 4.9556 125.92 4.96348C125.788 4.97136 125.788 4.97137 125.566 4.92696C125.54 4.92194 125.506 4.91621 125.478 4.91764C125.313 4.92624 125.15 4.93698 124.985 4.94557C124.922 4.94916 124.864 4.93913 124.812 4.91979C124.763 4.90044 124.703 4.8897 124.641 4.89328C124.379 4.90833 124.116 4.92265 123.854 4.94056C123.749 4.94773 123.659 4.94128 123.588 4.91549C123.504 4.88612 123.411 4.89329 123.313 4.89902C123.093 4.91335 123.091 4.91262 122.949 4.87609C122.922 4.86893 122.894 4.85531 122.868 4.85603C122.639 4.86678 122.409 4.87681 122.182 4.894C122.063 4.90331 121.999 4.87824 121.92 4.85962C121.892 4.85317 121.862 4.83956 121.838 4.84099C121.673 4.84887 121.508 4.85604 121.347 4.87036C121.186 4.88469 121.124 4.81807 121.003 4.81879C120.838 4.8195 120.675 4.83598 120.512 4.84601C120.381 4.85389 120.25 4.86177 120.118 4.86965C119.987 4.87753 119.856 4.88397 119.725 4.89328C119.655 4.8983 119.604 4.89185 119.546 4.87394C119.472 4.8503 119.385 4.83168 119.305 4.81019C119.184 4.77939 119.184 4.77938 119.037 4.78798C119.005 4.79013 118.971 4.79156 118.94 4.79371C118.699 4.80947 118.699 4.80804 118.393 4.76291C118.379 4.76076 118.343 4.76864 118.329 4.77437C118.287 4.793 118.25 4.81305 118.212 4.83239C118.158 4.82093 118.093 4.81449 118.057 4.79801C117.955 4.75145 117.796 4.8152 117.693 4.76935C117.655 4.75216 117.59 4.73712 117.53 4.73282C117.468 4.72852 117.399 4.73855 117.335 4.74285C117.17 4.7536 117.17 4.75288 117.029 4.81664C116.957 4.84816 116.854 4.84242 116.761 4.84959C116.663 4.85747 116.57 4.86176 116.488 4.83239C116.415 4.80589 116.325 4.79944 116.22 4.80804C116.091 4.81879 115.957 4.82523 115.826 4.83168C115.798 4.83311 115.765 4.82953 115.737 4.82523C115.433 4.78297 115.433 4.78225 115.285 4.79157C115.22 4.79586 115.152 4.79729 115.089 4.80374C114.981 4.8152 114.9 4.80016 114.822 4.77723C114.796 4.77007 114.767 4.75647 114.741 4.75718C114.61 4.76076 114.48 4.76721 114.351 4.77366C114.252 4.77867 114.152 4.78154 114.057 4.79157C113.898 4.80804 113.82 4.76147 113.711 4.73998C113.548 4.74929 113.383 4.75574 113.22 4.76864C113.144 4.77437 113.095 4.77222 113.037 4.75503C112.963 4.73354 112.896 4.70919 112.777 4.71993C112.618 4.73426 112.451 4.73927 112.287 4.74787C112.178 4.72566 112.099 4.68053 111.942 4.697C111.846 4.70703 111.745 4.70918 111.647 4.71491C111.516 4.72279 111.385 4.72996 111.254 4.73856C111.113 4.74715 111.115 4.745 110.898 4.70274C110.773 4.67767 110.643 4.7056 110.516 4.7099C110.417 4.71348 110.367 4.74643 110.391 4.7887C110.415 4.83096 110.361 4.86391 110.27 4.86965C110.041 4.88326 109.81 4.89758 109.582 4.90976C109.554 4.91119 109.52 4.90617 109.494 4.90116C109.25 4.85603 109.25 4.85675 109.14 4.8632C108.977 4.87395 108.81 4.87967 108.649 4.89328C108.538 4.90259 108.456 4.88756 108.385 4.8632C108.329 4.84458 108.278 4.84028 108.206 4.84457C107.419 4.89257 106.631 4.93698 105.846 4.98641C105.729 4.99357 105.661 4.9728 105.582 4.95346C105.554 4.94701 105.528 4.9334 105.5 4.9334C105.435 4.9334 105.369 4.93985 105.303 4.94415C105.009 4.96134 104.715 4.98211 104.419 4.99501C104.294 5.00074 104.26 5.03369 104.206 5.06091C104.164 5.08169 104.117 5.09028 104.043 5.09315C103.971 5.09601 103.92 5.09243 103.864 5.0738C103.793 5.04945 103.711 5.0344 103.6 5.04443C103.47 5.05589 103.339 5.06091 103.206 5.06879C103.138 5.07237 103.087 5.08527 103.065 5.11105C103.061 5.11535 103.103 5.1261 103.127 5.13255C103.206 5.15404 103.282 5.17911 103.371 5.19415C103.462 5.2092 103.562 5.192 103.657 5.1877C103.691 5.18627 103.723 5.18197 103.755 5.18269C103.785 5.18341 103.82 5.18699 103.842 5.19344C103.946 5.22567 104.055 5.24788 104.198 5.22854C104.321 5.23785 104.385 5.29731 104.542 5.28155C104.637 5.27223 104.737 5.26794 104.836 5.26435C104.862 5.26364 104.89 5.27653 104.918 5.28298C104.997 5.30089 105.061 5.32954 105.18 5.31736C105.307 5.30447 105.443 5.30232 105.572 5.29229C105.643 5.28656 105.695 5.29158 105.751 5.3102C105.822 5.33384 105.904 5.35175 106.015 5.34028C106.111 5.33025 106.212 5.3281 106.309 5.32166C106.437 5.31378 106.437 5.3145 106.663 5.35891C106.689 5.36392 106.723 5.36965 106.751 5.36822C106.916 5.35963 107.079 5.34888 107.244 5.34028C107.307 5.3367 107.369 5.34601 107.413 5.36679C107.431 5.37538 107.425 5.38972 107.431 5.4019C107.103 5.42124 106.775 5.43771 106.449 5.46135C106.325 5.47066 106.27 5.44129 106.188 5.42482C106.16 5.41909 106.13 5.40691 106.105 5.40834C105.874 5.42052 105.645 5.43341 105.417 5.44917C105.345 5.45418 105.292 5.45132 105.238 5.43054C105.101 5.37539 104.934 5.40547 104.779 5.41335C104.659 5.41908 104.622 5.44129 104.635 5.48857C104.653 5.54445 104.725 5.56164 104.908 5.55161C104.973 5.54803 105.039 5.54301 105.105 5.54015C105.168 5.53728 105.226 5.54659 105.278 5.56594C105.327 5.58528 105.387 5.59531 105.449 5.59244C105.58 5.58599 105.713 5.57955 105.84 5.5688C105.946 5.56021 106.033 5.56737 106.107 5.59387C106.188 5.62324 106.284 5.6168 106.379 5.61035C106.602 5.59602 106.604 5.59674 106.743 5.63256C106.771 5.63972 106.798 5.65334 106.824 5.65262C107.053 5.64187 107.284 5.63256 107.508 5.61537C107.625 5.60677 107.693 5.62969 107.771 5.64832C107.798 5.65477 107.826 5.66909 107.852 5.66766C108.017 5.65978 108.182 5.6519 108.343 5.63829C108.419 5.63184 108.464 5.63614 108.526 5.65333C108.673 5.69559 108.677 5.69416 108.886 5.68055C108.95 5.67625 109.019 5.66837 109.079 5.67411C109.138 5.67984 109.186 5.70061 109.242 5.71351C109.268 5.71924 109.299 5.72711 109.327 5.72568C109.458 5.71995 109.59 5.71136 109.721 5.70348C109.844 5.6956 109.844 5.69632 110.075 5.74073C110.168 5.75935 110.266 5.74359 110.359 5.73786C110.46 5.73141 110.552 5.73142 110.629 5.75936C110.707 5.78729 110.8 5.78585 110.9 5.78012C110.993 5.77439 111.089 5.75864 111.184 5.77798C111.403 5.8224 111.403 5.8231 111.538 5.81451C111.735 5.80233 111.93 5.79087 112.128 5.78012C112.154 5.77869 112.188 5.78729 112.214 5.79302C112.27 5.80592 112.317 5.8274 112.377 5.83242C112.437 5.83815 112.506 5.82955 112.57 5.82525C112.775 5.81164 112.788 5.80663 112.926 5.85391C113.041 5.89259 113.184 5.83672 113.291 5.88113C113.353 5.9062 113.437 5.92626 113.552 5.91408C113.647 5.90405 113.747 5.90119 113.846 5.89546C114.003 5.88614 114.003 5.88687 114.202 5.92985C114.228 5.93558 114.262 5.94274 114.287 5.9413C114.419 5.93557 114.552 5.93056 114.679 5.91767C114.828 5.90262 114.924 5.92985 115.035 5.95635C115.122 5.97713 115.226 5.95993 115.319 5.95277C115.421 5.9456 115.512 5.94775 115.588 5.97569C115.667 6.00434 115.761 6.00076 115.86 5.99503C115.953 5.99001 116.049 5.97354 116.144 5.9936C116.349 6.03801 116.349 6.03801 116.498 6.02941C116.629 6.02153 116.761 6.01294 116.892 6.00721C116.918 6.00578 116.949 6.01509 116.975 6.02153C117.031 6.03443 117.079 6.05592 117.138 6.06094C117.198 6.06595 117.268 6.05664 117.333 6.05306C117.399 6.04948 117.468 6.03873 117.528 6.04303C117.588 6.04733 117.643 6.06524 117.691 6.081C117.747 6.09962 117.798 6.10177 117.874 6.0946C117.969 6.08529 118.069 6.08314 118.166 6.07813C118.22 6.09174 118.276 6.10535 118.327 6.12039C118.381 6.13615 118.439 6.13472 118.512 6.1297C118.757 6.11251 118.759 6.11466 118.963 6.15908C119.057 6.17913 119.154 6.16266 119.248 6.15764C119.347 6.15191 119.441 6.14905 119.518 6.1777C119.594 6.20492 119.687 6.2085 119.786 6.1999C119.85 6.19417 119.918 6.1906 119.983 6.18845C120.013 6.18773 120.049 6.1906 120.071 6.19633C120.176 6.22641 120.279 6.25364 120.425 6.2343C120.552 6.24003 120.615 6.29877 120.769 6.28731C120.898 6.27728 121.033 6.27512 121.16 6.26223C121.277 6.25076 121.361 6.27083 121.421 6.2959C121.528 6.34032 121.679 6.28014 121.786 6.32384C121.848 6.34891 121.928 6.36897 122.047 6.35822C122.178 6.34676 122.22 6.3618 122.258 6.40693C122.279 6.43272 122.276 6.4535 122.236 6.47356C122.196 6.49433 122.152 6.49075 122.089 6.46711C122.015 6.44061 121.928 6.43558 121.822 6.44131C121.719 6.44704 121.655 6.4098 121.57 6.39548C121.484 6.38043 121.383 6.4055 121.293 6.38616C121.083 6.34103 121.083 6.34103 120.94 6.34963C120.842 6.35536 120.741 6.35822 120.645 6.36825C120.532 6.38043 120.458 6.35822 120.381 6.33816C120.353 6.331 120.325 6.31739 120.301 6.3181C120.073 6.32885 119.842 6.33888 119.615 6.35679C119.496 6.3661 119.433 6.34032 119.353 6.32241C119.325 6.31596 119.295 6.30306 119.272 6.3045C119.075 6.31453 118.88 6.32742 118.683 6.3396C118.645 6.35894 118.604 6.37756 118.568 6.39833C118.53 6.41983 118.478 6.42914 118.403 6.42842C118.278 6.42842 118.154 6.45851 118.029 6.42055C117.9 6.38186 117.89 6.38401 117.765 6.39332C117.606 6.4055 117.437 6.40264 117.287 6.43058C117.262 6.43559 117.234 6.44919 117.234 6.45922C117.232 6.46567 117.274 6.47499 117.299 6.48072C117.387 6.49791 117.488 6.47284 117.576 6.49075C117.633 6.50221 117.681 6.5194 117.739 6.53158C117.763 6.53659 117.798 6.53588 117.83 6.53516C117.864 6.53444 117.896 6.52943 117.928 6.53015C117.957 6.53087 117.989 6.53516 118.013 6.54161C118.122 6.56883 118.238 6.5939 118.335 6.62614C118.431 6.65766 118.52 6.63617 118.615 6.63473C118.997 6.68488 118.997 6.68559 119.254 6.66983C119.317 6.66625 119.383 6.66196 119.448 6.66267C119.476 6.66267 119.502 6.67556 119.53 6.68272C119.609 6.70421 119.685 6.72356 119.796 6.7121C119.892 6.70207 119.993 6.69992 120.091 6.69347C120.222 6.68559 120.222 6.68559 120.445 6.73072C120.5 6.74218 120.56 6.74076 120.631 6.73502C120.693 6.73001 120.757 6.74076 120.8 6.76153C120.818 6.77013 120.812 6.78445 120.818 6.79663C120.621 6.80809 120.423 6.81597 120.232 6.83316C120.109 6.84391 120.053 6.81311 119.971 6.79663C119.943 6.7909 119.914 6.77872 119.888 6.78016C119.693 6.7909 119.498 6.80307 119.303 6.8174C119.28 6.81883 119.25 6.83531 119.248 6.84534C119.244 6.86396 119.293 6.88187 119.365 6.88115C119.46 6.88044 119.554 6.86826 119.639 6.89763C119.711 6.92342 119.8 6.93489 119.906 6.92343C119.969 6.91698 120.037 6.91698 120.101 6.91124C120.27 6.89405 120.423 6.89763 120.55 6.94634C120.647 6.95924 120.743 6.94706 120.836 6.94062C120.906 6.9356 120.973 6.93058 121.023 6.94419C121.128 6.97285 121.232 7.0015 121.377 6.98216C121.534 7.00222 121.653 7.04448 121.784 7.07887C121.846 7.09534 121.894 7.10466 121.965 7.09392C121.995 7.08962 122.031 7.08961 122.063 7.08746C122.128 7.08388 122.198 7.07314 122.258 7.07743C122.317 7.08245 122.367 7.10323 122.421 7.11612C122.446 7.12257 122.476 7.13331 122.502 7.13259C122.602 7.12901 122.699 7.12185 122.796 7.11612C122.894 7.11111 122.991 7.10609 123.089 7.10108C123.17 7.1197 123.254 7.13833 123.335 7.15696C123.466 7.14908 123.598 7.14119 123.727 7.13403C123.872 7.12543 123.872 7.12615 124.081 7.17056C124.174 7.19062 124.273 7.17772 124.363 7.16841C124.512 7.15337 124.611 7.18059 124.717 7.20925C124.739 7.21498 124.778 7.21856 124.804 7.21569C124.908 7.20566 124.997 7.21354 125.073 7.24005C125.126 7.25867 125.18 7.26727 125.246 7.26369C125.474 7.25008 125.703 7.23575 125.932 7.22357C125.959 7.22214 125.991 7.22859 126.017 7.23432C126.22 7.27802 126.222 7.28016 126.371 7.2687C126.504 7.25867 126.627 7.25437 126.733 7.29377C126.755 7.30237 126.788 7.31455 126.812 7.31383C126.975 7.30667 127.14 7.29879 127.301 7.28661C127.375 7.28088 127.427 7.28303 127.484 7.29951C127.558 7.32028 127.623 7.34536 127.745 7.33604C128.081 7.30954 128.083 7.31383 128.48 7.36326C128.508 7.36684 128.546 7.36111 128.578 7.35825C128.645 7.35108 128.695 7.36111 128.755 7.37759C128.888 7.41484 128.892 7.41269 129.019 7.40481C129.116 7.39836 129.218 7.39693 129.313 7.38619C129.46 7.37043 129.558 7.39837 129.667 7.42487C129.755 7.44565 129.856 7.42845 129.949 7.422C130.051 7.41484 130.142 7.41698 130.218 7.44421C130.269 7.46283 130.325 7.47287 130.391 7.46928C130.619 7.45639 130.848 7.44206 131.077 7.42916C131.104 7.42773 131.138 7.43346 131.164 7.43848C131.391 7.48289 131.391 7.48504 131.615 7.46857C131.687 7.46355 131.747 7.46212 131.8 7.47716C131.852 7.49149 131.908 7.5051 131.961 7.51871C132.059 7.51369 132.158 7.51226 132.254 7.50367C132.327 7.49722 132.379 7.50009 132.436 7.51513C132.512 7.53447 132.576 7.56813 132.695 7.55166C132.757 7.54378 132.828 7.54593 132.89 7.53877C132.963 7.52946 133.013 7.53518 133.071 7.55381C133.142 7.57602 133.216 7.59894 133.331 7.58748C133.458 7.57458 133.593 7.57243 133.723 7.5624C133.794 7.55667 133.844 7.56241 133.902 7.58103C133.973 7.60467 134.055 7.61972 134.166 7.6104C134.393 7.59249 134.395 7.59607 134.615 7.6412C134.671 7.65266 134.731 7.65123 134.802 7.6455C134.864 7.64049 134.927 7.65123 134.971 7.67201C135.013 7.69493 135.009 7.70925 135.013 7.72143ZM117.297 1.26067C117.232 1.26425 117.166 1.26855 117.071 1.20623C117.065 1.19548 117.069 1.18259 117.055 1.17328C117.023 1.15394 116.973 1.14033 116.914 1.13818C116.806 1.13531 116.677 1.15966 116.679 1.17829C116.681 1.19405 116.715 1.20766 116.78 1.22055C116.808 1.22556 116.83 1.23416 116.856 1.23989C116.932 1.25637 116.991 1.28861 117.101 1.27213C117.091 1.24993 117.081 1.22772 117.101 1.27213C117.091 1.29936 117.12 1.3187 117.192 1.32658C117.212 1.32873 117.242 1.32729 117.258 1.32299C117.319 1.30723 117.329 1.28575 117.283 1.22916C117.276 1.23847 117.281 1.25494 117.299 1.25924C117.317 1.26353 117.361 1.25996 117.383 1.25494C117.439 1.24133 117.466 1.22342 117.452 1.20838C117.445 1.2005 117.407 1.19047 117.383 1.19047C117.341 1.19047 117.303 1.20623 117.297 1.26067ZM133.373 9.56819C133.228 9.5818 133.061 9.57678 132.916 9.60472C132.89 9.60974 132.864 9.62263 132.862 9.63266C132.86 9.63911 132.9 9.64842 132.924 9.65344C132.977 9.6649 133.037 9.66131 133.106 9.65773C133.212 9.65272 133.273 9.68567 133.355 9.70214C133.381 9.70716 133.415 9.71074 133.442 9.70931C133.603 9.70071 133.762 9.6914 133.923 9.68138C133.951 9.67923 133.981 9.67421 134.005 9.66776C134.085 9.64699 134.077 9.63338 133.999 9.61762C133.914 9.60043 133.846 9.57177 133.759 9.55816C133.633 9.53882 133.506 9.5646 133.373 9.56819ZM122.083 10.0911C121.985 10.0969 121.89 10.1026 121.792 10.1083C121.761 10.1105 121.727 10.1112 121.697 10.114C121.635 10.1191 121.59 10.1341 121.56 10.1577C121.606 10.1764 121.661 10.1871 121.723 10.185C121.82 10.1807 121.916 10.1714 122.013 10.1692C122.118 10.1663 122.18 10.1986 122.262 10.2151C122.287 10.2201 122.319 10.2208 122.349 10.2215C122.496 10.2244 122.586 10.1871 122.558 10.1348C122.538 10.094 122.462 10.0696 122.371 10.0747C122.275 10.0797 122.178 10.0854 122.083 10.0911ZM134.053 8.50942C134.077 8.49724 134.102 8.48865 134.114 8.4779C134.15 8.44137 134.136 8.41415 134.071 8.38549C133.991 8.35039 133.894 8.37403 133.804 8.37761C133.782 8.37833 133.759 8.39337 133.747 8.40268C133.739 8.40913 133.739 8.42275 133.751 8.42633C133.848 8.45498 133.951 8.48148 134.053 8.50942ZM116.806 6.39332C116.711 6.39906 116.614 6.40335 116.518 6.41123C116.494 6.41338 116.472 6.42699 116.458 6.4363C116.433 6.4535 116.46 6.47713 116.542 6.47928C116.635 6.48215 116.733 6.46997 116.83 6.46424C116.953 6.45708 117.027 6.43057 116.981 6.40765C116.938 6.38544 116.878 6.38115 116.806 6.39332ZM12.157 4.86248C12.2206 4.8589 12.2862 4.85603 12.3498 4.85102C12.4094 4.84601 12.4552 4.83025 12.485 4.80661C12.4353 4.78798 12.3796 4.77795 12.318 4.7801C12.2206 4.7844 12.1252 4.79013 12.0297 4.79729C11.9701 4.80159 11.9125 4.81735 11.8985 4.84171C11.8846 4.86033 12.0178 4.87108 12.157 4.86248ZM108.399 4.75216C108.425 4.75861 108.451 4.77151 108.476 4.77151C108.54 4.77151 108.606 4.76721 108.665 4.76004C108.691 4.75718 108.711 4.74428 108.723 4.73425C108.731 4.72781 108.729 4.71635 108.717 4.71062C108.659 4.67623 108.429 4.68841 108.391 4.72781C108.387 4.73497 108.397 4.74428 108.399 4.75216ZM102.127 0.829426C102.132 0.840887 102.134 0.852348 102.142 0.863809C102.158 0.8853 102.202 0.901063 102.266 0.911808C102.315 0.893899 102.341 0.873844 102.339 0.852354C102.337 0.840892 102.331 0.829423 102.323 0.817962C102.307 0.796471 102.264 0.780717 102.2 0.769972C102.15 0.787164 102.127 0.807219 102.127 0.829426ZM138.647 10.2158C138.629 10.2251 138.611 10.2344 138.591 10.243C138.645 10.2638 138.695 10.2702 138.733 10.2587C138.756 10.2516 138.77 10.2408 138.788 10.2315C138.735 10.2108 138.687 10.205 138.647 10.2158ZM137.411 10.3132C137.436 10.3196 137.46 10.3282 137.488 10.3325C137.534 10.3397 137.576 10.3275 137.607 10.3017C137.582 10.2953 137.558 10.2867 137.53 10.2824C137.484 10.2752 137.442 10.2874 137.411 10.3132ZM138.194 10.1821C138.18 10.1993 138.208 10.2136 138.281 10.2258C138.299 10.2165 138.323 10.2079 138.335 10.1979C138.355 10.1814 138.321 10.1663 138.25 10.1549C138.23 10.1635 138.212 10.1728 138.194 10.1821ZM133.997 9.40988C133.983 9.42707 134.011 9.44139 134.085 9.45357C134.102 9.44426 134.126 9.43566 134.138 9.42563C134.158 9.40916 134.124 9.39412 134.053 9.38265C134.033 9.39125 134.015 9.40056 133.997 9.40988ZM128.279 4.34098C128.262 4.35029 128.244 4.3596 128.224 4.3682C128.277 4.38897 128.327 4.39542 128.365 4.38396C128.389 4.37679 128.403 4.36605 128.421 4.35674C128.367 4.33596 128.319 4.33023 128.279 4.34098ZM122.802 1.65179C122.85 1.65681 122.89 1.64678 122.924 1.62028C122.898 1.61383 122.874 1.60523 122.846 1.60094C122.8 1.59377 122.759 1.60596 122.727 1.63174C122.753 1.63891 122.778 1.64535 122.802 1.65179ZM119.894 1.48345C119.876 1.49277 119.858 1.50208 119.838 1.51068C119.892 1.53145 119.942 1.5379 119.979 1.52643C120.003 1.51927 120.017 1.50852 120.035 1.49921C119.981 1.47844 119.934 1.47343 119.894 1.48345ZM100.17 0.828709C100.152 0.838021 100.135 0.847334 100.115 0.85593C100.168 0.876705 100.218 0.88315 100.256 0.871688C100.28 0.864524 100.294 0.853779 100.311 0.844466C100.258 0.823692 100.21 0.81868 100.17 0.828709ZM1.96219 6.65694C1.93634 6.65049 1.91052 6.64405 1.88666 6.63689C1.82901 6.65623 1.81112 6.67413 1.84293 6.68774C1.86281 6.69634 1.89261 6.70136 1.91846 6.7078C1.9781 6.68846 1.99201 6.67126 1.96219 6.65694Z" fill="#B71A1B"/>
</svg>
