<svg width="24" height="24" viewBox="0 0 24 24" fill="none" xmlns="http://www.w3.org/2000/svg">
<path d="M10.425 6.69769L6.53629 22.0157C6.49452 22.1838 6.38769 22.3284 6.2393 22.4177C6.09091 22.507 5.91312 22.5337 5.74504 22.4919C5.57696 22.4502 5.43236 22.3433 5.34304 22.1949C5.25373 22.0466 5.22702 21.8688 5.26879 21.7007L8.71879 6.21019L10.4265 6.69769H10.425ZM10.6103 5.97019L11.4405 2.70318C11.628 1.99818 10.983 1.35318 10.278 1.54068C9.94054 1.63068 9.68554 1.90068 9.60304 2.23818L8.88154 5.47744L10.6103 5.97019ZM16.1925 8.48269L8.53129 22.1732C8.47293 22.2728 8.38973 22.3555 8.28983 22.4134C8.18992 22.4712 8.07673 22.5022 7.96129 22.5032C7.46629 22.5032 7.15129 21.9782 7.38379 21.5357L14.5988 7.70944L16.194 8.48194L16.1925 8.48269ZM14.9453 7.04419L16.608 3.85819C16.773 3.55068 17.0955 3.35568 17.4405 3.35568C18.168 3.35568 18.6255 4.14319 18.2655 4.78069L16.56 7.82644L14.9453 7.04419Z" fill="white"/>
</svg>
