<svg width="24" height="24" viewBox="0 0 24 24" fill="none" xmlns="http://www.w3.org/2000/svg">
<mask id="mask0_13926_49950" style="mask-type:luminance" maskUnits="userSpaceOnUse" x="6" y="1" width="12" height="22">
<path d="M7.5 15C7.5 14.0263 7.8158 13.0789 8.4 12.3L10.2 9.9C10.3947 9.64036 10.5 9.32456 10.5 9V2H13.5V9C13.5 9.32456 13.6053 9.64036 13.8 9.9L15.6 12.3C16.1842 13.0789 16.5 14.0263 16.5 15V21C16.5 21.2652 16.3946 21.5196 16.2071 21.7071C16.0196 21.8946 15.7652 22 15.5 22H8.5C8.23478 22 7.98043 21.8946 7.79289 21.7071C7.60536 21.5196 7.5 21.2652 7.5 21V15Z" fill="white" stroke="white" stroke-width="1.5" stroke-linecap="round" stroke-linejoin="round"/>
<path d="M10.5 5H13.5" stroke="black" stroke-width="1.5" stroke-linecap="round" stroke-linejoin="round"/>
<path d="M10.5 6V4M13.5 6V4" stroke="white" stroke-width="1.5" stroke-linecap="round" stroke-linejoin="round"/>
</mask>
<g mask="url(#mask0_13926_49950)">
<path d="M0 0H24V24H0V0Z" fill="white"/>
</g>
</svg>
