<svg width="27" height="27" viewBox="0 0 27 27" fill="none" xmlns="http://www.w3.org/2000/svg">
<path d="M23.2502 23.25L18.5453 18.5451M18.5453 18.5451C19.3501 17.7403 19.9885 16.7848 20.4241 15.7333C20.8596 14.6818 21.0838 13.5548 21.0838 12.4166C21.0838 11.2785 20.8596 10.1515 20.4241 9.09997C19.9885 8.04846 19.3501 7.09302 18.5453 6.28823C17.7405 5.48343 16.7851 4.84504 15.7336 4.40948C14.682 3.97393 13.555 3.74976 12.4169 3.74976C11.2787 3.74976 10.1517 3.97393 9.10021 4.40948C8.0487 4.84504 7.09327 5.48343 6.28847 6.28823C4.66312 7.91359 3.75 10.118 3.75 12.4166C3.75 14.7152 4.66312 16.9197 6.28847 18.5451C7.91383 20.1704 10.1183 21.0835 12.4169 21.0835C14.7155 21.0835 16.9199 20.1704 18.5453 18.5451Z" stroke="#CCCCCC" stroke-width="1.5" stroke-linecap="round" stroke-linejoin="round"/>
</svg>
