<svg width="52" height="56" viewBox="0 0 52 56" fill="none" xmlns="http://www.w3.org/2000/svg">
<path d="M45 34C45 43.9411 36.9411 52 27 52L6 52C3.23857 52 0.999996 49.7614 0.999997 47L0.999999 18C1 12.4771 5.47715 8 11 8L40 8C42.7614 8 45 10.2386 45 13L45 34Z" fill="#F6B205" fill-opacity="0.1"/>
<path d="M20.8764 24.6456C22.1124 20.4404 27.1187 18.6996 30.6962 21.2316C33.7907 23.4201 34.3097 27.8061 31.8122 30.6569L29.4647 33.3374C25.5504 37.8062 20.6074 41.2554 15.0624 43.3874L12.3939 44.4141C12.0028 44.5641 11.5709 44.5691 11.1764 44.4283C10.7819 44.2876 10.4508 44.0103 10.2429 43.6466C10.0351 43.2829 9.96421 42.8568 10.0432 42.4455C10.1221 42.0341 10.3457 41.6645 10.6734 41.4036L12.7584 39.7476C15.8821 37.2662 18.1624 33.8799 19.2872 30.0524L20.8764 24.6456Z" stroke="#F6B205" stroke-width="2"/>
<path d="M27.3828 20.2134C27.5629 19.6668 27.8681 19.1697 28.2741 18.7617C28.6801 18.3538 29.1758 18.0463 29.7216 17.8636C30.2674 17.6809 30.8483 17.6281 31.4181 17.7095C31.9878 17.7908 32.5308 18.0041 33.0036 18.3322C33.4765 18.6603 33.8663 19.0942 34.1419 19.5995C34.4176 20.1048 34.5715 20.6674 34.5914 21.2426C34.6113 21.8178 34.4967 22.3897 34.2567 22.9129C34.0167 23.436 33.6579 23.8959 33.2088 24.2559" stroke="#F6B205" stroke-width="2"/>
<path d="M36.5 15.2002L33.5 18.2002" stroke="#F6B205" stroke-width="2" stroke-linecap="round"/>
</svg>
