<svg width="52" height="56" viewBox="0 0 52 56" fill="none" xmlns="http://www.w3.org/2000/svg">
<path d="M45 34C45 43.9411 36.9411 52 27 52L6 52C3.23857 52 0.999996 49.7614 0.999997 47L0.999999 18C1 12.4771 5.47715 8 11 8L40 8C42.7614 8 45 10.2386 45 13L45 34Z" fill="#B71A1B" fill-opacity="0.1"/>
<path d="M7 30.375C7 32.1667 7.51042 33.8542 8.53125 35.4375C9.55208 37.0208 10.9167 38.3125 12.625 39.3125C12.5417 39.6042 12.4479 39.9792 12.3438 40.4375C12.2396 40.8958 12.0938 41.6146 11.9062 42.5938C11.7188 43.5729 11.6458 44.3854 11.6875 45.0312C11.7292 45.6771 11.9375 46 12.3125 46C13.5625 46 14.8229 45.6667 16.0938 45C17.3646 44.3333 18.375 43.6667 19.125 43C19.875 42.3333 20.2708 42 20.3125 42C22.6042 42 24.8333 41.5625 27 40.6875C26.75 40.6042 26.2812 40.3542 25.5938 39.9375C24.9062 39.5208 24.4792 39.3125 24.3125 39.3125H20.3125C19.5625 39.3125 18.7708 39.7292 17.9375 40.5625C16.7708 41.6042 15.6667 42.3542 14.625 42.8125L15 38L13.9375 37.0625C11.1042 35.2292 9.6875 33 9.6875 30.375C9.6875 29.7083 9.8125 28.9583 10.0625 28.125C9.89583 27.875 9.78125 27.4896 9.71875 26.9688C9.65625 26.4479 9.625 25.9792 9.625 25.5625V24.125L9.6875 23.3125C7.89583 25.2292 7 27.5833 7 30.375ZM25.6875 14C21.9792 14 18.8229 15.0833 16.2188 17.25C13.6146 19.4167 12.3125 22.0208 12.3125 25.0625C12.3125 28.0625 13.6042 30.5208 16.1875 32.4375C18.7708 34.3542 21.9375 35.3125 25.6875 35.3125C25.7292 35.3125 26.1562 35.7604 26.9688 36.6562C27.7812 37.5521 28.8542 38.4479 30.1875 39.3438C31.5208 40.2396 32.8125 40.6875 34.0625 40.6875C34.3542 40.6875 34.5312 40.4583 34.5938 40C34.6562 39.5417 34.625 38.9896 34.5 38.3438C34.375 37.6979 34.2292 37.0417 34.0625 36.375C33.8958 35.7083 33.75 35.1458 33.625 34.6875L33.375 34C35.0833 32.9583 36.4479 31.6562 37.4688 30.0938C38.4896 28.5312 39 26.8542 39 25.0625C39 22.0208 37.6979 19.4167 35.0938 17.25C32.4896 15.0833 29.3542 14 25.6875 14ZM32.0625 31.75L30.3125 32.8125L31 34.8125C31.0833 35.0208 31.1875 35.375 31.3125 35.875C31.4375 36.375 31.5625 36.7708 31.6875 37.0625C30.7708 36.4375 29.6875 35.5 28.4375 34.25C27.4792 33.2083 26.6042 32.6875 25.8125 32.6875C22.8958 32.6875 20.3854 32.0104 18.2812 30.6562C16.1771 29.3021 15.125 27.4375 15.125 25.0625C15.0833 22.7292 16.0938 20.75 18.1562 19.125C20.2188 17.5 22.7292 16.6875 25.6875 16.6875C28.6458 16.6875 31.1562 17.5 33.2188 19.125C35.2812 20.75 36.3125 22.7292 36.3125 25.0625C36.3125 27.6875 34.8958 29.9167 32.0625 31.75Z" fill="#B71A1B"/>
</svg>
