<svg width="49" height="50" viewBox="0 0 49 50" fill="none" xmlns="http://www.w3.org/2000/svg">
<rect y="0.804688" width="48.3902" height="48.3902" rx="12" fill="#F6B205" fill-opacity="0.1"/>
<path d="M24.1953 15C18.6753 15 14.1953 19.48 14.1953 25C14.1953 30.52 18.6753 35 24.1953 35C29.7153 35 34.1953 30.52 34.1953 25C34.1953 19.48 29.7153 15 24.1953 15ZM21.4853 29.29L17.8953 25.7C17.8027 25.6074 17.7293 25.4975 17.6792 25.3765C17.6291 25.2556 17.6033 25.1259 17.6033 24.995C17.6033 24.8641 17.6291 24.7344 17.6792 24.6135C17.7293 24.4925 17.8027 24.3826 17.8953 24.29C17.9879 24.1974 18.0978 24.124 18.2188 24.0739C18.3397 24.0238 18.4694 23.998 18.6003 23.998C18.7312 23.998 18.8609 24.0238 18.9819 24.0739C19.1028 24.124 19.2127 24.1974 19.3053 24.29L22.1953 27.17L29.0753 20.29C29.2623 20.103 29.5159 19.998 29.7803 19.998C30.0447 19.998 30.2983 20.103 30.4853 20.29C30.6723 20.477 30.7773 20.7306 30.7773 20.995C30.7773 21.2594 30.6723 21.513 30.4853 21.7L22.8953 29.29C22.8028 29.3827 22.6929 29.4563 22.5719 29.5064C22.451 29.5566 22.3213 29.5824 22.1903 29.5824C22.0593 29.5824 21.9297 29.5566 21.8087 29.5064C21.6877 29.4563 21.5778 29.3827 21.4853 29.29Z" fill="#F6B205"/>
</svg>
