<svg width="52" height="56" viewBox="0 0 52 56" fill="none" xmlns="http://www.w3.org/2000/svg">
<path d="M45 34C45 43.9411 36.9411 52 27 52L6 52C3.23857 52 0.999996 49.7614 0.999997 47L0.999999 18C1 12.4771 5.47715 8 11 8L40 8C42.7614 8 45 10.2386 45 13L45 34Z" fill="#F6B205" fill-opacity="0.1"/>
<path d="M15 23C14.2089 23 13.4355 22.7654 12.7777 22.3259C12.1199 21.8864 11.6072 21.2616 11.3045 20.5307C11.0017 19.7998 10.9225 18.9956 11.0769 18.2196C11.2312 17.4437 11.6122 16.731 12.1716 16.1716C12.731 15.6122 13.4437 15.2312 14.2196 15.0769C14.9956 14.9225 15.7998 15.0017 16.5307 15.3045C17.2616 15.6072 17.8864 16.1199 18.3259 16.7777C18.7654 17.4355 19 18.2089 19 19C19 20.0609 18.5786 21.0783 17.8284 21.8284C17.0783 22.5786 16.0609 23 15 23ZM15 17C14.6044 17 14.2178 17.1173 13.8889 17.3371C13.56 17.5568 13.3036 17.8692 13.1522 18.2346C13.0009 18.6001 12.9613 19.0022 13.0384 19.3902C13.1156 19.7781 13.3061 20.1345 13.5858 20.4142C13.8655 20.6939 14.2219 20.8844 14.6098 20.9616C14.9978 21.0387 15.3999 20.9991 15.7654 20.8478C16.1308 20.6964 16.4432 20.44 16.6629 20.1111C16.8827 19.7822 17 19.3956 17 19C17 18.4696 16.7893 17.9609 16.4142 17.5858C16.0391 17.2107 15.5304 17 15 17ZM31 23C30.2089 23 29.4355 22.7654 28.7777 22.3259C28.1199 21.8864 27.6072 21.2616 27.3045 20.5307C27.0017 19.7998 26.9225 18.9956 27.0769 18.2196C27.2312 17.4437 27.6122 16.731 28.1716 16.1716C28.731 15.6122 29.4437 15.2312 30.2196 15.0769C30.9956 14.9225 31.7998 15.0017 32.5307 15.3045C33.2616 15.6072 33.8864 16.1199 34.3259 16.7777C34.7654 17.4355 35 18.2089 35 19C35 20.0609 34.5786 21.0783 33.8284 21.8284C33.0783 22.5786 32.0609 23 31 23ZM31 17C30.6044 17 30.2178 17.1173 29.8889 17.3371C29.56 17.5568 29.3036 17.8692 29.1522 18.2346C29.0009 18.6001 28.9613 19.0022 29.0384 19.3902C29.1156 19.7781 29.3061 20.1345 29.5858 20.4142C29.8655 20.6939 30.2219 20.8844 30.6098 20.9616C30.9978 21.0387 31.3999 20.9991 31.7654 20.8478C32.1308 20.6964 32.4432 20.44 32.6629 20.1111C32.8827 19.7822 33 19.3956 33 19C33 18.4696 32.7893 17.9609 32.4142 17.5858C32.0391 17.2107 31.5304 17 31 17ZM33 44H29C28.4696 44 27.9609 43.7893 27.5858 43.4142C27.2107 43.0391 27 42.5304 27 42V35H29V42H33V33H35V27C35 26.7348 34.8946 26.4804 34.7071 26.2929C34.5196 26.1054 34.2652 26 34 26H27.58L23 34L18.42 26H12C11.7348 26 11.4804 26.1054 11.2929 26.2929C11.1054 26.4804 11 26.7348 11 27V33H13V42H17V35H19V42C19 42.5304 18.7893 43.0391 18.4142 43.4142C18.0391 43.7893 17.5304 44 17 44H13C12.4696 44 11.9609 43.7893 11.5858 43.4142C11.2107 43.0391 11 42.5304 11 42V35C10.4696 35 9.96086 34.7893 9.58579 34.4142C9.21071 34.0391 9 33.5304 9 33V27C9 26.2044 9.31607 25.4413 9.87868 24.8787C10.4413 24.3161 11.2044 24 12 24H19.58L23 30L26.42 24H34C34.7956 24 35.5587 24.3161 36.1213 24.8787C36.6839 25.4413 37 26.2044 37 27V33C37 33.5304 36.7893 34.0391 36.4142 34.4142C36.0391 34.7893 35.5304 35 35 35V42C35 42.5304 34.7893 43.0391 34.4142 43.4142C34.0391 43.7893 33.5304 44 33 44Z" fill="#F6B205"/>
</svg>
