<svg width="52" height="56" viewBox="0 0 52 56" fill="none" xmlns="http://www.w3.org/2000/svg">
<path d="M45 34C45 43.9411 36.9411 52 27 52L6 52C3.23857 52 0.999996 49.7614 0.999997 47L0.999999 18C1 12.4771 5.47715 8 11 8L40 8C42.7614 8 45 10.2386 45 13L45 34Z" fill="#F6B205" fill-opacity="0.1"/>
<path d="M31.375 32.9375C32.0195 32.9375 32.625 33.0596 33.1914 33.3037C33.7578 33.5479 34.2559 33.8799 34.6855 34.2998C35.1152 34.7197 35.4521 35.2178 35.6963 35.7939C35.9404 36.3701 36.0625 36.9805 36.0625 37.625C36.0625 38.1328 35.9844 38.626 35.8281 39.1045C35.6719 39.583 35.4375 40.0273 35.125 40.4375V46.6484L31.375 44.7734L27.625 46.6484V40.4375C27.3223 40.0273 27.0928 39.583 26.9365 39.1045C26.7803 38.626 26.6973 38.1328 26.6875 37.625C26.6875 36.9805 26.8096 36.375 27.0537 35.8086C27.2979 35.2422 27.6299 34.7441 28.0498 34.3145C28.4697 33.8848 28.9678 33.5479 29.5439 33.3037C30.1201 33.0596 30.7305 32.9375 31.375 32.9375ZM31.375 34.8125C30.9844 34.8125 30.6182 34.8857 30.2764 35.0322C29.9346 35.1787 29.6367 35.3789 29.3828 35.6328C29.1289 35.8867 28.9287 36.1846 28.7822 36.5264C28.6357 36.8682 28.5625 37.2344 28.5625 37.625C28.5625 38.0156 28.6357 38.3818 28.7822 38.7236C28.9287 39.0654 29.1289 39.3633 29.3828 39.6172C29.6367 39.8711 29.9346 40.0713 30.2764 40.2178C30.6182 40.3643 30.9844 40.4375 31.375 40.4375C31.7656 40.4375 32.1318 40.3643 32.4736 40.2178C32.8154 40.0713 33.1133 39.8711 33.3672 39.6172C33.6211 39.3633 33.8213 39.0654 33.9678 38.7236C34.1143 38.3818 34.1875 38.0156 34.1875 37.625C34.1875 37.2344 34.1143 36.8682 33.9678 36.5264C33.8213 36.1846 33.6211 35.8867 33.3672 35.6328C33.1133 35.3789 32.8154 35.1787 32.4736 35.0322C32.1318 34.8857 31.7656 34.8125 31.375 34.8125ZM33.25 43.6016V41.917C32.6641 42.1807 32.0391 42.3125 31.375 42.3125C30.7109 42.3125 30.0859 42.1807 29.5 41.917V43.6016L31.375 42.6641L33.25 43.6016ZM31.375 24.5C30.8574 24.5 30.374 24.5977 29.9248 24.793C29.4756 24.9883 29.0752 25.2568 28.7236 25.5986C28.3721 25.9404 28.1035 26.3359 27.918 26.7852C27.7324 27.2344 27.6348 27.7227 27.625 28.25C27.625 29.1484 27.4248 29.9932 27.0244 30.7842C26.624 31.5752 26.0576 32.2441 25.3252 32.791C25.5107 32.8789 25.6865 32.9766 25.8525 33.084C26.0186 33.1914 26.1895 33.3037 26.3652 33.4209L25.2666 34.9443C24.7881 34.6025 24.2705 34.3389 23.7139 34.1533C23.1572 33.9678 22.5859 33.875 22 33.875C21.2188 33.875 20.4912 34.0215 19.8174 34.3145C19.1436 34.6074 18.5479 35.0078 18.0303 35.5156C17.5127 36.0234 17.1074 36.624 16.8145 37.3174C16.5215 38.0107 16.375 38.7383 16.375 39.5H14.5C14.5 38.7871 14.5977 38.0986 14.793 37.4346C14.9883 36.7705 15.2666 36.1455 15.6279 35.5596C15.9893 34.9736 16.4238 34.4463 16.9316 33.9775C17.4395 33.5088 18.0156 33.1084 18.6602 32.7764C17.9375 32.2393 17.376 31.5752 16.9756 30.7842C16.5752 29.9932 16.375 29.1484 16.375 28.25C16.375 27.7324 16.2773 27.249 16.082 26.7998C15.8867 26.3506 15.6182 25.9502 15.2764 25.5986C14.9346 25.2471 14.5391 24.9785 14.0898 24.793C13.6406 24.6074 13.1523 24.5098 12.625 24.5C12.1074 24.5 11.624 24.5977 11.1748 24.793C10.7256 24.9883 10.3252 25.2568 9.97363 25.5986C9.62207 25.9404 9.35352 26.3359 9.16797 26.7852C8.98242 27.2344 8.88477 27.7227 8.875 28.25H7C7 27.7422 7.06836 27.249 7.20508 26.7705C7.3418 26.292 7.53223 25.8379 7.77637 25.4082C8.02051 24.9785 8.32324 24.5879 8.68457 24.2363C9.0459 23.8848 9.45117 23.582 9.90039 23.3281C9.57812 22.9863 9.3291 22.5908 9.15332 22.1416C8.97754 21.6924 8.88477 21.2285 8.875 20.75C8.875 20.2324 8.97266 19.749 9.16797 19.2998C9.36328 18.8506 9.63184 18.4502 9.97363 18.0986C10.3154 17.7471 10.7109 17.4785 11.1602 17.293C11.6094 17.1074 12.0977 17.0098 12.625 17C13.1426 17 13.626 17.0977 14.0752 17.293C14.5244 17.4883 14.9248 17.7568 15.2764 18.0986C15.6279 18.4404 15.8965 18.8359 16.082 19.2852C16.2676 19.7344 16.3652 20.2227 16.375 20.75C16.375 21.2285 16.2871 21.6924 16.1113 22.1416C15.9355 22.5908 15.6816 22.9863 15.3496 23.3281C16.1504 23.7676 16.8047 24.373 17.3125 25.1445C17.5762 24.7539 17.8789 24.4023 18.2207 24.0898C18.5625 23.7773 18.9336 23.5137 19.334 23.2988C19.7344 23.084 20.1592 22.918 20.6084 22.8008C21.0576 22.6836 21.5215 22.625 22 22.625C22.4688 22.625 22.9277 22.6836 23.377 22.8008C23.8262 22.918 24.251 23.084 24.6514 23.2988C25.0518 23.5137 25.4277 23.7773 25.7793 24.0898C26.1309 24.4023 26.4336 24.7539 26.6875 25.1445C27.1953 24.373 27.8496 23.7676 28.6504 23.3281C28.3281 22.9863 28.0791 22.5908 27.9033 22.1416C27.7275 21.6924 27.6348 21.2285 27.625 20.75C27.625 20.2324 27.7227 19.749 27.918 19.2998C28.1133 18.8506 28.3818 18.4502 28.7236 18.0986C29.0654 17.7471 29.4609 17.4785 29.9102 17.293C30.3594 17.1074 30.8477 17.0098 31.375 17C31.8926 17 32.376 17.0977 32.8252 17.293C33.2744 17.4883 33.6748 17.7568 34.0264 18.0986C34.3779 18.4404 34.6465 18.8359 34.832 19.2852C35.0176 19.7344 35.1152 20.2227 35.125 20.75C35.125 21.2285 35.0371 21.6924 34.8613 22.1416C34.6855 22.5908 34.4316 22.9863 34.0996 23.3281C34.5488 23.582 34.9492 23.8848 35.3008 24.2363C35.6523 24.5879 35.9551 24.9736 36.209 25.3936C36.4629 25.8135 36.6582 26.2676 36.7949 26.7559C36.9316 27.2441 37 27.7422 37 28.25H35.125C35.125 27.7324 35.0273 27.249 34.832 26.7998C34.6367 26.3506 34.3682 25.9502 34.0264 25.5986C33.6846 25.2471 33.2891 24.9785 32.8398 24.793C32.3906 24.6074 31.9023 24.5098 31.375 24.5ZM29.5 20.75C29.5 21.0137 29.5488 21.2578 29.6465 21.4824C29.7441 21.707 29.876 21.9023 30.042 22.0684C30.208 22.2344 30.4082 22.3711 30.6426 22.4785C30.877 22.5859 31.1211 22.6348 31.375 22.625C31.6387 22.625 31.8828 22.5762 32.1074 22.4785C32.332 22.3809 32.5273 22.249 32.6934 22.083C32.8594 21.917 32.9961 21.7168 33.1035 21.4824C33.2109 21.248 33.2598 21.0039 33.25 20.75C33.25 20.4863 33.2012 20.2422 33.1035 20.0176C33.0059 19.793 32.874 19.5977 32.708 19.4316C32.542 19.2656 32.3418 19.1289 32.1074 19.0215C31.873 18.9141 31.6289 18.8652 31.375 18.875C31.1113 18.875 30.8672 18.9238 30.6426 19.0215C30.418 19.1191 30.2227 19.251 30.0566 19.417C29.8906 19.583 29.7539 19.7832 29.6465 20.0176C29.5391 20.252 29.4902 20.4961 29.5 20.75ZM10.75 20.75C10.75 21.0137 10.7988 21.2578 10.8965 21.4824C10.9941 21.707 11.126 21.9023 11.292 22.0684C11.458 22.2344 11.6582 22.3711 11.8926 22.4785C12.127 22.5859 12.3711 22.6348 12.625 22.625C12.8887 22.625 13.1328 22.5762 13.3574 22.4785C13.582 22.3809 13.7773 22.249 13.9434 22.083C14.1094 21.917 14.2461 21.7168 14.3535 21.4824C14.4609 21.248 14.5098 21.0039 14.5 20.75C14.5 20.4863 14.4512 20.2422 14.3535 20.0176C14.2559 19.793 14.124 19.5977 13.958 19.4316C13.792 19.2656 13.5918 19.1289 13.3574 19.0215C13.123 18.9141 12.8789 18.8652 12.625 18.875C12.3613 18.875 12.1172 18.9238 11.8926 19.0215C11.668 19.1191 11.4727 19.251 11.3066 19.417C11.1406 19.583 11.0039 19.7832 10.8965 20.0176C10.7891 20.252 10.7402 20.4961 10.75 20.75ZM18.25 28.25C18.25 28.7676 18.3477 29.251 18.543 29.7002C18.7383 30.1494 19.0068 30.5498 19.3486 30.9014C19.6904 31.2529 20.0859 31.5215 20.5352 31.707C20.9844 31.8926 21.4727 31.9902 22 32C22.5176 32 23.001 31.9023 23.4502 31.707C23.8994 31.5117 24.2998 31.2432 24.6514 30.9014C25.0029 30.5596 25.2715 30.1641 25.457 29.7148C25.6426 29.2656 25.7402 28.7773 25.75 28.25C25.75 27.7324 25.6523 27.249 25.457 26.7998C25.2617 26.3506 24.9932 25.9502 24.6514 25.5986C24.3096 25.2471 23.9141 24.9785 23.4648 24.793C23.0156 24.6074 22.5273 24.5098 22 24.5C21.4824 24.5 20.999 24.5977 20.5498 24.793C20.1006 24.9883 19.7002 25.2568 19.3486 25.5986C18.9971 25.9404 18.7285 26.3359 18.543 26.7852C18.3574 27.2344 18.2598 27.7227 18.25 28.25Z" fill="#F6B205"/>
</svg>
