<svg width="52" height="57" viewBox="0 0 52 57" fill="none" xmlns="http://www.w3.org/2000/svg">
<path d="M11.2147 19.4589C12.7615 17.9119 14.8361 17.007 17.0222 16.9259C19.2083 16.8448 21.3442 17.5934 23.0014 19.0216C24.6571 17.5958 26.7902 16.848 28.9737 16.9279C31.1572 17.0078 33.2299 17.9095 34.777 19.4525C36.324 20.9955 37.2311 23.0659 37.3167 25.2491C37.4024 27.4324 36.6602 29.5675 35.2387 31.2269L24.8854 41.6136C24.4097 42.0894 23.7718 42.3678 23.0994 42.3931C22.4271 42.4183 21.77 42.1884 21.2601 41.7496L21.1134 41.6149L10.7614 31.2269C9.34071 29.5689 8.59816 27.4358 8.68221 25.2541C8.76626 23.0723 9.6707 21.0026 11.2147 19.4589ZM13.1001 21.3442C12.0097 22.4349 11.3812 23.9035 11.3449 25.4452C11.3087 26.987 11.8675 28.4835 12.9054 29.6242L13.1001 29.8296L23.0001 39.7296L30.0707 32.6562L25.3574 27.9442L23.9441 29.3576C23.194 30.1079 22.1766 30.5296 21.1157 30.5299C20.0547 30.5301 19.0371 30.1089 18.2867 29.3589C17.5363 28.6089 17.1146 27.5915 17.1144 26.5305C17.1141 25.4695 17.5354 24.4519 18.2854 23.7016L21.0881 20.8976C19.9727 20.0074 18.5766 19.5438 17.1503 19.59C15.724 19.6362 14.3608 20.1891 13.3054 21.1496L13.1001 21.3442ZM24.4147 25.1149C24.6648 24.8649 25.0038 24.7245 25.3574 24.7245C25.7109 24.7245 26.05 24.8649 26.3001 25.1149L31.9561 30.7709L32.9001 29.8296C34.0087 28.7217 34.6398 27.2241 34.6585 25.657C34.6772 24.0898 34.082 22.5776 33.0001 21.4436C31.9182 20.3097 30.4356 19.644 28.8693 19.5891C27.303 19.5341 25.7774 20.0942 24.6187 21.1496L24.4147 21.3442L20.1721 25.5869C19.941 25.8178 19.8027 26.1256 19.7835 26.4518C19.7643 26.7779 19.8656 27.0998 20.0681 27.3562L20.1721 27.4722C20.403 27.7033 20.7108 27.8416 21.0369 27.8608C21.3631 27.8799 21.685 27.7787 21.9414 27.5762L22.0574 27.4722L24.4147 25.1149Z" fill="#F6B205"/>
<path d="M45 34.5C45 44.4411 36.9411 52.5 27 52.5L6 52.5C3.23857 52.5 0.999996 50.2614 0.999997 47.5L0.999999 18.5C1 12.9771 5.47715 8.5 11 8.5L40 8.5C42.7614 8.5 45 10.7386 45 13.5L45 34.5Z" fill="#F6B205" fill-opacity="0.1"/>
</svg>
