<svg width="25" height="24" viewBox="0 0 25 24" fill="none" xmlns="http://www.w3.org/2000/svg">
<g id="fluent:food-24-filled">
<path id="Vector" d="M18.5 3C18.7449 3.00003 18.9813 3.08996 19.1644 3.25272C19.3474 3.41547 19.4643 3.63975 19.493 3.883L19.5 4V20C19.4997 20.2549 19.4021 20.5 19.2272 20.6854C19.0522 20.8707 18.813 20.9822 18.5586 20.9972C18.3042 21.0121 18.0536 20.9293 17.8582 20.7657C17.6627 20.6021 17.5371 20.3701 17.507 20.117L17.5 20V15H16.5C16.2551 15 16.0187 14.91 15.8356 14.7473C15.6526 14.5845 15.5357 14.3603 15.507 14.117L15.5 14V8C15.5 5.79 17 3 18.5 3ZM12.5 3C12.7449 3.00003 12.9813 3.08996 13.1644 3.25272C13.3474 3.41547 13.4643 3.63975 13.493 3.883L13.5 4V9C13.4999 9.88687 13.2052 10.7486 12.6622 11.4498C12.1192 12.151 11.3586 12.6519 10.5 12.874V20C10.4997 20.2549 10.4021 20.5 10.2272 20.6854C10.0522 20.8707 9.81305 20.9822 9.55861 20.9972C9.30416 21.0121 9.05362 20.9293 8.85817 20.7657C8.66271 20.6021 8.5371 20.3701 8.507 20.117L8.5 20V12.874C7.67545 12.6608 6.94041 12.1902 6.40176 11.5305C5.86312 10.8708 5.54897 10.0565 5.505 9.206L5.5 9V4C5.50028 3.74512 5.59788 3.49997 5.77285 3.31463C5.94782 3.1293 6.18695 3.01777 6.44139 3.00283C6.69584 2.98789 6.94638 3.07067 7.14183 3.23426C7.33729 3.39786 7.4629 3.6299 7.493 3.883L7.5 4V9C7.50001 9.35106 7.59243 9.69594 7.76796 9.99997C7.9435 10.304 8.19597 10.5565 8.5 10.732V4C8.50028 3.74512 8.59788 3.49997 8.77285 3.31463C8.94782 3.1293 9.18695 3.01777 9.44139 3.00283C9.69584 2.98789 9.94638 3.07067 10.1418 3.23426C10.3373 3.39786 10.4629 3.6299 10.493 3.883L10.5 4L10.501 10.732C10.7801 10.5707 11.016 10.3443 11.1887 10.0722C11.3614 9.80004 11.4658 9.49018 11.493 9.169L11.5 9V4C11.5 3.73478 11.6054 3.48043 11.7929 3.29289C11.9804 3.10536 12.2348 3 12.5 3Z" fill="#F6B205"/>
</g>
</svg>
