<svg width="24" height="24" viewBox="0 0 24 24" fill="none" xmlns="http://www.w3.org/2000/svg">
<g id="fluent-emoji-high-contrast:chopsticks">
<path id="Vector" d="M10.4255 6.69769L6.53678 22.0157C6.49501 22.1838 6.38818 22.3284 6.23979 22.4177C6.0914 22.507 5.91361 22.5337 5.74553 22.4919C5.57745 22.4502 5.43285 22.3433 5.34353 22.1949C5.25422 22.0466 5.22751 21.8688 5.26928 21.7007L8.71928 6.21019L10.427 6.69769H10.4255ZM10.6108 5.97019L11.441 2.70318C11.6285 1.99818 10.9835 1.35318 10.2785 1.54068C9.94103 1.63068 9.68603 1.90068 9.60353 2.23818L8.88203 5.47744L10.6108 5.97019ZM16.193 8.48269L8.53178 22.1732C8.47342 22.2728 8.39022 22.3555 8.29032 22.4134C8.19041 22.4712 8.07721 22.5022 7.96178 22.5032C7.46678 22.5032 7.15178 21.9782 7.38428 21.5357L14.5993 7.70944L16.1945 8.48194L16.193 8.48269ZM14.9458 7.04419L16.6085 3.85819C16.7735 3.55069 17.096 3.35568 17.441 3.35568C18.1685 3.35568 18.626 4.14319 18.266 4.78069L16.5605 7.82644L14.9458 7.04419Z" fill="white"/>
</g>
</svg>
