<svg width="24" height="25" viewBox="0 0 24 25" fill="none" xmlns="http://www.w3.org/2000/svg">
<g id="ri:instagram-fill">
<path id="Vector" d="M13.0286 2.20143C13.7583 2.19863 14.488 2.20596 15.2176 2.22343L15.4116 2.23043C15.6356 2.23843 15.8566 2.24843 16.1236 2.26043C17.1876 2.31043 17.9136 2.47843 18.5506 2.72543C19.2106 2.97943 19.7666 3.32343 20.3226 3.87943C20.831 4.37903 21.2244 4.98337 21.4756 5.65043C21.7226 6.28743 21.8906 7.01443 21.9406 8.07843C21.9526 8.34443 21.9626 8.56643 21.9706 8.79043L21.9766 8.98443C21.9943 9.71362 22.002 10.443 21.9996 11.1724L22.0006 11.9184V13.2284C22.003 13.9582 21.9954 14.6879 21.9776 15.4174L21.9716 15.6114C21.9636 15.8354 21.9536 16.0564 21.9416 16.3234C21.8916 17.3874 21.7216 18.1134 21.4756 18.7504C21.2252 19.4182 20.8317 20.023 20.3226 20.5224C19.8225 21.0307 19.2179 21.4242 18.5506 21.6754C17.9136 21.9224 17.1876 22.0904 16.1236 22.1404C15.8566 22.1524 15.6356 22.1624 15.4116 22.1704L15.2176 22.1764C14.4881 22.1942 13.7583 22.2019 13.0286 22.1994L12.2826 22.2004H10.9736C10.2438 22.2029 9.5141 22.1952 8.78458 22.1774L8.59058 22.1714C8.35319 22.1628 8.11585 22.1528 7.87858 22.1414C6.81458 22.0914 6.08858 21.9214 5.45058 21.6754C4.78326 21.4248 4.17881 21.0312 3.67958 20.5224C3.17062 20.0227 2.7768 19.418 2.52558 18.7504C2.27858 18.1134 2.11058 17.3874 2.06058 16.3234C2.04944 16.0861 2.03944 15.8488 2.03058 15.6114L2.02558 15.4174C2.00714 14.6879 1.99881 13.9582 2.00058 13.2284V11.1724C1.99779 10.443 2.00512 9.71362 2.02258 8.98443L2.02958 8.79043C2.03758 8.56643 2.04758 8.34443 2.05958 8.07843C2.10958 7.01343 2.27758 6.28843 2.52458 5.65043C2.77595 4.98305 3.17054 4.37887 3.68058 3.88043C4.17947 3.37118 4.78354 2.977 5.45058 2.72543C6.08858 2.47843 6.81358 2.31043 7.87858 2.26043L8.59058 2.23043L8.78458 2.22543C9.51376 2.207 10.2432 2.19866 10.9726 2.20043L13.0286 2.20143ZM12.0006 7.20143C11.3381 7.19206 10.6803 7.31445 10.0656 7.56149C9.45077 7.80854 8.89122 8.1753 8.41942 8.64048C7.94762 9.10566 7.57298 9.65996 7.31726 10.2712C7.06155 10.8824 6.92987 11.5384 6.92987 12.2009C6.92987 12.8635 7.06155 13.5194 7.31726 14.1307C7.57298 14.7419 7.94762 15.2962 8.41942 15.7614C8.89122 16.2265 9.45077 16.5933 10.0656 16.8404C10.6803 17.0874 11.3381 17.2098 12.0006 17.2004C13.3267 17.2004 14.5984 16.6736 15.5361 15.736C16.4738 14.7983 17.0006 13.5265 17.0006 12.2004C17.0006 10.8743 16.4738 9.60257 15.5361 8.66489C14.5984 7.72721 13.3267 7.20143 12.0006 7.20143ZM12.0006 9.20143C12.3991 9.19408 12.7951 9.26622 13.1654 9.41363C13.5357 9.56104 13.8729 9.78077 14.1574 10.06C14.4418 10.3392 14.6678 10.6723 14.822 11.0398C14.9763 11.4073 15.0558 11.8018 15.0558 12.2004C15.0559 12.599 14.9766 12.9936 14.8224 13.3611C14.6683 13.7287 14.4424 14.0619 14.1581 14.3412C13.8737 14.6205 13.5366 14.8403 13.1663 14.9878C12.796 15.1354 12.4001 15.2076 12.0016 15.2004C11.2059 15.2004 10.4429 14.8844 9.88026 14.3217C9.31765 13.7591 9.00158 12.9961 9.00158 12.2004C9.00158 11.4048 9.31765 10.6417 9.88026 10.0791C10.4429 9.5165 11.2059 9.20043 12.0016 9.20043L12.0006 9.20143ZM17.2506 5.70143C16.928 5.71434 16.6229 5.85158 16.3992 6.0844C16.1755 6.31722 16.0506 6.62756 16.0506 6.95043C16.0506 7.27329 16.1755 7.58363 16.3992 7.81645C16.6229 8.04928 16.928 8.18651 17.2506 8.19943C17.5821 8.19943 17.9 8.06773 18.1345 7.83331C18.3689 7.59889 18.5006 7.28095 18.5006 6.94943C18.5006 6.61791 18.3689 6.29996 18.1345 6.06554C17.9 5.83112 17.5821 5.69943 17.2506 5.69943V5.70143Z" fill="white"/>
</g>
</svg>
