<svg width="18" height="19" viewBox="0 0 18 19" fill="none" xmlns="http://www.w3.org/2000/svg">
<path d="M9 8.75C9.4125 8.75 9.76575 8.603 10.0598 8.309C10.3538 8.015 10.5005 7.662 10.5 7.25C10.5 6.8375 10.353 6.48425 10.059 6.19025C9.765 5.89625 9.412 5.7495 9 5.75C8.5875 5.75 8.23425 5.897 7.94025 6.191C7.64625 6.485 7.4995 6.838 7.5 7.25C7.5 7.6625 7.647 8.01575 7.941 8.30975C8.235 8.60375 8.588 8.7505 9 8.75ZM5.25 16.25V14.75H8.25V12.425C7.6375 12.2875 7.0905 12.028 6.609 11.6465C6.1275 11.265 5.7745 10.787 5.55 10.2125C4.6125 10.1 3.828 9.69075 3.1965 8.98475C2.565 8.27875 2.2495 7.4505 2.25 6.5V5.75C2.25 5.3375 2.397 4.98425 2.691 4.69025C2.985 4.39625 3.338 4.2495 3.75 4.25H5.25V2.75H12.75V4.25H14.25C14.6625 4.25 15.0157 4.397 15.3097 4.691C15.6038 4.985 15.7505 5.338 15.75 5.75V6.5C15.75 7.45 15.4342 8.27825 14.8027 8.98475C14.1712 9.69125 13.387 10.1005 12.45 10.2125C12.225 10.7875 11.8718 11.2657 11.3903 11.6473C10.9088 12.0288 10.362 12.288 9.75 12.425V14.75H12.75V16.25H5.25ZM5.25 8.6V5.75H3.75V6.5C3.75 6.975 3.8875 7.40325 4.1625 7.78475C4.4375 8.16625 4.8 8.438 5.25 8.6ZM12.75 8.6C13.2 8.4375 13.5625 8.1655 13.8375 7.784C14.1125 7.4025 14.25 6.9745 14.25 6.5V5.75H12.75V8.6Z" fill="white"/>
</svg>
