<svg width="66" height="58" viewBox="0 0 66 58" fill="none" xmlns="http://www.w3.org/2000/svg">
<path d="M65.5 38C65.5 47.9411 57.4411 56 47.5 56L20.5 56C17.7386 56 15.5 53.7614 15.5 51L15.5 17C15.5 11.4772 19.9772 7 25.5 7L60.5 7C63.2614 7 65.5 9.23858 65.5 12L65.5 38Z" fill="#F6B205" fill-opacity="0.1"/>
<path d="M26 36.6C25.6 35.6 25.6 34.8 25.8 34H7V19L19 27L31 19V22.4C32.2 21.8 33.2 21.8 33.8 21.8C34 21.6 34.4 21.4 34.8 21.2V15.2C35 13.4 33.6 12 31.8 12H6.2C4.4 12 3 13.4 3 15.2V34.8C3 36.6 4.4 38 6.2 38H26.8C26.4 37.6 26.2 37.2 26 36.6ZM31 16L19 24L7 16H31ZM46.2 29.8C45.8 28.6 44.8 28.4 44.2 27.8C43.8 27.2 43.8 26 42.8 25.4C41.8 24.6 40.8 25 40 24.8C39.2 24.6 38.6 23.6 37.4 23.6C36.2 23.6 35.6 24.4 34.8 24.8C34 25 33 24.6 32 25.4C31 26 31.2 27 30.6 27.8C30 28.4 29 28.8 28.6 29.8C28.2 31 29 31.8 29 32.6C29 33.4 28.2 34.2 28.6 35.4C29 36.6 30 36.8 30.6 37.4C31 38 31 39.2 32 39.8C33 40.6 34 40.2 34.8 40.4C35.6 40.6 36.2 41.6 37.4 41.6C38.6 41.6 39.2 40.8 40 40.4C40.8 40.2 41.8 40.6 42.8 39.8C43.8 39 43.8 38 44.2 37.4C44.8 36.8 45.8 36.4 46.2 35.4C46.6 34.2 45.8 33.4 45.8 32.6C45.8 31.8 46.6 31 46.2 29.8ZM37.4 38.8C34 38.8 31.4 36 31.4 32.8C31.4 29.6 34.2 26.8 37.4 26.8C40.6 26.8 43.4 29.6 43.4 32.8C43.4 36 40.8 38.8 37.4 38.8ZM40.4 32.6C40.4 34.2 39 35.6 37.4 35.6C35.8 35.6 34.4 34.2 34.4 32.6C34.4 31 35.8 29.6 37.4 29.6C39 29.6 40.4 31 40.4 32.6ZM40 44.2L39 49.6L37.8 55.8L33.8 52L29 54.2L31 42.8C31.8 43.2 32.8 43.4 33.8 43.4C34.4 43.8 35.2 44.2 35.8 44.4C36.2 44.6 36.8 44.6 37.4 44.6C38.4 44.8 39.2 44.6 40 44.2ZM46.4 49L42.4 47.6L43.2 43.2L44.4 42.6L44.6 42.4L46.4 49Z" fill="#F6B205"/>
</svg>
