<svg width="68" height="59" viewBox="0 0 68 59" fill="none" xmlns="http://www.w3.org/2000/svg">
<path d="M67.5 41C67.5 50.9411 59.4411 59 49.5 59L22.5 59C19.7386 59 17.5 56.7614 17.5 54L17.5 20C17.5 14.4772 21.9772 10 27.5 10L62.5 10C65.2614 10 67.5 12.2386 67.5 15L67.5 41Z" fill="#F6B205" fill-opacity="0.1"/>
<path d="M24 3L6 9V27C6 36.9422 14.0578 45 24 45C33.9422 45 42 36.9422 42 27V9L24 3ZM38.625 27C38.625 35.0766 32.0766 41.625 24 41.625C15.9234 41.625 9.375 35.0766 9.375 27V11.5312L24 6.375L38.625 11.5312V27Z" fill="#F6B205"/>
<path d="M17.7371 22.2703C17.5807 22.1132 17.3948 21.9885 17.1901 21.9034C16.9854 21.8184 16.7659 21.7746 16.5442 21.7746C16.3225 21.7746 16.103 21.8184 15.8982 21.9034C15.6935 21.9885 15.5076 22.1132 15.3512 22.2703C15.1941 22.4267 15.0694 22.6126 14.9843 22.8173C14.8993 23.0221 14.8555 23.2416 14.8555 23.4633C14.8555 23.685 14.8993 23.9045 14.9843 24.1092C15.0694 24.3139 15.1941 24.4998 15.3512 24.6563L21.4168 30.7219L21.5153 30.8203C21.6632 30.9685 21.8389 31.0861 22.0324 31.1664C22.2258 31.2466 22.4332 31.2879 22.6426 31.2879C22.852 31.2879 23.0594 31.2466 23.2528 31.1664C23.4463 31.0861 23.622 30.9685 23.77 30.8203L34.2465 20.3438C34.3947 20.1958 34.5123 20.0201 34.5926 19.8266C34.6728 19.6332 34.7141 19.4258 34.7141 19.2164C34.7141 19.007 34.6728 18.7996 34.5926 18.6062C34.5123 18.4127 34.3947 18.237 34.2465 18.0891L34.1153 17.9578C33.9673 17.8096 33.7916 17.692 33.5982 17.6118C33.4047 17.5315 33.1973 17.4902 32.9879 17.4902C32.7785 17.4902 32.5711 17.5315 32.3777 17.6118C32.1842 17.692 32.0085 17.8096 31.8606 17.9578L22.6403 27.1734L17.7371 22.2703Z" fill="#F6B205"/>
</svg>
