<svg width="70" height="56" viewBox="0 0 70 56" fill="none" xmlns="http://www.w3.org/2000/svg">
<path d="M69.5 38C69.5 47.9411 61.4411 56 51.5 56L24.5 56C21.7386 56 19.5 53.7614 19.5 51L19.5 17C19.5 11.4772 23.9772 7 29.5 7L64.5 7C67.2614 7 69.5 9.23858 69.5 12L69.5 38Z" fill="#F6B205" fill-opacity="0.1"/>
<path d="M40 18H46V22H44V44H46V48H2V44H4V22H2V18H8V14C8 13.4696 8.21071 12.9609 8.58579 12.5858C8.96086 12.2107 9.46957 12 10 12H38C38.5304 12 39.0391 12.2107 39.4142 12.5858C39.7893 12.9609 40 13.4696 40 14V18ZM40 22H8V44H14V30H18V44H22V30H26V44H30V30H34V44H40V22ZM12 16V18H36V16H12Z" fill="#F6B205"/>
</svg>
