<svg width="52" height="57" viewBox="0 0 52 57" fill="none" xmlns="http://www.w3.org/2000/svg">
<path d="M45 34.5C45 44.4411 36.9411 52.5 27 52.5L6 52.5C3.23857 52.5 0.999996 50.2614 0.999997 47.5L0.999999 18.5C1 12.9771 5.47715 8.5 11 8.5L40 8.5C42.7614 8.5 45 10.7386 45 13.5L45 34.5Z" fill="#F6B205" fill-opacity="0.1"/>
<path d="M31.9855 22.1248C31.5911 21.7639 31.1614 21.4436 30.703 21.1685L29.6035 20.5085C28.5842 19.8969 27.4634 19.4732 26.2945 19.2575L25.9015 19.1855C23.7882 18.7954 21.7501 18.0727 19.8632 17.0443C19.7781 16.6671 19.5902 16.3208 19.3204 16.0438C19.0505 15.7669 18.7093 15.57 18.3344 15.4752C17.9596 15.3803 17.5657 15.391 17.1966 15.5063C16.8275 15.6215 16.4975 15.8366 16.2432 16.1279C15.9889 16.4192 15.8202 16.7752 15.7558 17.1565C15.6914 17.5378 15.7339 17.9295 15.8785 18.2881C16.023 18.6468 16.2641 18.9584 16.575 19.1884C16.8858 19.4184 17.2542 19.5578 17.6395 19.5913C18.8815 20.8062 19.9308 22.2036 20.7512 23.735" stroke="#F6B205" stroke-width="2.5" stroke-linecap="round" stroke-linejoin="round"/>
<path d="M13.4803 29.2646C13.2838 29.4746 11 31.9871 11 34.4996C11 37.1246 12.1685 38.2496 13.25 38.9996C14.3315 39.7496 16.04 40.4996 17.4575 40.4996C18.875 40.4996 26.375 41.2496 29.75 40.4996C33.125 39.7496 33.5 38.9996 35 37.4996C35.8107 36.6888 36.4115 35.5481 36.7925 34.6721C37.1577 33.8222 37.4524 32.9437 37.6737 32.0456C37.9437 30.9686 38.216 29.4221 38 28.1246C37.625 25.8746 36.5 24.3746 32.75 22.4996C29.297 20.7731 26.2648 21.5906 25.8065 21.7308C25.766 21.7435 25.7257 21.757 25.6857 21.7713C25.0857 21.9836 20.237 23.7183 18.1782 25.1246C16.0767 26.5601 13.7068 29.0261 13.5073 29.2353C13.4982 29.2447 13.4892 29.2542 13.4803 29.2638V29.2646Z" stroke="#F6B205" stroke-width="2.5" stroke-linecap="round" stroke-linejoin="round"/>
<path d="M9.57697 25.5073C9.19174 25.4739 8.82328 25.3344 8.51245 25.1044C8.20162 24.8744 7.96055 24.5628 7.81596 24.2041C7.67137 23.8455 7.62891 23.4538 7.69328 23.0725C7.75766 22.6913 7.92635 22.3352 8.18067 22.044C8.43499 21.7527 8.765 21.5375 9.13412 21.4223C9.50324 21.307 9.89705 21.2963 10.2719 21.3912C10.6468 21.4861 10.988 21.6829 11.2579 21.9599C11.5277 22.2368 11.7156 22.5831 11.8007 22.9603C13.6877 23.9885 15.7257 24.7109 17.839 25.1008L18.232 25.1736C19.4012 25.3888 20.5217 25.8126 21.541 26.4246L22.6405 27.0838C23.3751 27.5248 24.0341 28.0812 24.592 28.7316L24.8965 29.0856C25.3503 29.6145 25.6872 30.2333 25.8852 30.9015C26.0832 31.5698 26.1378 32.2723 26.0455 32.9631L26.0245 33.1213C25.8975 34.0732 25.4669 34.9588 24.7967 35.6466L24.4502 36.0013C23.8867 36.5794 23.1916 37.0126 22.4243 37.2639C21.657 37.5152 20.8404 37.5771 20.044 37.4443C18.7938 37.2359 17.6365 36.6527 16.7252 35.7718L16.171 35.2363C15.7253 34.8057 15.3389 34.3176 15.022 33.7851L13.393 31.0461L12.9175 30.0936C12.0676 28.3889 10.9385 26.8393 9.57697 25.5073Z" stroke="#F6B205" stroke-width="2.5" stroke-linecap="round" stroke-linejoin="round"/>
</svg>
