<svg width="52" height="57" viewBox="0 0 52 57" fill="none" xmlns="http://www.w3.org/2000/svg">
<path d="M45 34.5C45 44.4411 36.9411 52.5 27 52.5L6 52.5C3.23857 52.5 0.999996 50.2614 0.999997 47.5L0.999999 18.5C1 12.9771 5.47715 8.5 11 8.5L40 8.5C42.7614 8.5 45 10.7386 45 13.5L45 34.5Z" fill="#B71A1B" fill-opacity="0.1"/>
<path d="M12.5 38C12.5 38.7956 12.8161 39.5587 13.3787 40.1213C13.9413 40.6839 14.7044 41 15.5 41C16.2956 41 17.0587 40.6839 17.6213 40.1213C18.1839 39.5587 18.5 38.7956 18.5 38C18.5 37.2044 18.1839 36.4413 17.6213 35.8787C17.0587 35.3161 16.2956 35 15.5 35C14.7044 35 13.9413 35.3161 13.3787 35.8787C12.8161 36.4413 12.5 37.2044 12.5 38ZM27.5 38C27.5 38.7956 27.8161 39.5587 28.3787 40.1213C28.9413 40.6839 29.7044 41 30.5 41C31.2956 41 32.0587 40.6839 32.6213 40.1213C33.1839 39.5587 33.5 38.7956 33.5 38C33.5 37.2044 33.1839 36.4413 32.6213 35.8787C32.0587 35.3161 31.2956 35 30.5 35C29.7044 35 28.9413 35.3161 28.3787 35.8787C27.8161 36.4413 27.5 37.2044 27.5 38Z" stroke="#B71A1B" stroke-width="2" stroke-linecap="round" stroke-linejoin="round"/>
<path d="M12.5 38H9.5V32M8 20H24.5V38M18.5 38H27.5M33.5 38H36.5V29M36.5 29H24.5M36.5 29L32 21.5H24.5M9.5 26H15.5" stroke="#B71A1B" stroke-width="2" stroke-linecap="round" stroke-linejoin="round"/>
</svg>
