<svg width="52" height="56" viewBox="0 0 52 56" fill="none" xmlns="http://www.w3.org/2000/svg">
<path d="M45 34C45 43.9411 36.9411 52 27 52L6 52C3.23857 52 0.999996 49.7614 0.999997 47L0.999999 18C1 12.4771 5.47715 8 11 8L40 8C42.7614 8 45 10.2386 45 13L45 34Z" fill="#B71A1B" fill-opacity="0.1"/>
<path d="M22 15.875L35 22.375V38.625L22 45.1094L9 38.625V22.375L22 15.875ZM31.7656 23L22 18.125L18.2344 20L27.9375 24.9062L31.7656 23ZM22 27.875L25.7188 26.0312L16 21.125L12.2344 23L22 27.875ZM11 24.625V37.375L21 42.375V29.625L11 24.625ZM23 42.375L33 37.375V24.625L23 29.625V42.375Z" fill="#B71A1B"/>
</svg>
