<svg width="52" height="57" viewBox="0 0 52 57" fill="none" xmlns="http://www.w3.org/2000/svg">
<path d="M45 34.5C45 44.4411 36.9411 52.5 27 52.5L6 52.5C3.23857 52.5 0.999996 50.2614 0.999997 47.5L0.999999 18.5C1 12.9771 5.47715 8.5 11 8.5L40 8.5C42.7614 8.5 45 10.7386 45 13.5L45 34.5Z" fill="#55230F" fill-opacity="0.1"/>
<path d="M23.0011 23.9998C21.7156 23.9998 20.4589 24.381 19.3899 25.0952C18.321 25.8094 17.4879 26.8246 16.9959 28.0123C16.504 29.2 16.3752 30.507 16.626 31.7679C16.8768 33.0287 17.4959 34.1869 18.4049 35.096C19.314 36.005 20.4722 36.6241 21.7331 36.8749C22.9939 37.1257 24.3009 36.997 25.4886 36.505C26.6763 36.013 27.6915 35.1799 28.4057 34.111C29.1199 33.0421 29.5011 31.7854 29.5011 30.4998C29.4992 28.7765 28.8137 27.1243 27.5951 25.9058C26.3766 24.6872 24.7244 24.0018 23.0011 23.9998ZM23.0011 33.9998C22.3089 33.9998 21.6322 33.7945 21.0566 33.4099C20.4811 33.0253 20.0325 32.4787 19.7676 31.8392C19.5027 31.1996 19.4333 30.4959 19.5684 29.817C19.7034 29.138 20.0368 28.5144 20.5263 28.0249C21.0158 27.5354 21.6394 27.2021 22.3183 27.067C22.9973 26.932 23.701 27.0013 24.3405 27.2662C24.9801 27.5311 25.5267 27.9797 25.9113 28.5553C26.2959 29.1308 26.5011 29.8075 26.5011 30.4998C26.5011 31.428 26.1324 32.3183 25.476 32.9746C24.8196 33.631 23.9294 33.9998 23.0011 33.9998ZM34.5011 30.5985V30.401L36.2511 28.2123C36.398 28.0289 36.4998 27.8135 36.5482 27.5836C36.5966 27.3537 36.5904 27.1156 36.5299 26.8885C36.2141 25.6974 35.7421 24.5533 35.1261 23.486C35.0075 23.2825 34.8426 23.1098 34.6447 22.9819C34.4469 22.854 34.2217 22.7744 33.9874 22.7498L31.2024 22.4373L31.0636 22.2985L30.7511 19.5123C30.7263 19.2782 30.6467 19.0533 30.5188 18.8557C30.3909 18.658 30.2183 18.4933 30.0149 18.3748C28.9475 17.7569 27.803 17.2832 26.6111 16.966C26.3839 16.9064 26.1458 16.9011 25.9161 16.9504C25.6864 16.9997 25.4715 17.1022 25.2886 17.2498L23.0999 18.9998H22.9024L20.7136 17.2498C20.5302 17.1029 20.3149 17.0011 20.085 16.9527C19.855 16.9043 19.617 16.9106 19.3899 16.971C18.1985 17.2888 17.0544 17.7629 15.9874 18.381C15.7847 18.4991 15.6124 18.663 15.4846 18.8597C15.3567 19.0564 15.2768 19.2803 15.2511 19.5135L14.9386 22.2985L14.7999 22.4373L12.0136 22.7498C11.7796 22.7746 11.5546 22.8542 11.357 22.9821C11.1594 23.11 10.9947 23.2827 10.8761 23.486C10.26 24.5536 9.78797 25.6982 9.47239 26.8898C9.41213 27.1166 9.40596 27.3545 9.45437 27.5842C9.50279 27.8139 9.60444 28.029 9.75114 28.2123L11.5011 30.401V30.5985L9.75114 32.7873C9.60424 32.9707 9.50248 33.186 9.45407 33.4159C9.40565 33.6459 9.41192 33.884 9.47239 34.111C9.79055 35.3025 10.2651 36.4466 10.8836 37.5135C11.0016 37.7161 11.1653 37.8882 11.3618 38.0161C11.5582 38.1439 11.7819 38.224 12.0149 38.2498L14.7999 38.5598L14.9386 38.6985L15.2511 41.4873C15.276 41.7213 15.3556 41.9463 15.4835 42.1439C15.6114 42.3415 15.784 42.5062 15.9874 42.6248C17.0548 43.2427 18.1993 43.7164 19.3911 44.0335C19.6184 44.0931 19.8565 44.0985 20.0862 44.0492C20.3159 43.9999 20.5308 43.8973 20.7136 43.7498L22.9024 41.9998H23.0999L25.2886 43.7498C25.472 43.8967 25.6874 43.9984 25.9173 44.0468C26.1472 44.0953 26.3853 44.089 26.6124 44.0285C27.8035 43.7127 28.9476 43.2407 30.0149 42.6248C30.2181 42.507 30.3908 42.3432 30.5191 42.1465C30.6474 41.9498 30.7278 41.7257 30.7536 41.4923L31.0636 38.7073L31.2024 38.5685L33.9886 38.2498C34.2221 38.2239 34.4461 38.1436 34.6429 38.0152C34.8396 37.8869 35.0034 37.7142 35.1211 37.511C35.739 36.4437 36.2127 35.2991 36.5299 34.1073C36.5897 33.8808 36.5957 33.6434 36.5473 33.4142C36.4989 33.1849 36.3975 32.9702 36.2511 32.7873L34.5011 30.5985ZM31.4861 29.9873C31.5061 30.3286 31.5061 30.6709 31.4861 31.0123C31.4638 31.3834 31.5801 31.7495 31.8124 32.0398L33.4174 34.046C33.2659 34.4945 33.0851 34.9325 32.8761 35.3573L30.3224 35.641C29.9527 35.6833 29.6118 35.8615 29.3661 36.141C29.1391 36.3969 28.897 36.6389 28.6411 36.866C28.3616 37.1117 28.1834 37.4525 28.1411 37.8223L27.8586 40.3748C27.4339 40.5846 26.9959 40.7662 26.5474 40.9185L24.5411 39.3123C24.2749 39.0998 23.9443 38.9843 23.6036 38.9848H23.5136C23.1723 39.0048 22.83 39.0048 22.4886 38.9848C22.1178 38.9628 21.7519 39.0785 21.4611 39.3098L19.4549 40.916C19.0064 40.7645 18.5684 40.5837 18.1436 40.3748L17.8599 37.821C17.8176 37.4513 17.6394 37.1105 17.3599 36.8648C17.1041 36.6377 16.862 36.3956 16.6349 36.1398C16.3892 35.8603 16.0484 35.682 15.6786 35.6398L13.1261 35.3573C12.9164 34.9326 12.7347 34.4945 12.5824 34.046L14.1874 32.0398C14.4197 31.7495 14.536 31.3834 14.5136 31.0123C14.4936 30.6709 14.4936 30.3286 14.5136 29.9873C14.536 29.6162 14.4197 29.25 14.1874 28.9598L12.5849 26.9535C12.7364 26.5051 12.9172 26.067 13.1261 25.6423L15.6799 25.3585C16.0496 25.3162 16.3905 25.138 16.6361 24.8585C16.8632 24.6027 17.1053 24.3606 17.3611 24.1335C17.6407 23.8878 17.8189 23.547 17.8611 23.1773L18.1436 20.6248C18.5683 20.415 19.0064 20.2333 19.4549 20.081L21.4611 21.6873C21.7519 21.9185 22.1178 22.0342 22.4886 22.0123C22.83 21.9923 23.1723 21.9923 23.5136 22.0123C23.8846 22.035 24.2507 21.9191 24.5411 21.6873L26.5474 20.081C26.9959 20.2333 27.4339 20.415 27.8586 20.6248L28.1424 23.1785C28.1847 23.5483 28.3629 23.8891 28.6424 24.1348C28.8982 24.3618 29.1403 24.6039 29.3674 24.8598C29.6131 25.1393 29.9539 25.3175 30.3236 25.3598L32.8761 25.6423C33.0859 26.067 33.2676 26.505 33.4199 26.9535L31.8149 28.9598C31.5817 29.2496 31.4645 29.6159 31.4861 29.9873Z" fill="#55230F"/>
</svg>
