<svg width="52" height="56" viewBox="0 0 52 56" fill="none" xmlns="http://www.w3.org/2000/svg">
<path d="M45 34C45 43.9411 36.9411 52 27 52L6 52C3.23857 52 0.999996 49.7614 0.999997 47L0.999999 18C1 12.4771 5.47715 8 11 8L40 8C42.7614 8 45 10.2386 45 13L45 34Z" fill="#F6B205" fill-opacity="0.1"/>
<path d="M24.125 26.3125C24.125 25.9787 24.224 25.6525 24.4094 25.375C24.5948 25.0975 24.8584 24.8812 25.1667 24.7535C25.4751 24.6257 25.8144 24.5923 26.1417 24.6574C26.4691 24.7225 26.7697 24.8833 27.0057 25.1193C27.2417 25.3553 27.4025 25.6559 27.4676 25.9833C27.5327 26.3106 27.4993 26.6499 27.3715 26.9583C27.2438 27.2666 27.0275 27.5302 26.75 27.7156C26.4725 27.901 26.1463 28 25.8125 28C25.3649 28 24.9357 27.8222 24.6193 27.5057C24.3028 27.1893 24.125 26.7601 24.125 26.3125ZM36.4719 22.0066C36.2771 24.8513 35.0106 27.5163 32.9279 29.4638C30.8452 31.4113 28.1014 32.4963 25.25 32.5H20.75C20.3024 32.5 19.8732 32.6778 19.5568 32.9943C19.2403 33.3107 19.0625 33.7399 19.0625 34.1875C19.0625 34.6351 19.2403 35.0643 19.5568 35.3807C19.8732 35.6972 20.3024 35.875 20.75 35.875H28.625C28.9234 35.875 29.2095 35.9935 29.4205 36.2045C29.6315 36.4155 29.75 36.7016 29.75 37C29.75 37.2984 29.6315 37.5845 29.4205 37.7955C29.2095 38.0065 28.9234 38.125 28.625 38.125H21.875V40.375H26.375C26.6734 40.375 26.9595 40.4935 27.1705 40.7045C27.3815 40.9155 27.5 41.2016 27.5 41.5C27.5 41.7984 27.3815 42.0845 27.1705 42.2955C26.9595 42.5065 26.6734 42.625 26.375 42.625H18.5C15.5163 42.625 12.6548 41.4397 10.545 39.33C8.43526 37.2202 7.25 34.3587 7.25 31.375C7.25 28.3913 8.43526 25.5298 10.545 23.42C12.6548 21.3103 15.5163 20.125 18.5 20.125H34.8125C35.2601 20.125 35.6893 19.9472 36.0057 19.6307C36.3222 19.3143 36.5 18.8851 36.5 18.4375C36.5 17.9899 36.3222 17.5607 36.0057 17.2443C35.6893 16.9278 35.2601 16.75 34.8125 16.75H23C22.1049 16.75 21.2464 16.3944 20.6135 15.7615C19.9806 15.1286 19.625 14.2701 19.625 13.375C19.625 13.0766 19.7435 12.7905 19.9545 12.5795C20.1655 12.3685 20.4516 12.25 20.75 12.25C21.0484 12.25 21.3345 12.3685 21.5455 12.5795C21.7565 12.7905 21.875 13.0766 21.875 13.375C21.875 13.6734 21.9935 13.9595 22.2045 14.1705C22.4155 14.3815 22.7016 14.5 23 14.5H34.8125C35.7085 14.5008 36.5774 14.8072 37.2758 15.3686C37.9741 15.93 38.4601 16.7127 38.6535 17.5876C38.8469 18.4625 38.7361 19.3772 38.3395 20.1806C37.9428 20.984 37.284 21.6281 36.4719 22.0066ZM12.1437 37.7439L16.8153 34.4069V34.1875C16.8145 33.8321 16.8618 33.4783 16.9559 33.1356L9.64062 29.8098C9.38622 31.2366 9.48157 32.7038 9.91851 34.0856C10.3554 35.4675 11.1209 36.7228 12.1494 37.7439H12.1437ZM17.6281 36.5908L14.0169 39.1741C15.3795 39.9619 16.926 40.3762 18.5 40.375H19.625V37.9605C18.8346 37.7228 18.1384 37.2439 17.6337 36.5908H17.6281ZM19.625 30.4145V22.375H18.5C16.7738 22.3769 15.0845 22.8747 13.6331 23.8091C12.1817 24.7435 11.0292 26.0751 10.3128 27.6456L18.1695 31.2161C18.5921 30.8484 19.0883 30.5751 19.625 30.4145ZM34.1797 22.375H21.875V30.25H25.25C27.4414 30.2474 29.5568 29.4464 31.2003 27.9969C32.8439 26.5475 33.9031 24.5489 34.1797 22.375Z" fill="#F6B205"/>
</svg>
