<svg width="52" height="56" viewBox="0 0 52 56" fill="none" xmlns="http://www.w3.org/2000/svg">
<path d="M45 34C45 43.9411 36.9411 52 27 52L6 52C3.23857 52 0.999996 49.7614 0.999997 47L0.999999 18C1 12.4771 5.47715 8 11 8L40 8C42.7614 8 45 10.2386 45 13L45 34Z" fill="#55230F" fill-opacity="0.1"/>
<path d="M21.7234 21.0213C19.6799 21.253 17.7416 22.0508 16.127 23.3248L17.5244 24.7239C17.7497 24.9656 17.8723 25.2853 17.8664 25.6156C17.8606 25.9459 17.7268 26.2611 17.4932 26.4947C17.2596 26.7283 16.9444 26.8621 16.6141 26.8679C16.2838 26.8737 15.9641 26.7511 15.7224 26.5259L14.3182 25.1234C13.1248 26.6203 12.3483 28.4062 12.0674 30.2999H14.9234C15.2616 30.2999 15.5859 30.4342 15.825 30.6733C16.0641 30.9125 16.1984 31.2368 16.1984 31.5749C16.1984 31.9131 16.0641 32.2374 15.825 32.4765C15.5859 32.7156 15.2616 32.8499 14.9234 32.8499H11.9909C12.2556 35.5782 13.5026 38.1175 15.4997 39.995C15.7406 40.2277 15.8803 40.5458 15.8886 40.8806C15.8968 41.2154 15.773 41.54 15.5439 41.7843C15.3148 42.0285 14.9988 42.1729 14.6642 42.1861C14.3296 42.1993 14.0032 42.0803 13.7555 41.8548C11.1375 39.4017 9.39844 35.7841 9.39844 31.903C9.39844 24.4366 15.4963 18.3999 22.9984 18.3999C30.5005 18.3999 36.5984 24.4349 36.5984 31.903C36.5951 33.7663 36.2127 35.6095 35.4744 37.3204C34.7362 39.0312 33.6576 40.574 32.3042 41.8548C32.0566 42.0803 31.7302 42.1993 31.3956 42.1861C31.0609 42.1729 30.7449 42.0285 30.5158 41.7843C30.2867 41.54 30.1629 41.2154 30.1712 40.8806C30.1795 40.5458 30.3192 40.2277 30.56 39.995C32.5433 38.1143 33.7697 35.5727 34.0076 32.8499H31.0734C30.7353 32.8499 30.411 32.7156 30.1719 32.4765C29.9328 32.2374 29.7984 31.9131 29.7984 31.5749C29.7984 31.2368 29.9328 30.9125 30.1719 30.6733C30.411 30.4342 30.7353 30.2999 31.0734 30.2999H33.9294C33.2086 25.4277 29.2493 21.5874 24.2734 21.0213V23.0749C24.2734 23.4131 24.1391 23.7374 23.9 23.9765C23.6609 24.2156 23.3366 24.3499 22.9984 24.3499C22.6603 24.3499 22.336 24.2156 22.0969 23.9765C21.8578 23.7374 21.7234 23.4131 21.7234 23.0749V21.0213ZM28.8617 24.8718C29.0162 24.7491 29.2086 24.684 29.4058 24.6876C29.6031 24.6911 29.7929 24.7632 29.9428 24.8914C30.0928 25.0197 30.1934 25.196 30.2276 25.3903C30.2617 25.5846 30.2272 25.7848 30.1299 25.9564L29.9429 26.2896C29.2593 27.4968 28.5714 28.7015 27.8791 29.9038C27.3257 30.8659 26.7647 31.8236 26.1961 32.7768C25.9831 33.1354 25.7654 33.4913 25.5433 33.8444C25.3733 34.1113 25.2067 34.3646 25.0843 34.5074C24.6452 35.0218 24.0197 35.3408 23.3454 35.394C22.6711 35.4472 22.0033 35.2304 21.4888 34.7913C20.9744 34.3522 20.6555 33.7266 20.6022 33.0524C20.549 32.3781 20.7658 31.7102 21.2049 31.1958C21.3273 31.053 21.55 30.8473 21.788 30.6382C22.043 30.4121 22.3711 30.135 22.74 29.8239C23.4812 29.2051 24.4094 28.4469 25.3138 27.7159C26.3926 26.8433 27.4749 25.9751 28.5608 25.1115L28.8617 24.8718Z" fill="#55230F"/>
</svg>
