<svg width="48" height="48" viewBox="0 0 48 48" fill="none" xmlns="http://www.w3.org/2000/svg">
<g id="carbon:store">
<path id="Vector" d="M45.0006 16.0201L42.0006 7.02009C41.8962 6.70962 41.6931 6.44184 41.4222 6.25766C41.1514 6.07348 40.8277 5.98301 40.5006 6.00009H7.50058C7.17348 5.98301 6.84979 6.07348 6.57893 6.25766C6.30808 6.44184 6.10495 6.70962 6.00058 7.02009L3.00058 16.0201C2.97897 16.1794 2.97897 16.3408 3.00058 16.5001V25.5001C3.00058 25.8979 3.15862 26.2794 3.43992 26.5607C3.72123 26.8421 4.10276 27.0001 4.50058 27.0001H6.00058V42.0001H9.00058V27.0001H18.0006V42.0001H42.0006V27.0001H43.5006C43.8984 27.0001 44.2799 26.8421 44.5612 26.5607C44.8426 26.2794 45.0006 25.8979 45.0006 25.5001V16.5001C45.0222 16.3408 45.0222 16.1794 45.0006 16.0201ZM39.0006 39.0001H21.0006V27.0001H39.0006V39.0001ZM42.0006 24.0001H36.0006V18.0001H33.0006V24.0001H25.5006V18.0001H22.5006V24.0001H15.0006V18.0001H12.0006V24.0001H6.00058V16.7401L8.58058 9.00009H39.4206L42.0006 16.7401V24.0001Z" fill="white"/>
</g>
</svg>
