<svg width="48" height="48" viewBox="0 0 48 48" fill="none" xmlns="http://www.w3.org/2000/svg">
<g id="fluent:food-24-filled">
<path id="Vector" d="M36 6C36.4899 6.00006 36.9627 6.17991 37.3287 6.50543C37.6948 6.83095 37.9287 7.2795 37.986 7.766L38 8V40C37.9994 40.5098 37.8042 41.0001 37.4543 41.3707C37.1044 41.7414 36.6261 41.9645 36.1172 41.9943C35.6083 42.0242 35.1072 41.8587 34.7163 41.5315C34.3254 41.2043 34.0742 40.7402 34.014 40.234L34 40V30H32C31.5101 29.9999 31.0373 29.8201 30.6713 29.4946C30.3052 29.1691 30.0713 28.7205 30.014 28.234L30 28V16C30 11.58 33 6 36 6ZM24 6C24.4899 6.00006 24.9627 6.17991 25.3287 6.50543C25.6948 6.83095 25.9287 7.2795 25.986 7.766L26 8V18C25.9998 19.7737 25.4104 21.4972 24.3243 22.8996C23.2383 24.302 21.7172 25.3039 20 25.748V40C19.9994 40.5098 19.8042 41.0001 19.4543 41.3707C19.1044 41.7414 18.6261 41.9645 18.1172 41.9943C17.6083 42.0242 17.1072 41.8587 16.7163 41.5315C16.3254 41.2043 16.0742 40.7402 16.014 40.234L16 40V25.748C14.3509 25.3217 12.8808 24.3804 11.8035 23.061C10.7262 21.7417 10.0979 20.113 10.01 18.412L10 18V8C10.0006 7.49024 10.1958 6.99994 10.5457 6.62926C10.8956 6.25859 11.3739 6.03553 11.8828 6.00566C12.3917 5.97578 12.8928 6.14135 13.2837 6.46853C13.6746 6.79571 13.9258 7.25981 13.986 7.766L14 8V18C14 18.7021 14.1849 19.3919 14.5359 19.9999C14.887 20.608 15.3919 21.1129 16 21.464V8C16.0006 7.49024 16.1958 6.99994 16.5457 6.62926C16.8956 6.25859 17.3739 6.03553 17.8828 6.00566C18.3917 5.97578 18.8928 6.14135 19.2837 6.46853C19.6746 6.79571 19.9258 7.25981 19.986 7.766L20 8L20.002 21.464C20.5601 21.1414 21.032 20.6887 21.3775 20.1444C21.7229 19.6001 21.9317 18.9804 21.986 18.338L22 18V8C22 7.46957 22.2107 6.96086 22.5858 6.58579C22.9609 6.21071 23.4696 6 24 6Z" fill="white"/>
</g>
</svg>
