<svg width="48" height="48" viewBox="0 0 48 48" fill="none" xmlns="http://www.w3.org/2000/svg">
<g id="ep:sell">
<path id="Vector" d="M32.9988 13.5H39.1428C39.5144 13.5004 39.8726 13.6387 40.1481 13.8881C40.4235 14.1375 40.5966 14.4803 40.6338 14.85L41.5488 24H38.5308L37.7808 16.5H32.9988V21C32.9988 21.3978 32.8407 21.7794 32.5594 22.0607C32.2781 22.342 31.8966 22.5 31.4988 22.5C31.1009 22.5 30.7194 22.342 30.4381 22.0607C30.1568 21.7794 29.9988 21.3978 29.9988 21V16.5H17.9988V21C17.9988 21.3978 17.8407 21.7794 17.5594 22.0607C17.2781 22.342 16.8966 22.5 16.4988 22.5C16.1009 22.5 15.7194 22.342 15.4381 22.0607C15.1568 21.7794 14.9988 21.3978 14.9988 21V16.5H10.2138L7.81377 40.5H23.9988V43.5H6.15477C5.94526 43.4998 5.73812 43.4557 5.54669 43.3706C5.35526 43.2854 5.18379 43.1611 5.04332 43.0057C4.90286 42.8502 4.79651 42.6671 4.73114 42.468C4.66577 42.269 4.64282 42.0585 4.66377 41.85L7.36377 14.85C7.40093 14.4803 7.57401 14.1375 7.84947 13.8881C8.12493 13.6387 8.48317 13.5004 8.85477 13.5H14.9988V12.453C14.9988 7.251 19.0068 3 23.9988 3C28.9908 3 32.9988 7.251 32.9988 12.453V13.503V13.5ZM29.9988 13.5V12.453C29.9988 8.871 27.2928 6 23.9988 6C20.7048 6 17.9988 8.871 17.9988 12.453V13.503H29.9988V13.5ZM39.4398 36.18L35.9988 32.742V43.5C35.9988 43.8978 35.8407 44.2794 35.5594 44.5607C35.2781 44.842 34.8966 45 34.4988 45C34.1009 45 33.7194 44.842 33.4381 44.5607C33.1568 44.2794 32.9988 43.8978 32.9988 43.5V32.742L29.5608 36.18C29.4224 36.3233 29.2569 36.4375 29.0739 36.5162C28.8909 36.5948 28.694 36.6361 28.4949 36.6379C28.2957 36.6396 28.0982 36.6017 27.9138 36.5262C27.7295 36.4508 27.562 36.3394 27.4212 36.1986C27.2803 36.0578 27.169 35.8903 27.0935 35.7059C27.0181 35.5216 26.9802 35.3241 26.9819 35.1249C26.9836 34.9257 27.025 34.7289 27.1036 34.5459C27.1822 34.3629 27.2965 34.1974 27.4398 34.059L33.4398 28.059C33.7211 27.7778 34.1025 27.6198 34.5003 27.6198C34.898 27.6198 35.2795 27.7778 35.5608 28.059L41.5608 34.059C41.704 34.1974 41.8183 34.3629 41.8969 34.5459C41.9755 34.7289 42.0169 34.9257 42.0186 35.1249C42.0204 35.3241 41.9824 35.5216 41.907 35.7059C41.8316 35.8903 41.7202 36.0578 41.5794 36.1986C41.4385 36.3394 41.271 36.4508 41.0867 36.5262C40.9024 36.6017 40.7048 36.6396 40.5057 36.6379C40.3065 36.6361 40.1097 36.5948 39.9267 36.5162C39.7437 36.4375 39.5781 36.3233 39.4398 36.18Z" fill="white"/>
</g>
</svg>
