<svg width="24" height="25" viewBox="0 0 24 25" fill="none" xmlns="http://www.w3.org/2000/svg">
<g id="ic:baseline-tiktok">
<path id="Vector" d="M16.6002 6.0202C15.9166 5.23982 15.5399 4.23763 15.5402 3.2002H12.4502V15.6002C12.4263 16.2712 12.143 16.9068 11.6599 17.3731C11.1768 17.8395 10.5316 18.1001 9.86016 18.1002C8.44016 18.1002 7.26016 16.9402 7.26016 15.5002C7.26016 13.7802 8.92016 12.4902 10.6302 13.0202V9.8602C7.18016 9.4002 4.16016 12.0802 4.16016 15.5002C4.16016 18.8302 6.92016 21.2002 9.85016 21.2002C12.9902 21.2002 15.5402 18.6502 15.5402 15.5002V9.2102C16.7932 10.11 18.2975 10.5928 19.8402 10.5902V7.5002C19.8402 7.5002 17.9602 7.5902 16.6002 6.0202Z" fill="white"/>
</g>
</svg>
