<svg width="24" height="25" viewBox="0 0 24 25" fill="none" xmlns="http://www.w3.org/2000/svg">
<g id="mdi:twitter">
<path id="Vector" d="M22.4591 6.2002C21.6891 6.5502 20.8591 6.7802 19.9991 6.8902C20.8791 6.3602 21.5591 5.5202 21.8791 4.5102C21.0491 5.0102 20.1291 5.3602 19.1591 5.5602C18.3691 4.7002 17.2591 4.2002 15.9991 4.2002C13.6491 4.2002 11.7291 6.1202 11.7291 8.4902C11.7291 8.8302 11.7691 9.1602 11.8391 9.4702C8.27906 9.2902 5.10906 7.5802 2.99906 4.9902C2.62906 5.6202 2.41906 6.3602 2.41906 7.1402C2.41906 8.6302 3.16906 9.9502 4.32906 10.7002C3.61906 10.7002 2.95906 10.5002 2.37906 10.2002V10.2302C2.37906 12.3102 3.85906 14.0502 5.81906 14.4402C5.18979 14.6124 4.52916 14.6364 3.88906 14.5102C4.16067 15.3627 4.6926 16.1086 5.41008 16.6431C6.12756 17.1776 6.99451 17.4739 7.88906 17.4902C6.37269 18.6906 4.49306 19.3395 2.55906 19.3302C2.21906 19.3302 1.87906 19.3102 1.53906 19.2702C3.43906 20.4902 5.69906 21.2002 8.11906 21.2002C15.9991 21.2002 20.3291 14.6602 20.3291 8.9902C20.3291 8.8002 20.3291 8.62019 20.3191 8.43019C21.1591 7.83019 21.8791 7.0702 22.4591 6.2002Z" fill="white"/>
</g>
</svg>
